<svg width="632" height="649" viewBox="0 0 632 649" fill="none" xmlns="http://www.w3.org/2000/svg">
<rect x="0.5" y="0.5" width="631" height="648" rx="11.5" fill="white"/>
<rect x="0.5" y="0.5" width="631" height="648" rx="11.5" stroke="#E2E8F0"/>
<path d="M35.88 26V43.8H33.52V26H35.88ZM20.16 38.6C22.78 37 23.76 33.8 23.76 30.8V29.84H20.84V27.84H28.84V29.84H26.16V30.8C26.14 33.74 27.08 36.72 29.68 38.2L28.2 40.04C26.6 39.1 25.58 37.52 24.98 35.62C24.36 37.68 23.3 39.44 21.68 40.44L20.16 38.6ZM27.6 34.12V32.12H29.92V26.32H32.24V42.96H29.92V34.12H27.6ZM54.0452 34.36V36.32H47.1252V37.84H52.0852V43.6H39.6852V37.84H44.6452V36.32H37.8052V34.36H54.0452ZM39.2452 28.52V26.52H52.5652V28.52H50.2452V31.2H52.4452V33.2H39.3652V31.2H41.5252V28.52H39.2452ZM42.1652 41.6H49.6452V39.76H42.1652V41.6ZM44.0452 31.2H47.7652V28.52H44.0452V31.2Z" fill="#334155"/>
<path d="M32.512 71.328V85.312H31.104V71.328H32.512ZM20.32 81.472C22.288 80.272 23.312 77.728 23.296 75.232V74.112H20.736V72.896H27.136V74.112H24.736V75.232C24.736 77.632 25.696 80.016 27.68 81.152L26.784 82.24C25.44 81.44 24.528 80.032 24.032 78.336C23.536 80.16 22.592 81.712 21.216 82.56L20.32 81.472ZM26.112 77.504V76.288H28.288V71.616H29.696V84.608H28.288V77.504H26.112ZM47.1081 78.016V79.232H41.4441V80.736H45.5401V85.152H35.8761V80.736H39.9721V79.232H34.3401V78.016H47.1081ZM35.5241 72.96V71.744H45.9241V72.96H43.8761V75.648H45.8601V76.832H35.5881V75.648H37.5721V72.96H35.5241ZM37.3481 83.936H44.1001V81.888H37.3481V83.936ZM39.0441 75.648H42.4041V72.96H39.0441V75.648ZM63.7225 71.328V85.312H62.2185V71.328H63.7225ZM52.2025 81.568C55.9465 79.808 57.7545 77.28 58.0425 74.016H52.9065V72.832H59.5625C59.5465 76.928 57.8025 80.48 53.0025 82.784L52.2025 81.568ZM69.0386 71.872V73.504H75.5346V71.872H77.0066V77.504H73.0386V78.912H78.6706V80.096H65.9026V78.912H71.5346V77.504H67.5666V71.872H69.0386ZM67.5346 85.024V81.12H69.0066V83.84H77.2306V85.024H67.5346ZM69.0386 76.32H75.5346V74.688H69.0386V76.32ZM95.317 71.328V79.648H93.845V76.128H91.221V74.912H93.845V71.328H95.317ZM83.637 78.4C85.813 77.632 87.141 75.744 87.157 73.824V73.504H84.117V72.288H91.669V73.504H88.661V73.792C88.645 75.568 89.909 77.296 92.021 78.016L91.253 79.2C89.685 78.64 88.533 77.52 87.941 76.144C87.317 77.712 86.085 78.976 84.405 79.584L83.637 78.4ZM85.877 82.688C85.877 81.024 87.685 80.048 90.613 80.064C93.557 80.048 95.349 81.024 95.349 82.688C95.349 84.352 93.557 85.312 90.613 85.312C87.685 85.312 85.877 84.352 85.877 82.688ZM87.349 82.688C87.349 83.632 88.565 84.176 90.613 84.16C92.661 84.176 93.877 83.632 93.877 82.688C93.877 81.744 92.661 81.2 90.613 81.184C88.565 81.2 87.349 81.744 87.349 82.688ZM110.297 82.368V83.584H97.4651V82.368H103.097V79.488H98.9371V72.288H100.409V74.688H107.289V72.288H108.761V79.488H104.569V82.368H110.297ZM100.409 78.304H107.289V75.904H100.409V78.304Z" fill="#334155"/>
<path d="M32.512 311.328V325.312H31.104V311.328H32.512ZM20.32 321.472C22.288 320.272 23.312 317.728 23.296 315.232V314.112H20.736V312.896H27.136V314.112H24.736V315.232C24.736 317.632 25.696 320.016 27.68 321.152L26.784 322.24C25.44 321.44 24.528 320.032 24.032 318.336C23.536 320.16 22.592 321.712 21.216 322.56L20.32 321.472ZM26.112 317.504V316.288H28.288V311.616H29.696V324.608H28.288V317.504H26.112ZM47.1081 318.016V319.232H41.4441V320.736H45.5401V325.152H35.8761V320.736H39.9721V319.232H34.3401V318.016H47.1081ZM35.5241 312.96V311.744H45.9241V312.96H43.8761V315.648H45.8601V316.832H35.5881V315.648H37.5721V312.96H35.5241ZM37.3481 323.936H44.1001V321.888H37.3481V323.936ZM39.0441 315.648H42.4041V312.96H39.0441V315.648ZM56.9065 313.568C56.9065 315.408 58.1865 317.104 60.2985 317.792L59.4985 318.976C57.9625 318.432 56.8105 317.328 56.1865 315.952C55.5945 317.52 54.4105 318.752 52.7785 319.36L51.9785 318.176C54.1545 317.392 55.4185 315.52 55.4345 313.44V312.064H56.9065V313.568ZM53.8665 322.688C53.8665 321.056 55.6585 320.112 58.5705 320.096C61.4345 320.112 63.2105 321.056 63.2105 322.688C63.2105 324.352 61.4345 325.312 58.5705 325.312C55.6585 325.312 53.8665 324.352 53.8665 322.688ZM55.3385 322.688C55.3385 323.632 56.5385 324.128 58.5705 324.128C60.5705 324.128 61.7545 323.632 61.7705 322.688C61.7545 321.808 60.5705 321.28 58.5705 321.28C56.5385 321.28 55.3385 321.808 55.3385 322.688ZM61.6105 319.776V311.328H63.0825V314.848H65.0985V316.096H63.0825V319.776H61.6105ZM70.1586 315.136C70.1746 317.392 71.1026 319.776 72.9746 320.928L72.1426 322.08C70.8466 321.28 69.9506 319.888 69.4706 318.256C68.9586 320.032 67.9986 321.536 66.6386 322.368L65.7106 321.28C67.6946 320.08 68.7346 317.6 68.7506 315.232V312.608H70.1586V315.136ZM71.4706 317.472V316.256H73.6466V311.584H75.0546V324.64H73.6466V317.472H71.4706ZM76.5266 325.312V311.328H77.9346V325.312H76.5266ZM95.317 311.328V318.528H93.845V314.944H90.869V313.728H93.845V311.328H95.317ZM83.605 317.408C85.781 316.704 87.077 314.96 87.093 312.992V311.776H88.565V312.992C88.565 314.784 89.845 316.448 91.957 317.12L91.157 318.272C89.637 317.744 88.469 316.688 87.845 315.344C87.237 316.848 86.037 318.016 84.373 318.592L83.605 317.408ZM86.165 320.352V319.2H95.317V322.656H87.637V323.968H95.797V325.152H86.197V321.568H93.845V320.352H86.165ZM109.145 311.328V319.584H107.673V317.536H104.601V318.656H98.1051V312.384H104.601V313.536H107.673V311.328H109.145ZM99.5771 317.472H103.161V313.568H99.5771V317.472ZM99.7051 322.656C99.7051 320.96 101.513 319.984 104.441 319.968C107.385 319.984 109.177 320.96 109.177 322.656C109.177 324.352 107.385 325.312 104.441 325.312C101.513 325.312 99.7051 324.352 99.7051 322.656ZM101.177 322.656C101.177 323.6 102.393 324.144 104.441 324.16C106.489 324.144 107.705 323.6 107.705 322.656C107.705 321.68 106.489 321.136 104.441 321.12C102.393 321.136 101.177 321.68 101.177 322.656ZM104.601 316.32H107.673V314.72H104.601V316.32Z" fill="#334155"/>
<path d="M32.512 227.328V241.312H31.104V227.328H32.512ZM20.32 237.472C22.288 236.272 23.312 233.728 23.296 231.232V230.112H20.736V228.896H27.136V230.112H24.736V231.232C24.736 233.632 25.696 236.016 27.68 237.152L26.784 238.24C25.44 237.44 24.528 236.032 24.032 234.336C23.536 236.16 22.592 237.712 21.216 238.56L20.32 237.472ZM26.112 233.504V232.288H28.288V227.616H29.696V240.608H28.288V233.504H26.112ZM47.1081 234.016V235.232H41.4441V236.736H45.5401V241.152H35.8761V236.736H39.9721V235.232H34.3401V234.016H47.1081ZM35.5241 228.96V227.744H45.9241V228.96H43.8761V231.648H45.8601V232.832H35.5881V231.648H37.5721V228.96H35.5241ZM37.3481 239.936H44.1001V237.888H37.3481V239.936ZM39.0441 231.648H42.4041V228.96H39.0441V231.648ZM56.9065 229.568C56.9065 231.408 58.1865 233.104 60.2985 233.792L59.4985 234.976C57.9625 234.432 56.8105 233.328 56.1865 231.952C55.5945 233.52 54.4105 234.752 52.7785 235.36L51.9785 234.176C54.1545 233.392 55.4185 231.52 55.4345 229.44V228.064H56.9065V229.568ZM53.8665 238.688C53.8665 237.056 55.6585 236.112 58.5705 236.096C61.4345 236.112 63.2105 237.056 63.2105 238.688C63.2105 240.352 61.4345 241.312 58.5705 241.312C55.6585 241.312 53.8665 240.352 53.8665 238.688ZM55.3385 238.688C55.3385 239.632 56.5385 240.128 58.5705 240.128C60.5705 240.128 61.7545 239.632 61.7705 238.688C61.7545 237.808 60.5705 237.28 58.5705 237.28C56.5385 237.28 55.3385 237.808 55.3385 238.688ZM61.6105 235.776V227.328H63.0825V230.848H65.0985V232.096H63.0825V235.776H61.6105ZM72.0466 228.896V230.08H67.8546V232.576H71.8226V233.76H67.8546V236.704C69.7586 236.672 71.0066 236.624 72.4946 236.384L72.6226 237.6C70.9746 237.888 69.6146 237.952 67.3746 237.952H66.4466V228.896H72.0466ZM73.4226 240.64V227.584H74.8306V232.896H76.5266V227.328H77.9346V241.312H76.5266V234.08H74.8306V240.64H73.4226Z" fill="#334155"/>
<rect x="20.5" y="98.5" width="591" height="39" rx="5.5" fill="#F8FAFC"/>
<rect x="20.5" y="98.5" width="591" height="39" rx="5.5" stroke="#E2E8F0"/>
<path d="M35.5771 114.367C35.5771 115.667 36.5654 116.859 37.9512 117.332L37.4893 117.998C36.4312 117.611 35.5986 116.822 35.1797 115.828C34.7715 116.951 33.9229 117.837 32.8057 118.267L32.3545 117.59C33.7832 117.053 34.7393 115.774 34.75 114.303V113.314H35.5771V114.367ZM39.8525 112.82V115.312H41.292V116.021H39.8525V118.632H39.0146V112.82H39.8525ZM36.791 118.879C38.7568 118.879 39.9385 119.513 39.9385 120.608C39.9385 121.726 38.7568 122.349 36.791 122.349C34.8252 122.349 33.6221 121.726 33.6221 120.608C33.6221 119.513 34.8252 118.879 36.791 118.879ZM36.791 119.556C35.3516 119.556 34.46 119.953 34.4707 120.608C34.46 121.285 35.3516 121.672 36.791 121.683C38.2412 121.672 39.1221 121.285 39.1221 120.608C39.1221 119.953 38.2412 119.556 36.791 119.556ZM50.5947 117.439V118.138H46.6523V119.266H49.5312V122.241H42.957V119.266H45.8252V118.138H41.8936V117.439H50.5947ZM49.7676 113.132V113.83H48.2959V115.839H49.7354V116.537H42.7422V115.839H44.1816V113.83H42.71V113.132H49.7676ZM43.7949 119.932V121.554H48.7041V119.932H43.7949ZM45.0195 115.839H47.458V113.83H45.0195V115.839ZM59.3174 112.82V118.481H58.4688V116.978H56.2344V117.794H51.8516V113.551H56.2344V114.378H58.4688V112.82H59.3174ZM52.6895 114.238V117.106H55.4072V114.238H52.6895ZM56.1484 118.761C58.1357 118.761 59.3496 119.416 59.3496 120.565C59.3496 121.704 58.1357 122.349 56.1484 122.349C54.1611 122.349 52.9473 121.704 52.9473 120.565C52.9473 119.416 54.1611 118.761 56.1484 118.761ZM56.1484 119.416C54.6875 119.427 53.7744 119.846 53.7852 120.565C53.7744 121.253 54.6875 121.683 56.1484 121.683C57.6094 121.683 58.5117 121.253 58.5117 120.565C58.5117 119.846 57.6094 119.427 56.1484 119.416ZM56.2344 116.269H58.4688V115.076H56.2344V116.269ZM65.2578 112.992C67.3848 112.992 68.6309 113.572 68.6309 114.636C68.6309 115.721 67.3848 116.301 65.2578 116.312C63.1309 116.301 61.874 115.721 61.874 114.636C61.874 113.572 63.1309 112.992 65.2578 112.992ZM65.2578 113.626C63.668 113.626 62.7441 114.013 62.7549 114.636C62.7441 115.302 63.668 115.667 65.2578 115.667C66.8369 115.667 67.7715 115.302 67.7715 114.636C67.7715 114.013 66.8369 113.626 65.2578 113.626ZM69.6084 116.956V117.644H60.9072V116.956H69.6084ZM68.4912 118.471V120.608H62.8193V121.597H68.7812V122.263H61.9814V119.985H67.6641V119.115H61.96V118.471H68.4912ZM81.0596 112.82V117.944H80.2217V112.82H81.0596ZM75.71 118.428V119.588H80.2217V118.428H81.0596V122.241H74.8721V118.428H75.71ZM75.71 121.554H80.2217V120.265H75.71V121.554ZM75.9033 113.293C77.3535 113.282 78.4062 114.174 78.4062 115.484C78.4062 116.784 77.3535 117.676 75.9033 117.676C74.4531 117.676 73.4004 116.784 73.4004 115.484C73.4004 114.174 74.4531 113.282 75.9033 113.293ZM75.9033 114.002C74.9258 113.991 74.2168 114.614 74.2275 115.484C74.2168 116.354 74.9258 116.978 75.9033 116.978C76.8701 116.978 77.5791 116.354 77.5791 115.484C77.5791 114.614 76.8701 113.991 75.9033 114.002ZM87.2148 113.411V116.086H83.9277V117.568C85.7217 117.568 86.6455 117.542 87.7734 117.332L87.8594 118.03C86.667 118.224 85.7002 118.256 83.7666 118.256H83.0898V115.441H86.377V114.088H83.0684V113.411H87.2148ZM90.5986 112.831V118.696H89.75V116.924H87.8486V116.226H89.75V114.937H87.8486V114.249H89.75V112.831H90.5986ZM90.5986 119.212V122.392H89.75V119.899H84.1641V119.212H90.5986ZM96.958 114.475V115.162H92.167V114.475H94.1543V113.11H94.9922V114.475H96.958ZM94.5625 115.807C95.7656 115.807 96.625 116.709 96.6357 117.977C96.625 119.255 95.7656 120.168 94.5625 120.168C93.3701 120.168 92.5107 119.255 92.5107 117.977C92.5107 116.709 93.3701 115.807 94.5625 115.807ZM94.5625 116.516C93.8105 116.526 93.2627 117.139 93.2627 117.977C93.2627 118.825 93.8105 119.438 94.5625 119.427C95.3252 119.438 95.8838 118.825 95.8838 117.977C95.8838 117.139 95.3252 116.526 94.5625 116.516ZM100.32 112.82V122.37H99.5146V117.547H98.2471V121.897H97.4521V113.057H98.2471V116.849H99.5146V112.82H100.32ZM106.519 114.174C106.508 115.452 108.216 116.537 109.881 116.784L109.569 117.45C108.076 117.198 106.626 116.403 106.046 115.248C105.466 116.403 104.01 117.198 102.544 117.45L102.211 116.784C103.865 116.537 105.573 115.452 105.573 114.174V114.109H102.512V113.422H109.569V114.109H106.519V114.174ZM110.396 118.267V118.965H106.443V122.37H105.616V118.965H101.695V118.267H110.396ZM114.038 115.538C114.038 117.053 114.779 118.696 116.047 119.448L115.563 120.104C114.645 119.545 113.984 118.524 113.651 117.364C113.297 118.632 112.588 119.722 111.632 120.308L111.095 119.674C112.416 118.9 113.222 117.203 113.222 115.57V113.723H114.038V115.538ZM119.388 112.82V122.37H118.571V112.82H119.388ZM117.411 113.024V121.887H116.616V116.967H114.994V116.247H116.616V113.024H117.411ZM129.453 120.437V121.146H120.709V120.437H122.879V117.858C122.062 117.434 121.568 116.747 121.568 115.882C121.568 114.399 123.019 113.433 125.06 113.422C127.101 113.433 128.551 114.399 128.551 115.882C128.551 116.73 128.073 117.413 127.283 117.837V120.437H129.453ZM125.06 114.12C123.491 114.109 122.385 114.818 122.385 115.882C122.385 116.945 123.491 117.665 125.06 117.665C126.617 117.665 127.734 116.945 127.734 115.882C127.734 114.818 126.617 114.109 125.06 114.12ZM123.706 120.437H126.435V118.159C126.021 118.272 125.559 118.331 125.06 118.331C124.571 118.331 124.114 118.277 123.706 118.17V120.437ZM131.226 121.564C130.85 121.564 130.527 121.253 130.538 120.866C130.527 120.49 130.85 120.179 131.226 120.179C131.602 120.179 131.913 120.49 131.913 120.866C131.913 121.253 131.602 121.564 131.226 121.564Z" fill="#94A3B8"/>
<path d="M577.979 122.098C576.406 122.098 575.508 120.779 575.508 118.465C575.508 116.17 576.426 114.832 577.979 114.832C579.531 114.832 580.449 116.17 580.449 118.465C580.449 120.779 579.541 122.098 577.979 122.098ZM577.979 121.316C578.994 121.316 579.59 120.291 579.59 118.465C579.59 116.639 578.994 115.594 577.979 115.594C576.963 115.594 576.357 116.639 576.357 118.465C576.357 120.291 576.953 121.316 577.979 121.316ZM584.15 114.598L581.865 123.064H581.104L583.379 114.598H584.15ZM584.785 120.555V119.832L587.969 114.93H589.053V119.783H590.039V120.555H589.053V122H588.213V120.555H584.785ZM585.732 119.783H588.213V116.043H588.125L585.732 119.725V119.783ZM593.516 122.098C591.943 122.098 591.045 120.779 591.045 118.465C591.045 116.17 591.963 114.832 593.516 114.832C595.068 114.832 595.986 116.17 595.986 118.465C595.986 120.779 595.078 122.098 593.516 122.098ZM593.516 121.316C594.531 121.316 595.127 120.291 595.127 118.465C595.127 116.639 594.531 115.594 593.516 115.594C592.5 115.594 591.895 116.639 591.895 118.465C591.895 120.291 592.49 121.316 593.516 121.316Z" fill="#94A3B8"/>
<rect x="20.5" y="150.5" width="591" height="39" rx="5.5" fill="#F8FAFC"/>
<rect x="20.5" y="150.5" width="591" height="39" rx="5.5" stroke="#E2E8F0"/>
<path d="M40.2178 164.82V174.37H39.3799V164.82H40.2178ZM32.4404 171.76C34.2666 171.76 36.6621 171.749 38.7461 171.491L38.8105 172.114C36.6621 172.469 34.3525 172.49 32.5693 172.479L32.4404 171.76ZM38.499 166.12V166.808H32.6445V166.12H35.1475V164.928H36.0068V166.12H38.499ZM35.5771 167.334C36.9414 167.334 37.8652 168.043 37.876 169.139C37.8652 170.213 36.9414 170.933 35.5771 170.922C34.2236 170.933 33.2891 170.213 33.2998 169.139C33.2891 168.043 34.2236 167.334 35.5771 167.334ZM35.5771 168C34.6963 168 34.084 168.462 34.084 169.139C34.084 169.805 34.6963 170.267 35.5771 170.267C36.458 170.267 37.0703 169.805 37.0703 169.139C37.0703 168.462 36.458 168 35.5771 168ZM46.7168 165.551V169.644H42.3018V165.551H46.7168ZM43.1289 166.238V168.967H45.9004V166.238H43.1289ZM49.3594 164.82V167.216H50.7988V167.914H49.3594V170.471H48.5215V164.82H49.3594ZM46.2979 170.793C48.2422 170.793 49.4453 171.459 49.4453 172.576C49.4453 173.704 48.2422 174.359 46.2979 174.37C44.3428 174.359 43.1289 173.704 43.1289 172.576C43.1289 171.459 44.3428 170.793 46.2979 170.793ZM46.2979 171.48C44.8584 171.48 43.9668 171.889 43.9775 172.576C43.9668 173.274 44.8584 173.672 46.2979 173.683C47.748 173.672 48.6289 173.274 48.6289 172.576C48.6289 171.889 47.748 171.48 46.2979 171.48ZM61.5518 164.82V168.709H63.0986V169.418H61.5518V174.37H60.7139V164.82H61.5518ZM59.0811 165.852C59.0811 168.559 57.8135 171.019 54.6982 172.555L54.2256 171.889C56.6963 170.659 58.0391 168.822 58.2324 166.561H54.666V165.852H59.0811ZM68.7061 165.476C68.7061 165.846 68.6631 166.201 68.5879 166.539H70.7363V164.831H71.585V170.524H70.7363V169.257H68.2012V168.559H70.7363V167.237H68.3623C67.7124 168.741 66.2192 169.826 64.1514 170.396L63.8184 169.719C66.1494 169.074 67.6265 167.791 67.8037 166.163H64.3018V165.476H68.7061ZM71.585 170.943V174.359H70.7363V171.62H65.1611V170.943H71.585ZM77.5254 164.992C79.6523 164.992 80.8984 165.572 80.8984 166.636C80.8984 167.721 79.6523 168.301 77.5254 168.312C75.3984 168.301 74.1416 167.721 74.1416 166.636C74.1416 165.572 75.3984 164.992 77.5254 164.992ZM77.5254 165.626C75.9355 165.626 75.0117 166.013 75.0225 166.636C75.0117 167.302 75.9355 167.667 77.5254 167.667C79.1045 167.667 80.0391 167.302 80.0391 166.636C80.0391 166.013 79.1045 165.626 77.5254 165.626ZM81.876 168.956V169.644H73.1748V168.956H81.876ZM80.7588 170.471V172.608H75.0869V173.597H81.0488V174.263H74.249V171.985H79.9316V171.115H74.2275V170.471H80.7588ZM93.3271 164.82V169.944H92.4893V164.82H93.3271ZM87.9775 170.428V171.588H92.4893V170.428H93.3271V174.241H87.1396V170.428H87.9775ZM87.9775 173.554H92.4893V172.265H87.9775V173.554ZM88.1709 165.293C89.6211 165.282 90.6738 166.174 90.6738 167.484C90.6738 168.784 89.6211 169.676 88.1709 169.676C86.7207 169.676 85.668 168.784 85.668 167.484C85.668 166.174 86.7207 165.282 88.1709 165.293ZM88.1709 166.002C87.1934 165.991 86.4844 166.614 86.4951 167.484C86.4844 168.354 87.1934 168.978 88.1709 168.978C89.1377 168.978 89.8467 168.354 89.8467 167.484C89.8467 166.614 89.1377 165.991 88.1709 166.002ZM99.4824 165.411V168.086H96.1953V169.568C97.9893 169.568 98.9131 169.542 100.041 169.332L100.127 170.03C98.9346 170.224 97.9678 170.256 96.0342 170.256H95.3574V167.441H98.6445V166.088H95.3359V165.411H99.4824ZM102.866 164.831V170.696H102.018V168.924H100.116V168.226H102.018V166.937H100.116V166.249H102.018V164.831H102.866ZM102.866 171.212V174.392H102.018V171.899H96.4316V171.212H102.866ZM109.226 166.475V167.162H104.435V166.475H106.422V165.11H107.26V166.475H109.226ZM106.83 167.807C108.033 167.807 108.893 168.709 108.903 169.977C108.893 171.255 108.033 172.168 106.83 172.168C105.638 172.168 104.778 171.255 104.778 169.977C104.778 168.709 105.638 167.807 106.83 167.807ZM106.83 168.516C106.078 168.526 105.53 169.139 105.53 169.977C105.53 170.825 106.078 171.438 106.83 171.427C107.593 171.438 108.151 170.825 108.151 169.977C108.151 169.139 107.593 168.526 106.83 168.516ZM112.588 164.82V174.37H111.782V169.547H110.515V173.897H109.72V165.057H110.515V168.849H111.782V164.82H112.588ZM118.786 166.174C118.775 167.452 120.483 168.537 122.148 168.784L121.837 169.45C120.344 169.198 118.894 168.403 118.313 167.248C117.733 168.403 116.278 169.198 114.812 169.45L114.479 168.784C116.133 168.537 117.841 167.452 117.841 166.174V166.109H114.779V165.422H121.837V166.109H118.786V166.174ZM122.664 170.267V170.965H118.711V174.37H117.884V170.965H113.963V170.267H122.664ZM126.306 167.538C126.306 169.053 127.047 170.696 128.314 171.448L127.831 172.104C126.913 171.545 126.252 170.524 125.919 169.364C125.564 170.632 124.855 171.722 123.899 172.308L123.362 171.674C124.684 170.9 125.489 169.203 125.489 167.57V165.723H126.306V167.538ZM131.655 164.82V174.37H130.839V164.82H131.655ZM129.679 165.024V173.887H128.884V168.967H127.262V168.247H128.884V165.024H129.679ZM141.721 172.437V173.146H132.977V172.437H135.146V169.858C134.33 169.434 133.836 168.747 133.836 167.882C133.836 166.399 135.286 165.433 137.327 165.422C139.368 165.433 140.818 166.399 140.818 167.882C140.818 168.73 140.34 169.413 139.551 169.837V172.437H141.721ZM137.327 166.12C135.759 166.109 134.652 166.818 134.652 167.882C134.652 168.945 135.759 169.665 137.327 169.665C138.885 169.665 140.002 168.945 140.002 167.882C140.002 166.818 138.885 166.109 137.327 166.12ZM135.974 172.437H138.702V170.159C138.289 170.272 137.827 170.331 137.327 170.331C136.838 170.331 136.382 170.277 135.974 170.17V172.437ZM143.493 173.564C143.117 173.564 142.795 173.253 142.806 172.866C142.795 172.49 143.117 172.179 143.493 172.179C143.869 172.179 144.181 172.49 144.181 172.866C144.181 173.253 143.869 173.564 143.493 173.564Z" fill="#94A3B8"/>
<path d="M20.5 260C20.5 256.962 22.9624 254.5 26 254.5H34C37.0376 254.5 39.5 256.962 39.5 260V268C39.5 271.038 37.0376 273.5 34 273.5H26C22.9624 273.5 20.5 271.038 20.5 268V260Z" fill="#5797FF" stroke="#5797FF"/>
<path d="M35.2367 260.36L35.2445 260.368L35.2527 260.376C35.2865 260.407 35.3135 260.445 35.332 260.487C35.3504 260.529 35.36 260.575 35.36 260.621C35.36 260.667 35.3504 260.712 35.332 260.754C35.3135 260.797 35.2865 260.835 35.2527 260.866L35.2453 260.873L35.2382 260.88L28.4382 267.68L28.4382 267.68L28.4367 267.681C28.4057 267.712 28.3689 267.737 28.3282 267.754C28.2876 267.771 28.244 267.78 28.2 267.78C28.156 267.78 28.1125 267.771 28.0718 267.754C28.0312 267.737 27.9944 267.712 27.9634 267.681L27.9619 267.68L24.7619 264.48L24.762 264.48L24.7558 264.474C24.7225 264.442 24.696 264.403 24.6776 264.361C24.6592 264.319 24.6493 264.273 24.6485 264.227C24.6477 264.181 24.656 264.135 24.6729 264.092L24.2077 263.908L24.6729 264.092C24.6899 264.049 24.7151 264.01 24.7472 263.976C24.7792 263.943 24.8175 263.917 24.8599 263.898L24.6631 263.446L24.8599 263.898C24.9022 263.88 24.9478 263.87 24.994 263.869C25.0401 263.868 25.086 263.877 25.129 263.894L25.3123 263.428L25.129 263.894C25.1708 263.91 25.209 263.934 25.2416 263.965L27.8459 266.578L28.1997 266.933L28.5538 266.578L34.7622 260.362L34.7634 260.36C34.7944 260.329 34.8312 260.304 34.8718 260.287C34.9125 260.27 34.956 260.262 35 260.262C35.044 260.262 35.0876 260.27 35.1282 260.287C35.1688 260.304 35.2057 260.329 35.2367 260.36Z" fill="white" stroke="white"/>
<path d="M51.624 261.328C51.624 263.092 52.344 264.844 53.76 265.6L53.112 266.488C52.116 265.936 51.456 264.94 51.084 263.74C50.7 265.048 49.98 266.152 48.96 266.752L48.24 265.96C49.74 265.072 50.544 263.2 50.544 261.424V259.456H51.624V261.328ZM54.024 268.48V258.688H55.08V262.672H56.352V258.496H57.408V268.984H56.352V263.584H55.08V268.48H54.024ZM70.6848 258.496V268.984H69.6288V258.496H70.6848ZM61.5408 266.104C63.0168 265.204 63.7848 263.296 63.7728 261.424V260.584H61.8528V259.672H66.6528V260.584H64.8528V261.424C64.8528 263.224 65.5728 265.012 67.0608 265.864L66.3888 266.68C65.3808 266.08 64.6968 265.024 64.3248 263.752C63.9528 265.12 63.2448 266.284 62.2128 266.92L61.5408 266.104ZM65.8848 263.128V262.216H67.5168V258.712H68.5728V268.456H67.5168V263.128H65.8848ZM81.6319 263.512V264.424H77.3839V265.552H80.4559V268.864H73.2079V265.552H76.2799V264.424H72.0559V263.512H81.6319ZM72.9439 259.72V258.808H80.7439V259.72H79.2079V261.736H80.6959V262.624H72.9919V261.736H74.4799V259.72H72.9439ZM74.3119 267.952H79.3759V266.416H74.3119V267.952ZM75.5839 261.736H78.1039V259.72H75.5839V261.736ZM86.1007 264.472C86.1007 262.408 86.6527 260.668 87.7087 259.192H88.8607C88.0327 260.296 87.3967 262.516 87.3967 264.472C87.3967 266.452 88.0327 268.672 88.8607 269.776H87.7087C86.6527 268.288 86.1007 266.56 86.1007 264.472ZM95.1774 259.504V266.392H90.2334V259.504H95.1774ZM91.3374 265.504H94.0974V260.392H91.3374V265.504ZM97.2414 269.008V258.496H98.3694V269.008H97.2414ZM103.677 261.16C103.665 263.02 104.745 264.928 106.317 265.696L105.621 266.584C104.481 265.984 103.593 264.82 103.125 263.416C102.657 264.904 101.745 266.164 100.557 266.776L99.8605 265.888C101.469 265.108 102.561 263.092 102.573 261.16V259.36H103.677V261.16ZM107.109 268.984V258.496H108.213V262.672H109.893V263.632H108.213V268.984H107.109ZM119.976 263.608V264.52H110.4V263.608H112.704V262.216C111.888 261.88 111.432 261.352 111.432 260.656C111.432 259.408 112.872 258.676 115.176 258.688C117.48 258.676 118.932 259.408 118.92 260.656C118.932 261.352 118.464 261.88 117.648 262.216V263.608H119.976ZM111.528 267.088C111.54 265.9 112.896 265.228 115.176 265.24C117.444 265.228 118.8 265.9 118.8 267.088C118.8 268.312 117.444 268.972 115.176 268.984C112.896 268.972 111.54 268.312 111.528 267.088ZM112.584 260.656C112.572 261.352 113.544 261.748 115.176 261.76C116.808 261.748 117.792 261.352 117.792 260.656C117.792 259.948 116.808 259.54 115.176 259.552C113.544 259.54 112.572 259.948 112.584 260.656ZM112.68 267.088C112.656 267.76 113.58 268.132 115.176 268.12C116.772 268.132 117.684 267.76 117.696 267.088C117.684 266.452 116.772 266.092 115.176 266.08C113.58 266.092 112.656 266.452 112.68 267.088ZM113.832 263.608H116.544V262.504C116.136 262.564 115.668 262.6 115.176 262.6C114.684 262.6 114.24 262.564 113.832 262.504V263.608ZM123.555 264.496C123.555 266.56 123.003 268.3 121.947 269.776H120.795C121.623 268.672 122.259 266.452 122.259 264.496C122.259 262.516 121.623 260.296 120.795 259.192H121.947C123.003 260.68 123.555 262.408 123.555 264.496Z" fill="#5797FF"/>
<path d="M145.5 260C145.5 256.962 147.962 254.5 151 254.5H159C162.038 254.5 164.5 256.962 164.5 260V268C164.5 271.038 162.038 273.5 159 273.5H151C147.962 273.5 145.5 271.038 145.5 268V260Z" fill="white" stroke="#5797FF"/>
<path d="M177.032 261.16C177.02 263.02 178.1 264.928 179.672 265.696L178.976 266.584C177.836 265.984 176.948 264.82 176.48 263.416C176.012 264.904 175.1 266.164 173.912 266.776L173.216 265.888C174.824 265.108 175.916 263.092 175.928 261.16V259.36H177.032V261.16ZM180.464 268.984V258.496H181.568V262.672H183.248V263.632H181.568V268.984H180.464ZM193.331 263.608V264.52H183.755V263.608H186.059V262.216C185.243 261.88 184.787 261.352 184.787 260.656C184.787 259.408 186.227 258.676 188.531 258.688C190.835 258.676 192.287 259.408 192.275 260.656C192.287 261.352 191.819 261.88 191.003 262.216V263.608H193.331ZM184.883 267.088C184.895 265.9 186.251 265.228 188.531 265.24C190.799 265.228 192.155 265.9 192.155 267.088C192.155 268.312 190.799 268.972 188.531 268.984C186.251 268.972 184.895 268.312 184.883 267.088ZM185.939 260.656C185.927 261.352 186.899 261.748 188.531 261.76C190.163 261.748 191.147 261.352 191.147 260.656C191.147 259.948 190.163 259.54 188.531 259.552C186.899 259.54 185.927 259.948 185.939 260.656ZM186.035 267.088C186.011 267.76 186.935 268.132 188.531 268.12C190.127 268.132 191.039 267.76 191.051 267.088C191.039 266.452 190.127 266.092 188.531 266.08C186.935 266.092 186.011 266.452 186.035 267.088ZM187.187 263.608H189.899V262.504C189.491 262.564 189.023 262.6 188.531 262.6C188.039 262.6 187.595 262.564 187.187 262.504V263.608ZM202.382 258.496V260.968H203.894V261.88H202.382V264.424H201.278V258.496H202.382ZM194.078 263.68C196.598 263.02 198.086 261.7 198.278 260.056H194.558V259.168H199.478C199.478 261.844 197.654 263.74 194.534 264.568L194.078 263.68ZM195.662 268.864V264.88H202.382V268.864H195.662ZM196.766 267.976H201.278V265.792H196.766V267.976ZM211.195 260.368C211.183 261.688 212.131 262.984 213.715 263.512L213.139 264.376C211.963 263.98 211.099 263.14 210.643 262.108C210.187 263.26 209.263 264.184 208.003 264.616L207.427 263.752C209.059 263.188 210.055 261.796 210.067 260.368V260.08H207.787V259.168H213.451V260.08H211.195V260.368ZM209.059 266.2V265.312H216.187V268.984H215.083V266.2H209.059ZM213.115 262.096V261.16H215.083V258.496H216.187V264.784H215.083V262.096H213.115ZM222.574 258.712C224.89 258.712 226.33 259.468 226.318 260.728C226.33 261.976 224.89 262.72 222.574 262.72C220.282 262.72 218.83 261.976 218.83 260.728C218.83 259.468 220.282 258.712 222.574 258.712ZM217.798 264.424V263.536H227.374V264.424H217.798ZM218.95 268.864V265.36H226.198V268.864H218.95ZM219.982 260.728C219.97 261.436 220.966 261.844 222.574 261.856C224.194 261.844 225.19 261.436 225.19 260.728C225.19 260.008 224.194 259.588 222.574 259.6C220.966 259.588 219.97 260.008 219.982 260.728ZM220.054 267.952H225.118V266.248H220.054V267.952Z" fill="#94A3B8"/>
<path d="M248.5 260C248.5 256.962 250.962 254.5 254 254.5H262C265.038 254.5 267.5 256.962 267.5 260V268C267.5 271.038 265.038 273.5 262 273.5H254C250.962 273.5 248.5 271.038 248.5 268V260Z" fill="white" stroke="#5797FF"/>
<path d="M280.032 261.16C280.02 263.02 281.1 264.928 282.672 265.696L281.976 266.584C280.836 265.984 279.948 264.82 279.48 263.416C279.012 264.904 278.1 266.164 276.912 266.776L276.216 265.888C277.824 265.108 278.916 263.092 278.928 261.16V259.36H280.032V261.16ZM283.464 268.984V258.496H284.568V262.672H286.248V263.632H284.568V268.984H283.464ZM296.331 263.608V264.52H286.755V263.608H289.059V262.216C288.243 261.88 287.787 261.352 287.787 260.656C287.787 259.408 289.227 258.676 291.531 258.688C293.835 258.676 295.287 259.408 295.275 260.656C295.287 261.352 294.819 261.88 294.003 262.216V263.608H296.331ZM287.883 267.088C287.895 265.9 289.251 265.228 291.531 265.24C293.799 265.228 295.155 265.9 295.155 267.088C295.155 268.312 293.799 268.972 291.531 268.984C289.251 268.972 287.895 268.312 287.883 267.088ZM288.939 260.656C288.927 261.352 289.899 261.748 291.531 261.76C293.163 261.748 294.147 261.352 294.147 260.656C294.147 259.948 293.163 259.54 291.531 259.552C289.899 259.54 288.927 259.948 288.939 260.656ZM289.035 267.088C289.011 267.76 289.935 268.132 291.531 268.12C293.127 268.132 294.039 267.76 294.051 267.088C294.039 266.452 293.127 266.092 291.531 266.08C289.935 266.092 289.011 266.452 289.035 267.088ZM290.187 263.608H292.899V262.504C292.491 262.564 292.023 262.6 291.531 262.6C291.039 262.6 290.595 262.564 290.187 262.504V263.608ZM305.382 258.496V260.968H306.894V261.88H305.382V264.424H304.278V258.496H305.382ZM297.078 263.68C299.598 263.02 301.086 261.7 301.278 260.056H297.558V259.168H302.478C302.478 261.844 300.654 263.74 297.534 264.568L297.078 263.68ZM298.662 268.864V264.88H305.382V268.864H298.662ZM299.766 267.976H304.278V265.792H299.766V267.976ZM318.683 258.496V260.8H320.195V261.736H318.683V263.824H317.579V258.496H318.683ZM310.835 263.488V259.168H315.755V263.488H310.835ZM311.483 268.72V264.736H312.563V267.796C313.187 267.76 313.895 267.676 314.555 267.448L314.747 268.336C313.751 268.672 312.815 268.708 312.011 268.72H311.483ZM311.915 262.6H314.651V260.056H311.915V262.6ZM314.363 265.672V264.856H316.475V263.992H317.579V264.856H319.667V265.672H314.363ZM315.035 267.496C315.023 266.584 315.839 266.032 317.003 266.032C318.179 266.032 318.995 266.584 318.995 267.496C318.995 268.408 318.179 268.972 317.003 268.984C315.839 268.972 315.023 268.408 315.035 267.496ZM316.019 267.496C316.019 267.94 316.439 268.216 317.003 268.216C317.579 268.216 317.999 267.94 317.987 267.496C317.999 267.064 317.579 266.8 317.003 266.8C316.439 266.8 316.019 267.064 316.019 267.496ZM325.574 258.712C327.89 258.712 329.33 259.468 329.318 260.728C329.33 261.976 327.89 262.72 325.574 262.72C323.282 262.72 321.83 261.976 321.83 260.728C321.83 259.468 323.282 258.712 325.574 258.712ZM320.798 264.424V263.536H330.374V264.424H320.798ZM321.95 268.864V265.36H329.198V268.864H321.95ZM322.982 260.728C322.97 261.436 323.966 261.844 325.574 261.856C327.194 261.844 328.19 261.436 328.19 260.728C328.19 260.008 327.194 259.588 325.574 259.6C323.966 259.588 322.97 260.008 322.982 260.728ZM323.054 267.952H328.118V266.248H323.054V267.952Z" fill="#94A3B8"/>
<path d="M351.5 260C351.5 256.962 353.962 254.5 357 254.5H365C368.038 254.5 370.5 256.962 370.5 260V268C370.5 271.038 368.038 273.5 365 273.5H357C353.962 273.5 351.5 271.038 351.5 268V260Z" fill="white" stroke="#5797FF"/>
<path d="M387.88 259.504V260.536C387.88 261.832 387.88 263.284 387.472 265.432L386.368 265.312C386.764 263.284 386.764 261.796 386.776 260.536V260.416H380.392V259.504H387.88ZM379.384 267.568V266.656H383.032V262.96H384.136V266.656H388.96V267.568H379.384ZM393.427 260.44C393.427 261.76 394.351 262.984 395.947 263.488L395.419 264.352C394.219 263.98 393.343 263.188 392.887 262.18C392.431 263.332 391.507 264.244 390.235 264.688L389.683 263.8C391.315 263.26 392.299 261.892 392.323 260.44V260.152H389.995V259.24H395.683V260.152H393.427V260.44ZM391.099 267.016C391.099 265.768 392.431 265.048 394.627 265.048C396.787 265.048 398.107 265.768 398.107 267.016C398.107 268.252 396.787 268.984 394.627 268.984C392.431 268.984 391.099 268.252 391.099 267.016ZM392.203 267.016C392.203 267.712 393.103 268.096 394.627 268.096C396.127 268.096 397.015 267.712 397.027 267.016C397.015 266.32 396.127 265.936 394.627 265.936C393.103 265.936 392.203 266.32 392.203 267.016ZM396.907 264.808V258.496H398.011V261.088H399.523V262.024H398.011V264.808H396.907ZM406.68 259.12L403.944 269.272H402.816L405.552 259.12H406.68ZM416.158 259.576V260.488H415.078V265.384C415.594 265.348 416.098 265.3 416.59 265.24L416.638 266.032C414.454 266.404 411.982 266.44 410.134 266.464L410.014 265.528L411.334 265.516V260.488H410.254V259.576H416.158ZM412.414 265.504C412.93 265.492 413.47 265.468 413.998 265.444V260.488H412.414V265.504ZM417.214 268.984V258.496H418.318V262.624H419.998V263.56H418.318V268.984H417.214ZM429.001 267.88V268.768H421.729V265.744H422.833V267.88H429.001ZM420.505 264.976V264.064H424.729V262.384H425.833V264.064H430.105V264.976H420.505ZM421.105 262.168C423.097 261.868 424.717 260.596 424.729 259.192V258.784H425.857V259.192C425.845 260.632 427.465 261.88 429.481 262.168L429.049 263.056C427.381 262.756 425.941 261.904 425.281 260.692C424.621 261.904 423.181 262.768 421.537 263.056L421.105 262.168ZM437.43 260.176C437.43 261.556 438.39 262.828 439.974 263.344L439.374 264.232C438.222 263.824 437.358 262.996 436.89 261.964C436.446 263.14 435.558 264.064 434.334 264.52L433.734 263.632C435.366 263.044 436.314 261.64 436.326 260.08V259.048H437.43V260.176ZM435.15 267.016C435.15 265.792 436.494 265.084 438.678 265.072C440.826 265.084 442.158 265.792 442.158 267.016C442.158 268.264 440.826 268.984 438.678 268.984C436.494 268.984 435.15 268.264 435.15 267.016ZM436.254 267.016C436.254 267.724 437.154 268.096 438.678 268.096C440.178 268.096 441.066 267.724 441.078 267.016C441.066 266.356 440.178 265.96 438.678 265.96C437.154 265.96 436.254 266.356 436.254 267.016ZM440.958 264.832V258.496H442.062V261.136H443.574V262.072H442.062V264.832H440.958ZM453.753 263.512V264.424H449.505V265.552H452.577V268.864H445.329V265.552H448.401V264.424H444.177V263.512H453.753ZM445.065 259.72V258.808H452.865V259.72H451.329V261.736H452.817V262.624H445.113V261.736H446.601V259.72H445.065ZM446.433 267.952H451.497V266.416H446.433V267.952ZM447.705 261.736H450.225V259.72H447.705V261.736Z" fill="#94A3B8"/>
<rect x="407" y="581" width="205" height="48" rx="8" fill="#FF7C00"/>
<path d="M442.157 598.96C442.157 601.26 443.757 603.38 446.397 604.24L445.397 605.72C443.477 605.04 442.037 603.66 441.257 601.94C440.517 603.9 439.037 605.44 436.997 606.2L435.997 604.72C438.717 603.74 440.297 601.4 440.317 598.8V597.08H442.157V598.96ZM438.357 610.36C438.357 608.32 440.597 607.14 444.237 607.12C447.817 607.14 450.037 608.32 450.037 610.36C450.037 612.44 447.817 613.64 444.237 613.64C440.597 613.64 438.357 612.44 438.357 610.36ZM440.197 610.36C440.197 611.54 441.697 612.16 444.237 612.16C446.737 612.16 448.217 611.54 448.237 610.36C448.217 609.26 446.737 608.6 444.237 608.6C441.697 608.6 440.197 609.26 440.197 610.36ZM448.037 606.72V596.16H449.877V600.56H452.397V602.12H449.877V606.72H448.037ZM469.362 604.52V606.04H462.282V607.92H467.402V613.44H455.322V607.92H460.442V606.04H453.402V604.52H469.362ZM454.882 598.2V596.68H467.882V598.2H465.322V601.56H467.802V603.04H454.962V601.56H457.442V598.2H454.882ZM457.162 611.92H465.602V609.36H457.162V611.92ZM459.282 601.56H463.482V598.2H459.282V601.56ZM484.61 597.28C484.61 601.7 481.57 604.86 476.49 606.28L475.73 604.84C479.79 603.72 482.27 601.52 482.65 598.76H476.65V597.28H484.61ZM478.73 613.44V606.8H490.17V613.44H478.73ZM480.53 611.96H488.33V608.28H480.53V611.96ZM484.69 602.08V600.56H488.33V596.16H490.17V606.08H488.33V602.08H484.69ZM501.815 597.68C501.815 600.02 504.655 602.2 508.095 602.68L507.375 604.2C504.495 603.74 501.995 602.24 500.855 600.16C499.715 602.24 497.215 603.74 494.375 604.2L493.615 602.68C497.055 602.2 499.875 600.06 499.895 597.68V596.76H501.815V597.68ZM492.855 607.44V605.88H508.815V607.44H501.695V613.64H499.895V607.44H492.855ZM529.543 596.16V609H527.703V596.16H529.543ZM515.143 605.04C517.863 604.04 519.483 601.52 519.503 598.88V597.16H521.383V598.88C521.383 601.42 523.003 603.78 525.703 604.72L524.743 606.2C522.723 605.46 521.223 603.96 520.463 602.06C519.683 604.1 518.183 605.72 516.103 606.52L515.143 605.04ZM518.103 613.28V607.8H519.943V611.8H530.063V613.28H518.103ZM538.428 599.88C538.448 601.94 540.128 603.88 542.828 604.6L541.908 606.08C539.888 605.5 538.348 604.24 537.568 602.62C536.808 604.42 535.268 605.86 533.188 606.52L532.308 605.08C534.968 604.24 536.608 602.14 536.588 599.88V599.68H532.788V598.2H536.588V596.08H538.468V598.2H542.228V599.68H538.428V599.88ZM535.108 610.4C535.108 608.32 537.368 607.16 541.028 607.16C544.708 607.16 546.948 608.32 546.948 610.4C546.948 612.44 544.708 613.64 541.028 613.64C537.368 613.64 535.108 612.44 535.108 610.4ZM536.948 610.4C536.948 611.52 538.468 612.18 541.028 612.2C543.608 612.18 545.108 611.52 545.108 610.4C545.108 609.24 543.608 608.6 541.028 608.6C538.468 608.6 536.948 609.24 536.948 610.4ZM541.708 602.56V601.08H545.068V596.16H546.908V606.76H545.068V602.56H541.708ZM563.233 596.16V603.24H566.033V604.8H563.233V613.64H561.393V596.16H563.233ZM549.513 600.4V598.92H553.833V596.4H555.673V598.92H559.873V600.4H549.513ZM550.393 605.76C550.393 603.38 552.233 601.7 554.753 601.72C557.253 601.7 559.093 603.38 559.113 605.76C559.093 608.18 557.253 609.84 554.753 609.84C552.233 609.84 550.393 608.18 550.393 605.76ZM552.193 605.76C552.173 607.28 553.253 608.3 554.753 608.28C556.233 608.3 557.333 607.28 557.353 605.76C557.333 604.28 556.233 603.24 554.753 603.24C553.253 603.24 552.173 604.28 552.193 605.76ZM581.438 596.16V613.64H579.558V596.16H581.438ZM567.038 608.96C571.718 606.76 573.978 603.6 574.338 599.52H567.918V598.04H576.238C576.218 603.16 574.038 607.6 568.038 610.48L567.038 608.96Z" fill="white"/>
<rect x="20.5" y="338.5" width="590" height="155" rx="5.5" fill="#F8FAFC"/>
<rect x="20.5" y="338.5" width="590" height="155" rx="5.5" stroke="#E2E8F0"/>
<path d="M39.9385 352.943V353.781C39.9385 354.689 39.9385 355.672 39.6699 357.047H41.0879V357.745H37.1455V361.892H36.2969V357.745H32.3867V357.047H38.8105C39.1006 355.672 39.1006 354.667 39.1006 353.781V353.642H33.4824V352.943H39.9385ZM50.0791 352.32V361.87H49.2627V356.811H47.9307V361.387H47.125V352.524H47.9307V356.112H49.2627V352.32H50.0791ZM45.9004 353.438V359.303H42.248V353.438H45.9004ZM43.043 354.114V358.626H45.1055V354.114H43.043ZM54.7949 354.888C54.7842 356.628 55.9766 358.39 57.3838 359.023L56.8682 359.689C55.7832 359.158 54.8433 358.035 54.3867 356.671C53.9409 358.116 53.001 359.319 51.8838 359.883L51.3467 359.174C52.7646 358.519 53.9463 356.703 53.957 354.888V353.147H54.7949V354.888ZM59.2744 352.32V361.892H58.4258V352.32H59.2744ZM68.8027 352.32V361.87H67.9541V352.32H68.8027ZM65.9775 353.362C65.9668 356.112 64.6885 358.54 61.4873 360.076L61.0254 359.389C63.6089 358.164 64.9248 356.333 65.1182 354.05H61.4658V353.362H65.9775ZM71.9824 360.28L71.1445 363.202H70.3496L70.9404 360.28H71.9824ZM84.7334 359.894V360.603H75.9893V359.894H84.7334ZM77.8691 353.008V354.791H82.832V353.008H83.6592V357.981H77.0205V353.008H77.8691ZM77.8691 357.305H82.832V355.468H77.8691V357.305ZM93.6064 352.331V359.442H92.8008V355.897H91.458V359.163H90.6738V352.514H91.458V355.188H92.8008V352.331H93.6064ZM93.8965 360.957V361.666H87.3438V358.787H88.1816V360.957H93.8965ZM89.5352 353.147V355.876H86.7529V357.326C88.0098 357.321 88.9712 357.262 90.1045 357.036L90.2012 357.713C88.9658 357.949 87.9453 358.003 86.5596 358.003H85.9365V355.21H88.7295V353.835H85.915V353.147H89.5352ZM102.716 356.918V357.616H96.1201V353.212H102.619V353.91H96.958V356.918H102.716ZM103.747 359.861V360.57H95.0029V359.861H103.747ZM107.636 352.857L105.122 362.171H104.284L106.787 352.857H107.636ZM119.688 359.937V360.646H110.944V359.937H114.876V357.605H111.976V353.126H118.604V357.605H115.703V359.937H119.688ZM112.803 353.803V356.929H117.787V353.803H112.803ZM128.583 352.331V357.412H127.777V352.331H128.583ZM126.746 352.524V357.326H125.94V355.103H123.964V354.437H125.94V352.524H126.746ZM124.565 352.89V353.566H121.762V356.241C123.062 356.236 123.953 356.198 125.038 355.983L125.092 356.682C123.942 356.886 122.997 356.929 121.525 356.929H120.924V352.89H124.565ZM128.583 357.831V360.055H123.083V361.064H128.948V361.741H122.245V359.399H127.767V358.508H122.224V357.831H128.583ZM137.875 352.32V357.981H137.026V356.478H134.792V357.294H130.409V353.051H134.792V353.878H137.026V352.32H137.875ZM131.247 353.738V356.606H133.965V353.738H131.247ZM134.706 358.261C136.693 358.261 137.907 358.916 137.907 360.065C137.907 361.204 136.693 361.849 134.706 361.849C132.719 361.849 131.505 361.204 131.505 360.065C131.505 358.916 132.719 358.261 134.706 358.261ZM134.706 358.916C133.245 358.927 132.332 359.346 132.343 360.065C132.332 360.753 133.245 361.183 134.706 361.183C136.167 361.183 137.069 360.753 137.069 360.065C137.069 359.346 136.167 358.927 134.706 358.916ZM134.792 355.769H137.026V354.576H134.792V355.769ZM141.033 360.28L140.195 363.202H139.4L139.991 360.28H141.033ZM148.241 354.888C148.241 356.574 149.358 358.304 150.712 358.97L150.196 359.646C149.144 359.093 148.263 357.965 147.844 356.639C147.414 358.051 146.512 359.254 145.438 359.829L144.9 359.152C146.297 358.465 147.403 356.628 147.414 354.888V353.147H148.241V354.888ZM152.431 352.32V356.198H154.031V356.929H152.431V361.87H151.593V352.32H152.431ZM163.248 357.047V357.745H154.547V357.047H156.706V355.704C155.943 355.409 155.514 354.92 155.514 354.275C155.514 353.147 156.803 352.503 158.897 352.503C160.971 352.503 162.271 353.147 162.271 354.275C162.271 354.915 161.846 355.403 161.089 355.693V357.047H163.248ZM158.897 358.476C160.949 358.476 162.174 359.066 162.185 360.162C162.174 361.247 160.949 361.849 158.897 361.849C156.824 361.849 155.6 361.247 155.6 360.162C155.6 359.066 156.824 358.476 158.897 358.476ZM158.897 359.12C157.361 359.131 156.448 359.507 156.459 360.162C156.448 360.807 157.361 361.193 158.897 361.193C160.412 361.193 161.336 360.807 161.336 360.162C161.336 359.507 160.412 359.131 158.897 359.12ZM158.897 353.169C157.34 353.169 156.373 353.588 156.384 354.275C156.373 354.974 157.34 355.382 158.897 355.382C160.444 355.382 161.411 354.974 161.411 354.275C161.411 353.588 160.444 353.169 158.897 353.169ZM157.544 357.047H160.251V355.93C159.848 356 159.397 356.037 158.897 356.037C158.398 356.037 157.947 356 157.544 355.93V357.047ZM174.688 352.32V361.892H173.84V352.32H174.688ZM169.607 353.062C171.025 353.072 172.046 354.361 172.046 356.392C172.046 358.422 171.025 359.711 169.607 359.711C168.179 359.711 167.169 358.422 167.169 356.392C167.169 354.361 168.179 353.072 169.607 353.062ZM169.607 353.813C168.651 353.824 167.985 354.834 167.985 356.392C167.985 357.949 168.651 358.959 169.607 358.959C170.563 358.959 171.229 357.949 171.229 356.392C171.229 354.834 170.563 353.824 169.607 353.813ZM180.854 352.911V355.586H177.567V357.068C179.361 357.068 180.285 357.042 181.413 356.832L181.499 357.53C180.307 357.724 179.34 357.756 177.406 357.756H176.729V354.941H180.017V353.588H176.708V352.911H180.854ZM184.238 352.331V358.196H183.39V356.424H181.488V355.726H183.39V354.437H181.488V353.749H183.39V352.331H184.238ZM184.238 358.712V361.892H183.39V359.399H177.804V358.712H184.238ZM187.396 360.28L186.559 363.202H185.764L186.354 360.28H187.396ZM199.567 352.32V361.87H198.762V352.32H199.567ZM197.634 352.557V361.376H196.839V356.456H195.228V355.769H196.839V352.557H197.634ZM194.207 355.049C194.207 356.703 194.948 358.347 196.27 359.109L195.754 359.732C194.814 359.168 194.148 358.137 193.82 356.918C193.471 358.234 192.778 359.356 191.822 359.958L191.285 359.324C192.617 358.529 193.391 356.789 193.391 355.049V354.146H191.554V353.448H195.958V354.146H194.207V355.049ZM209.611 356.939V357.638H205.669V358.766H208.548V361.741H201.974V358.766H204.842V357.638H200.91V356.939H209.611ZM208.784 352.632V353.33H207.312V355.339H208.752V356.037H201.759V355.339H203.198V353.33H201.727V352.632H208.784ZM202.812 359.432V361.054H207.721V359.432H202.812ZM204.036 355.339H206.475V353.33H204.036V355.339ZM213.543 353.019C215.047 353.019 216.11 353.932 216.11 355.264C216.11 356.596 215.047 357.509 213.543 357.509C212.039 357.509 210.954 356.596 210.965 355.264C210.954 353.932 212.039 353.019 213.543 353.019ZM213.543 353.76C212.522 353.76 211.781 354.372 211.792 355.264C211.781 356.155 212.522 356.768 213.543 356.768C214.553 356.768 215.283 356.155 215.283 355.264C215.283 354.372 214.553 353.76 213.543 353.76ZM218.248 352.32V361.892H217.41V352.32H218.248ZM210.471 359.066C212.232 359.066 214.66 359.056 216.776 358.744L216.841 359.367C214.66 359.775 212.308 359.786 210.589 359.786L210.471 359.066ZM225.875 353.867C225.875 355.167 226.863 356.359 228.249 356.832L227.787 357.498C226.729 357.111 225.896 356.322 225.478 355.328C225.069 356.451 224.221 357.337 223.104 357.767L222.652 357.09C224.081 356.553 225.037 355.274 225.048 353.803V352.814H225.875V353.867ZM230.15 352.32V354.812H231.59V355.521H230.15V358.132H229.312V352.32H230.15ZM227.089 358.379C229.055 358.379 230.236 359.013 230.236 360.108C230.236 361.226 229.055 361.849 227.089 361.849C225.123 361.849 223.92 361.226 223.92 360.108C223.92 359.013 225.123 358.379 227.089 358.379ZM227.089 359.056C225.649 359.056 224.758 359.453 224.769 360.108C224.758 360.785 225.649 361.172 227.089 361.183C228.539 361.172 229.42 360.785 229.42 360.108C229.42 359.453 228.539 359.056 227.089 359.056ZM236.359 353.427V354.114H233.384V355.951H236.22V356.628H233.384V358.787C234.802 358.782 235.677 358.744 236.725 358.551L236.8 359.249C235.683 359.464 234.759 359.507 233.19 359.507H232.578V353.427H236.359ZM240.377 352.32V361.87H239.561V356.864H238.25V361.387H237.434V352.524H238.25V356.166H239.561V352.32H240.377ZM253.171 356.864V357.573H244.459V356.864H253.171ZM252.15 355.264V355.951H245.565V352.707H252.086V353.416H246.393V355.264H252.15ZM248.81 358.411C250.861 358.411 252.086 359.034 252.097 360.13C252.086 361.236 250.861 361.849 248.81 361.849C246.747 361.849 245.512 361.236 245.512 360.13C245.512 359.034 246.747 358.411 248.81 358.411ZM248.81 359.066C247.273 359.077 246.36 359.464 246.371 360.13C246.36 360.807 247.273 361.183 248.81 361.183C250.324 361.183 251.248 360.807 251.248 360.13C251.248 359.464 250.324 359.077 248.81 359.066ZM258.316 352.492C260.443 352.492 261.689 353.072 261.689 354.136C261.689 355.221 260.443 355.801 258.316 355.812C256.189 355.801 254.933 355.221 254.933 354.136C254.933 353.072 256.189 352.492 258.316 352.492ZM258.316 353.126C256.727 353.126 255.803 353.513 255.813 354.136C255.803 354.802 256.727 355.167 258.316 355.167C259.896 355.167 260.83 354.802 260.83 354.136C260.83 353.513 259.896 353.126 258.316 353.126ZM262.667 356.456V357.144H253.966V356.456H262.667ZM261.55 357.971V360.108H255.878V361.097H261.84V361.763H255.04V359.485H260.723V358.615H255.019V357.971H261.55ZM274.118 352.32V357.444H273.28V352.32H274.118ZM268.769 357.928V359.088H273.28V357.928H274.118V361.741H267.931V357.928H268.769ZM268.769 361.054H273.28V359.765H268.769V361.054ZM268.962 352.793C270.412 352.782 271.465 353.674 271.465 354.984C271.465 356.284 270.412 357.176 268.962 357.176C267.512 357.176 266.459 356.284 266.459 354.984C266.459 353.674 267.512 352.782 268.962 352.793ZM268.962 353.502C267.984 353.491 267.275 354.114 267.286 354.984C267.275 355.854 267.984 356.478 268.962 356.478C269.929 356.478 270.638 355.854 270.638 354.984C270.638 354.114 269.929 353.491 268.962 353.502ZM280.273 352.911V355.586H276.986V357.068C278.78 357.068 279.704 357.042 280.832 356.832L280.918 357.53C279.726 357.724 278.759 357.756 276.825 357.756H276.148V354.941H279.436V353.588H276.127V352.911H280.273ZM283.657 352.331V358.196H282.809V356.424H280.907V355.726H282.809V354.437H280.907V353.749H282.809V352.331H283.657ZM283.657 358.712V361.892H282.809V359.399H277.223V358.712H283.657ZM290.017 353.975V354.662H285.226V353.975H287.213V352.61H288.051V353.975H290.017ZM287.621 355.307C288.824 355.307 289.684 356.209 289.694 357.477C289.684 358.755 288.824 359.668 287.621 359.668C286.429 359.668 285.569 358.755 285.569 357.477C285.569 356.209 286.429 355.307 287.621 355.307ZM287.621 356.016C286.869 356.026 286.321 356.639 286.321 357.477C286.321 358.325 286.869 358.938 287.621 358.927C288.384 358.938 288.942 358.325 288.942 357.477C288.942 356.639 288.384 356.026 287.621 356.016ZM293.379 352.32V361.87H292.573V357.047H291.306V361.397H290.511V352.557H291.306V356.349H292.573V352.32H293.379ZM302.338 353.674C302.327 354.952 304.035 356.037 305.7 356.284L305.389 356.95C303.896 356.698 302.445 355.903 301.865 354.748C301.285 355.903 299.83 356.698 298.363 356.95L298.03 356.284C299.685 356.037 301.393 354.952 301.393 353.674V353.609H298.331V352.922H305.389V353.609H302.338V353.674ZM306.216 357.767V358.465H302.263V361.87H301.436V358.465H297.515V357.767H306.216ZM309.857 355.038C309.857 356.553 310.599 358.196 311.866 358.948L311.383 359.604C310.464 359.045 309.804 358.024 309.471 356.864C309.116 358.132 308.407 359.222 307.451 359.808L306.914 359.174C308.235 358.4 309.041 356.703 309.041 355.07V353.223H309.857V355.038ZM315.207 352.32V361.87H314.391V352.32H315.207ZM313.23 352.524V361.387H312.436V356.467H310.813V355.747H312.436V352.524H313.23ZM325.272 359.937V360.646H316.528V359.937H318.698V357.358C317.882 356.934 317.388 356.247 317.388 355.382C317.388 353.899 318.838 352.933 320.879 352.922C322.92 352.933 324.37 353.899 324.37 355.382C324.37 356.23 323.892 356.913 323.103 357.337V359.937H325.272ZM320.879 353.62C319.311 353.609 318.204 354.318 318.204 355.382C318.204 356.445 319.311 357.165 320.879 357.165C322.437 357.165 323.554 356.445 323.554 355.382C323.554 354.318 322.437 353.609 320.879 353.62ZM319.525 359.937H322.254V357.659C321.84 357.772 321.378 357.831 320.879 357.831C320.39 357.831 319.934 357.777 319.525 357.67V359.937ZM327.045 361.064C326.669 361.064 326.347 360.753 326.357 360.366C326.347 359.99 326.669 359.679 327.045 359.679C327.421 359.679 327.732 359.99 327.732 360.366C327.732 360.753 327.421 361.064 327.045 361.064Z" fill="#94A3B8"/>
<path d="M568.326 476.107C566.596 476.107 565.608 474.657 565.608 472.111C565.608 469.587 566.618 468.115 568.326 468.115C570.034 468.115 571.044 469.587 571.044 472.111C571.044 474.657 570.045 476.107 568.326 476.107ZM568.326 475.248C569.443 475.248 570.098 474.12 570.098 472.111C570.098 470.103 569.443 468.953 568.326 468.953C567.209 468.953 566.543 470.103 566.543 472.111C566.543 474.12 567.198 475.248 568.326 475.248ZM575.115 467.857L572.601 477.171H571.763L574.266 467.857H575.115ZM578.757 468.223V476H577.779V469.232H577.736L575.845 470.489V469.512L577.779 468.223H578.757ZM583.376 476.107C581.646 476.107 580.658 474.657 580.658 472.111C580.658 469.587 581.668 468.115 583.376 468.115C585.084 468.115 586.094 469.587 586.094 472.111C586.094 474.657 585.094 476.107 583.376 476.107ZM583.376 475.248C584.493 475.248 585.148 474.12 585.148 472.111C585.148 470.103 584.493 468.953 583.376 468.953C582.259 468.953 581.593 470.103 581.593 472.111C581.593 474.12 582.248 475.248 583.376 475.248ZM589.928 476.107C588.199 476.107 587.211 474.657 587.211 472.111C587.211 469.587 588.22 468.115 589.928 468.115C591.636 468.115 592.646 469.587 592.646 472.111C592.646 474.657 591.647 476.107 589.928 476.107ZM589.928 475.248C591.046 475.248 591.701 474.12 591.701 472.111C591.701 470.103 591.046 468.953 589.928 468.953C588.811 468.953 588.145 470.103 588.145 472.111C588.145 474.12 588.801 475.248 589.928 475.248ZM596.481 476.107C594.752 476.107 593.763 474.657 593.763 472.111C593.763 469.587 594.773 468.115 596.481 468.115C598.189 468.115 599.199 469.587 599.199 472.111C599.199 474.657 598.2 476.107 596.481 476.107ZM596.481 475.248C597.598 475.248 598.254 474.12 598.254 472.111C598.254 470.103 597.598 468.953 596.481 468.953C595.364 468.953 594.698 470.103 594.698 472.111C594.698 474.12 595.353 475.248 596.481 475.248Z" fill="#94A3B8"/>
</svg>
