<svg width="372" height="327" viewBox="0 0 372 327" fill="none" xmlns="http://www.w3.org/2000/svg">
<rect x="0.5" y="0.5" width="371" height="326" rx="11.5" fill="white"/>
<rect x="0.5" y="0.5" width="371" height="326" rx="11.5" stroke="#E2E8F0"/>
<path d="M29.8 27.72C29.78 33.2 28.46 37.78 21.8 41.12L20.44 39.24C23.42 37.76 25.18 36.1 26.18 34.12L20.92 34.64L20.64 32.48L26.94 32.1C27.12 31.36 27.24 30.56 27.3 29.72H21.56V27.72H29.8ZM32.04 43.76V26H34.56V32.84H37.08V34.88H34.56V43.76H32.04ZM45.0052 28V29.96H40.7252V32.76H44.3252V34.68H40.7252V37.88C42.6252 37.84 44.0252 37.74 45.6852 37.48L45.8852 39.48C43.8652 39.84 42.1652 39.88 39.5652 39.88H38.3652V28H45.0052ZM45.1252 34.52V32.52H47.1252V26.32H49.4452V43H47.1252V34.52H45.1252ZM50.8052 43.8V26H53.2052V43.8H50.8052ZM69.7303 27.56V29.24C69.7303 31.46 69.7303 33.96 69.0503 37.76L66.5303 37.48C67.1903 34.14 67.2303 31.66 67.2503 29.56H56.7703V27.56H69.7303ZM55.0903 41.64V39.6H60.8903V33.48H63.3703V39.6H71.3303V41.64H55.0903ZM87.2955 26V43.84H84.8155V26H87.2955ZM73.3355 39.68V32.4H79.2155V29.52H73.3355V27.52H81.7755V34.36H75.8955V37.64C78.6155 37.62 80.9155 37.48 83.5355 37.04L83.7355 39.04C80.8355 39.56 78.1955 39.68 74.9355 39.68H73.3355ZM110.51 35.12V37.08H103.83V39.96H101.35V37.08H94.27V35.12H110.51ZM96.15 43.48V38.56H98.63V41.48H108.71V43.48H96.15ZM96.35 33.88V26.6H98.79V28.44H105.95V26.6H108.43V33.88H96.35ZM98.79 31.92H105.95V30.28H98.79V31.92ZM127.795 36.48V38.4H124.075V43.8H121.555V38.4H117.835V43.8H115.355V38.4H111.555V36.48H127.795ZM113.435 28.56V26.56H125.955V31.72H115.995V33.16H126.355V35.16H113.475V29.92H123.395V28.56H113.435Z" fill="#334155"/>
<rect x="20.5" y="91.5" width="331" height="41" rx="5.5" fill="#F8FAFC"/>
<rect x="20.5" y="91.5" width="331" height="41" rx="5.5" stroke="#E2E8F0"/>
<path d="M40.904 111.488V112.376H33.584V107.432H40.808V108.344H34.688V111.488H40.904ZM32.384 115.616V114.68H42.008V115.616H32.384ZM52.3551 112.424V113.336H42.7551V112.424H47.0031V111.392H43.9791V108.704H50.0271V107.672H43.9551V106.808H51.1551V109.496H45.0831V110.528H51.3471V111.392H48.1071V112.424H52.3551ZM44.0031 116.936V113.984H45.1071V116.024H51.3711V116.936H44.0031Z" fill="#334155"/>
<path d="M329 109.5L334 114.5L339 109.5" stroke="#334155" stroke-width="2" stroke-linecap="round" stroke-linejoin="round"/>
<rect x="20.5" y="174.5" width="331" height="41" rx="5.5" fill="#F8FAFC"/>
<rect x="20.5" y="174.5" width="331" height="41" rx="5.5" stroke="#E2E8F0"/>
<path d="M41.9609 195.016V195.895H32.3633V195.016H41.9609ZM33.4531 197.699V196.809H40.7422V199.996H39.6055V197.699H33.4531ZM33.6172 194.125V189.766H40.7891V190.645H34.7422V191.5H40.5195V192.344H34.7422V193.27H40.8594V194.125H33.6172ZM48.1367 190.422C48.1309 191.816 49.8359 193.123 51.8984 193.398L51.4648 194.312C49.748 194.037 48.2422 193.146 47.5566 191.91C46.8711 193.146 45.3652 194.037 43.6602 194.312L43.2148 193.398C45.2715 193.123 46.9707 191.834 46.9766 190.422V189.848H48.1367V190.422ZM42.7578 196.258V195.344H52.332V196.258H48.0664V199.996H46.9766V196.258H42.7578ZM64.4141 189.93V193.527H61.3906V194.746H65.6328V195.648H56.0586V194.746H60.2891V193.527H57.2773V189.93H64.4141ZM57.125 197.523V196.645H64.4609V199.996H63.3359V197.523H57.125ZM58.3672 192.637H63.3125V190.809H58.3672V192.637ZM70.1914 191.359C70.1855 192.684 71.1348 193.979 72.7227 194.523L72.1484 195.391C70.9707 194.986 70.0977 194.143 69.6406 193.105C69.1836 194.26 68.2637 195.186 67.0156 195.625L66.4414 194.746C68.0527 194.195 69.0605 192.795 69.0547 191.371V191.078H66.7812V190.176H72.4414V191.078H70.1914V191.359ZM68.0703 197.207V196.305H75.1836V199.996H74.0703V197.207H68.0703ZM72.125 193.082V192.168H74.0703V189.496H75.1836V195.777H74.0703V193.082H72.125ZM88.2383 194.477V195.391H80.9258V190.434H88.1445V191.348H82.0273V194.477H88.2383ZM79.7305 198.613V197.688H89.3398V198.613H79.7305ZM99.6992 195.426V196.34H90.0898V195.426H94.3438V194.383H91.3203V191.699H97.3789V190.68H91.2969V189.801H98.4922V192.508H92.4219V193.527H98.7031V194.383H95.4453V195.426H99.6992ZM91.3438 199.938V196.984H92.457V199.035H98.7148V199.938H91.3438Z" fill="#334155"/>
<path d="M329 192.5L334 197.5L339 192.5" stroke="#334155" stroke-width="2" stroke-linecap="round" stroke-linejoin="round"/>
<rect x="20.5" y="257.5" width="331" height="41" rx="5.5" fill="#F8FAFC"/>
<rect x="20.5" y="257.5" width="331" height="41" rx="5.5" stroke="#E2E8F0"/>
<path d="M37.7188 273.117V274.043H33.957V275.191H37.5195V276.082H33.957V277.301C35.8848 277.295 37.0332 277.26 38.375 277.008L38.4922 277.898C37.0566 278.15 35.8203 278.191 33.6641 278.18H32.8438V273.117H37.7188ZM33.9336 282.867V279.176H40.6367V282.867H33.9336ZM35.0234 281.965H39.5352V280.055H35.0234V281.965ZM39.5234 278.66V272.496H40.6367V275.051H42.1602V275.977H40.6367V278.66H39.5234ZM46.4023 275.168C46.3906 277.025 47.4746 278.93 49.0391 279.691L48.3477 280.582C47.2051 279.984 46.3203 278.812 45.8574 277.412C45.3887 278.9 44.4688 280.16 43.2734 280.781L42.582 279.879C44.1934 279.105 45.2832 277.09 45.2891 275.168V273.375H46.4023V275.168ZM49.8242 282.996V272.496H50.9375V276.68H52.625V277.629H50.9375V282.996H49.8242ZM56.7383 273.117L54.0078 283.277H52.8945L55.625 273.117H56.7383ZM69.793 277.77V278.66H60.2188V277.77H69.793ZM60.7344 276.387C62.8262 276.223 64.2676 275.449 64.3848 274.406H61.1797V273.527H64.4492V272.484H65.5508V273.527H68.832V274.406H65.6152C65.7207 275.449 67.1562 276.223 69.2656 276.387L68.9141 277.242C67.1035 277.072 65.6445 276.463 65 275.479C64.3496 276.463 62.8848 277.072 61.0859 277.242L60.7344 276.387ZM61.2852 280.57V279.68H68.6211V282.996H67.4961V280.57H61.2852ZM80.375 274.066V274.992H78.8398V276.281H80.375V277.207H78.8398V278.848H77.7266V272.508H78.8398V274.066H80.375ZM71.0117 274.043V273.141H75.793V276.082H72.1367V277.359C73.959 277.359 75.248 277.289 76.7773 277.031L76.8945 277.934C75.2715 278.221 73.8828 278.285 71.8672 278.273H71.0234V275.227H74.7031V274.043H71.0117ZM71.9141 281.051C71.9141 279.832 73.2559 279.105 75.4414 279.105C77.5977 279.105 78.9336 279.832 78.9336 281.051C78.9336 282.27 77.5977 282.973 75.4414 282.973C73.2559 282.973 71.9141 282.27 71.9141 281.051ZM73.0039 281.051C72.998 281.736 73.9004 282.129 75.4414 282.117C76.959 282.129 77.8496 281.736 77.8438 281.051C77.8496 280.371 76.959 279.979 75.4414 279.984C73.9004 279.979 72.998 280.371 73.0039 281.051ZM90.5352 277.617V278.52H80.9609V277.617H83.2578V276.205C82.4434 275.877 81.9863 275.35 81.9922 274.652C81.9863 273.404 83.4336 272.678 85.7422 272.684C88.0449 272.678 89.4863 273.404 89.4922 274.652C89.4863 275.35 89.0293 275.877 88.2148 276.211V277.617H90.5352ZM82.0977 281.098C82.0977 279.896 83.457 279.234 85.7422 279.234C87.998 279.234 89.3574 279.896 89.3633 281.098C89.3574 282.311 87.998 282.973 85.7422 282.973C83.457 282.973 82.0977 282.311 82.0977 281.098ZM83.1406 274.652C83.1348 275.355 84.1074 275.748 85.7422 275.754C87.3652 275.748 88.3496 275.355 88.3438 274.652C88.3496 273.949 87.3652 273.545 85.7422 273.539C84.1074 273.545 83.1348 273.949 83.1406 274.652ZM83.2227 281.098C83.2168 281.754 84.1367 282.129 85.7422 282.117C87.3242 282.129 88.25 281.754 88.25 281.098C88.25 280.453 87.3242 280.09 85.7422 280.09C84.1367 280.09 83.2168 280.453 83.2227 281.098ZM84.3828 277.617H87.1133V276.498C86.7031 276.562 86.2402 276.598 85.7422 276.598C85.25 276.598 84.793 276.562 84.3828 276.504V277.617ZM102.77 277.477V278.391H95.457V273.434H102.676V274.348H96.5586V277.477H102.77ZM94.2617 281.613V280.688H103.871V281.613H94.2617ZM114.23 278.426V279.34H104.621V278.426H108.875V277.383H105.852V274.699H111.91V273.68H105.828V272.801H113.023V275.508H106.953V276.527H113.234V277.383H109.977V278.426H114.23ZM105.875 282.938V279.984H106.988V282.035H113.246V282.938H105.875Z" fill="#334155"/>
<path d="M329 275.5L334 280.5L339 275.5" stroke="#334155" stroke-width="2" stroke-linecap="round" stroke-linejoin="round"/>
<path d="M30.948 70.912V83.148H29.716V76.82H28.148V82.532H26.944V71.164H28.148V75.756H29.716V70.912H30.948ZM20.868 80.208V72.396H25.46V73.432H22.156V79.116C23.668 79.102 24.802 79.046 26.104 78.78L26.216 79.844C24.732 80.166 23.472 80.208 21.68 80.208H20.868ZM43.7476 77.324V78.36H38.8756V80.628H37.6156V78.36H32.5476V77.324H43.7476ZM33.9196 82.896V79.536H35.2076V81.86H42.5156V82.896H33.9196ZM34.0036 76.232V71.304H35.2916V72.788H40.9756V71.304H42.2636V76.232H34.0036ZM35.2916 75.196H40.9756V73.768H35.2916V75.196ZM55.8472 78.192V79.2H53.0192V83.148H51.7312V79.2H48.7632V83.148H47.4752V79.2H44.6472V78.192H55.8472ZM45.9632 72.424V71.36H54.5032V74.636H47.3072V75.98H54.7832V77.044H45.9912V73.656H53.1872V72.424H45.9632Z" fill="#94A3B8"/>
<path d="M31.62 159.596V160.632H26.664V161.822C28.918 161.934 30.248 162.69 30.248 163.964C30.248 165.364 28.666 166.148 26.02 166.148C23.36 166.148 21.778 165.364 21.764 163.964C21.778 162.69 23.108 161.934 25.376 161.822V160.632H20.448V159.596H31.62ZM21.036 157.916C23.234 157.692 24.97 156.684 25.166 155.508H21.484V154.472H30.612V155.508H26.902C27.07 156.698 28.806 157.692 31.06 157.916L30.584 158.952C28.456 158.7 26.706 157.804 26.034 156.502C25.362 157.804 23.612 158.7 21.484 158.952L21.036 157.916ZM23.108 163.964C23.08 164.72 24.158 165.154 26.02 165.14C27.882 165.154 28.946 164.72 28.96 163.964C28.946 163.222 27.882 162.802 26.02 162.788C24.158 162.802 23.08 163.222 23.108 163.964ZM43.7476 160.324V161.36H38.8756V163.628H37.6156V161.36H32.5476V160.324H43.7476ZM33.9196 165.896V162.536H35.2076V164.86H42.5156V165.896H33.9196ZM34.0036 159.232V154.304H35.2916V155.788H40.9756V154.304H42.2636V159.232H34.0036ZM35.2916 158.196H40.9756V156.768H35.2916V158.196ZM55.8472 161.192V162.2H53.0192V166.148H51.7312V162.2H48.7632V166.148H47.4752V162.2H44.6472V161.192H55.8472ZM45.9632 155.424V154.36H54.5032V157.636H47.3072V158.98H54.7832V160.044H45.9912V156.656H53.1872V155.424H45.9632Z" fill="#94A3B8"/>
<path d="M31.676 246.544V247.608H20.448V246.544H25.348V243.632H26.636V246.544H31.676ZM20.84 242.764C23.192 242.386 25.292 240.566 25.32 238.62V237.696H26.664V238.62C26.678 240.566 28.806 242.386 31.172 242.764L30.612 243.856C28.624 243.45 26.804 242.218 25.992 240.538C25.18 242.218 23.374 243.464 21.4 243.856L20.84 242.764ZM43.7476 243.324V244.36H38.8756V246.628H37.6156V244.36H32.5476V243.324H43.7476ZM33.9196 248.896V245.536H35.2076V247.86H42.5156V248.896H33.9196ZM34.0036 242.232V237.304H35.2916V238.788H40.9756V237.304H42.2636V242.232H34.0036ZM35.2916 241.196H40.9756V239.768H35.2916V241.196ZM55.8472 244.192V245.2H53.0192V249.148H51.7312V245.2H48.7632V249.148H47.4752V245.2H44.6472V244.192H55.8472ZM45.9632 238.424V237.36H54.5032V240.636H47.3072V241.98H54.7832V243.044H45.9912V239.656H53.1872V238.424H45.9632Z" fill="#94A3B8"/>
<path d="M145.282 31.3203V36.2832H144.434V31.3203H145.282ZM145.282 36.7451V39.0225H139.89V40.0752H145.647V40.7627H139.062V38.3887H144.444V37.4219H139.03V36.7451H145.282ZM142.983 31.9756V32.6523H142.017V35.0908C142.511 35.064 143 35.0156 143.456 34.9619L143.499 35.585C141.587 35.8643 139.342 35.9395 137.655 35.9395L137.548 35.2412L138.772 35.2305V32.6523H137.816V31.9756H142.983ZM139.589 35.209C140.115 35.1982 140.658 35.1821 141.2 35.1445V32.6523H139.589V35.209ZM151.685 32.2119C151.685 33.5547 153.446 34.7256 155.165 34.9619L154.821 35.6494C153.339 35.4023 151.873 34.5806 151.255 33.4043C150.643 34.5859 149.171 35.4023 147.688 35.6494L147.345 34.9619C149.063 34.7256 150.814 33.5762 150.814 32.2119V31.6641H151.685V32.2119ZM155.595 36.7021V37.4111H151.642V40.8701H150.814V37.4111H146.894V36.7021H155.595Z" fill="#FF7C00"/>
<path d="M29.8 27.72C29.78 33.2 28.46 37.78 21.8 41.12L20.44 39.24C23.42 37.76 25.18 36.1 26.18 34.12L20.92 34.64L20.64 32.48L26.94 32.1C27.12 31.36 27.24 30.56 27.3 29.72H21.56V27.72H29.8ZM32.04 43.76V26H34.56V32.84H37.08V34.88H34.56V43.76H32.04ZM45.0052 28V29.96H40.7252V32.76H44.3252V34.68H40.7252V37.88C42.6252 37.84 44.0252 37.74 45.6852 37.48L45.8852 39.48C43.8652 39.84 42.1652 39.88 39.5652 39.88H38.3652V28H45.0052ZM45.1252 34.52V32.52H47.1252V26.32H49.4452V43H47.1252V34.52H45.1252ZM50.8052 43.8V26H53.2052V43.8H50.8052ZM69.7303 27.56V29.24C69.7303 31.46 69.7303 33.96 69.0503 37.76L66.5303 37.48C67.1903 34.14 67.2303 31.66 67.2503 29.56H56.7703V27.56H69.7303ZM55.0903 41.64V39.6H60.8903V33.48H63.3703V39.6H71.3303V41.64H55.0903ZM87.2955 26V43.84H84.8155V26H87.2955ZM73.3355 39.68V32.4H79.2155V29.52H73.3355V27.52H81.7755V34.36H75.8955V37.64C78.6155 37.62 80.9155 37.48 83.5355 37.04L83.7355 39.04C80.8355 39.56 78.1955 39.68 74.9355 39.68H73.3355ZM110.51 35.12V37.08H103.83V39.96H101.35V37.08H94.27V35.12H110.51ZM96.15 43.48V38.56H98.63V41.48H108.71V43.48H96.15ZM96.35 33.88V26.6H98.79V28.44H105.95V26.6H108.43V33.88H96.35ZM98.79 31.92H105.95V30.28H98.79V31.92ZM127.795 36.48V38.4H124.075V43.8H121.555V38.4H117.835V43.8H115.355V38.4H111.555V36.48H127.795ZM113.435 28.56V26.56H125.955V31.72H115.995V33.16H126.355V35.16H113.475V29.92H123.395V28.56H113.435Z" fill="#334155"/>
</svg>
