<svg width="200" height="260" viewBox="0 0 200 260" fill="none" xmlns="http://www.w3.org/2000/svg">
<g filter="url(#filter0_d_841_13092)">
<rect x="26" y="2" width="200" height="260" rx="12" fill="white"/>
<rect x="26.5" y="2.5" width="200" height="260" rx="11.5" stroke="#E2E8F0"/>
<path d="M43.2891 36V24.6875H47.7266C50.2969 24.6875 51.7734 26.1328 51.7734 28.375C51.7734 29.9219 51.0625 31.0469 49.7734 31.6016L52.1797 36H49.5859L47.4219 31.9844H45.6328V36H43.2891ZM45.6328 30.0781H47.2891C48.6797 30.0781 49.3594 29.5078 49.3516 28.375C49.3594 27.2344 48.6797 26.6172 47.2891 26.6094H45.6328V30.0781ZM57.0547 36.1719C54.4531 36.1641 52.8594 34.4844 52.8672 31.7969C52.8594 29.1797 54.4766 27.4062 56.9609 27.4062C59.1875 27.4062 60.9453 28.8125 60.9453 31.7031V32.3594H55.1484C55.1484 33.6406 55.9062 34.4297 57.1016 34.4375C57.8906 34.4297 58.4531 34.0859 58.6797 33.5781H60.8828C60.5547 35.1484 59.1484 36.1641 57.0547 36.1719ZM55.1484 30.9062H58.7578C58.75 29.875 58.0391 29.1328 57.0078 29.1406C55.9453 29.1328 55.1953 29.9297 55.1484 30.9062ZM66.2109 36.1719C63.6094 36.1641 62.0469 34.3672 62.0547 31.7812C62.0469 29.1875 63.6406 27.4062 66.2109 27.4062C68.3984 27.4062 69.8828 28.6797 69.9766 30.625H67.8047C67.6641 29.7891 67.1172 29.2109 66.2422 29.2031C65.1328 29.2109 64.3984 30.1406 64.3984 31.75C64.3984 33.3906 65.1172 34.3281 66.2422 34.3281C67.0547 34.3281 67.6562 33.8203 67.8047 32.9219H69.9766C69.875 34.8438 68.4609 36.1641 66.2109 36.1719ZM75.2578 36.1719C72.6562 36.1641 71.0625 34.4844 71.0703 31.7969C71.0625 29.1797 72.6797 27.4062 75.1641 27.4062C77.3906 27.4062 79.1484 28.8125 79.1484 31.7031V32.3594H73.3516C73.3516 33.6406 74.1094 34.4297 75.3047 34.4375C76.0938 34.4297 76.6562 34.0859 76.8828 33.5781H79.0859C78.7578 35.1484 77.3516 36.1641 75.2578 36.1719ZM73.3516 30.9062H76.9609C76.9531 29.875 76.2422 29.1328 75.2109 29.1406C74.1484 29.1328 73.3984 29.9297 73.3516 30.9062ZM82.9141 31.0938V36H80.6016V27.5156H82.8047V29H82.8984C83.2812 28.0234 84.1875 27.4062 85.4453 27.4062C87.2188 27.4062 88.375 28.6172 88.3672 30.5938V36H86.0703V31C86.0625 29.9531 85.5 29.3281 84.5391 29.3281C83.5781 29.3281 82.9141 29.9766 82.9141 31.0938ZM94.6328 27.5156V29.25H93.0391V33.3906C93.0312 34.0703 93.3672 34.2344 93.8359 34.25C94.0703 34.25 94.4766 34.2266 94.7578 34.2031V36.0312C94.5078 36.0703 94.0938 36.1172 93.5234 36.1094C91.8516 36.1172 90.7109 35.3672 90.7266 33.7188V29.25H89.5547V27.5156H90.7266V25.4844H93.0391V27.5156H94.6328ZM98.5859 24.6875V36H96.2734V24.6875H98.5859ZM101.742 39.1875C101.289 39.1797 100.867 39.1719 100.57 39.1406V37.3438C100.867 37.3672 101.219 37.375 101.508 37.375C101.969 37.375 102.336 37.3281 102.617 36.5938L102.758 36.2344L99.7109 27.5156H102.133L103.914 33.7656H104.008L105.805 27.5156H108.258L104.945 36.9375C104.461 38.3047 103.531 39.1797 101.742 39.1875ZM120.117 24.6875H122.477V32.0312C122.477 34.5078 120.594 36.1641 117.789 36.1562C114.977 36.1641 113.117 34.5078 113.117 32.0312V24.6875H115.461V31.8438C115.469 33.1484 116.391 34.0859 117.789 34.0938C119.203 34.0859 120.125 33.1484 120.117 31.8438V24.6875ZM129.18 30.0312C129.078 29.4375 128.562 29.0547 127.789 29.0469C127.039 29.0547 126.469 29.4062 126.477 29.9219C126.469 30.3047 126.766 30.6016 127.57 30.7656L129.086 31.0781C130.734 31.4219 131.531 32.1562 131.539 33.375C131.531 35.0469 130.031 36.1641 127.773 36.1719C125.484 36.1641 124.141 35.1406 123.945 33.4844H126.273C126.383 34.1484 126.922 34.4922 127.773 34.5C128.617 34.4922 129.18 34.1562 129.18 33.6094C129.18 33.1719 128.82 32.8984 128.023 32.7344L126.617 32.4531C125 32.1328 124.172 31.3047 124.18 30.0469C124.172 28.4219 125.57 27.4062 127.758 27.4062C129.898 27.4062 131.227 28.4219 131.352 30.0312H129.18ZM136.805 36.1719C134.203 36.1641 132.609 34.4844 132.617 31.7969C132.609 29.1797 134.227 27.4062 136.711 27.4062C138.938 27.4062 140.695 28.8125 140.695 31.7031V32.3594H134.898C134.898 33.6406 135.656 34.4297 136.852 34.4375C137.641 34.4297 138.203 34.0859 138.43 33.5781H140.633C140.305 35.1484 138.898 36.1641 136.805 36.1719ZM134.898 30.9062H138.508C138.5 29.875 137.789 29.1328 136.758 29.1406C135.695 29.1328 134.945 29.9297 134.898 30.9062ZM145.273 36.1406C143.336 36.1406 141.82 34.6016 141.82 31.7656C141.82 28.8594 143.398 27.4062 145.273 27.4062C146.695 27.4062 147.375 28.25 147.68 28.9375H147.758V24.6875H150.07V36H147.789V34.6406H147.68C147.359 35.3438 146.656 36.1406 145.273 36.1406ZM144.195 31.75C144.188 33.25 144.82 34.2891 145.992 34.2969C147.148 34.2891 147.805 33.2812 147.805 31.75C147.805 30.2266 147.156 29.25 145.992 29.25C144.812 29.25 144.188 30.2734 144.195 31.75ZM161.805 27.9219C161.711 27.0234 161 26.5 159.852 26.5C158.664 26.5 158 27.0469 157.992 27.7969C157.984 28.6172 158.828 28.9844 159.805 29.2031L160.82 29.4531C162.758 29.8984 164.203 30.8828 164.211 32.7656C164.203 34.8359 162.594 36.1641 159.836 36.1562C157.102 36.1641 155.359 34.8984 155.289 32.4688H157.57C157.648 33.6094 158.555 34.1875 159.805 34.1875C161.039 34.1875 161.836 33.6094 161.836 32.7656C161.836 31.9922 161.133 31.6328 159.898 31.3281L158.664 31.0312C156.758 30.5625 155.586 29.6094 155.586 27.9531C155.578 25.8984 157.391 24.5312 159.867 24.5312C162.375 24.5312 164.023 25.9219 164.055 27.9219H161.805ZM170.164 27.5156V29.25H168.57V33.3906C168.562 34.0703 168.898 34.2344 169.367 34.25C169.602 34.25 170.008 34.2266 170.289 34.2031V36.0312C170.039 36.0703 169.625 36.1172 169.055 36.1094C167.383 36.1172 166.242 35.3672 166.258 33.7188V29.25H165.086V27.5156H166.258V25.4844H168.57V27.5156H170.164ZM171.211 33.625C171.219 31.7344 172.734 31.1172 174.367 31.0156C174.977 30.9766 176.117 30.9219 176.477 30.9062V30.2188C176.469 29.5078 175.984 29.1016 175.117 29.0938C174.328 29.1016 173.836 29.4531 173.711 30.0312H171.508C171.648 28.5625 172.93 27.4062 175.18 27.4062C177.031 27.4062 178.781 28.2344 178.773 30.2812V36H176.586V34.8281H176.523C176.109 35.6094 175.297 36.1641 174.039 36.1562C172.414 36.1641 171.219 35.3047 171.211 33.625ZM173.43 33.5625C173.43 34.2109 173.953 34.5547 174.695 34.5625C175.75 34.5547 176.484 33.8672 176.477 32.9688V32.3516C176.125 32.3672 175.133 32.4219 174.742 32.4531C173.938 32.5234 173.43 32.9062 173.43 33.5625ZM185.008 27.5156V29.25H183.414V33.3906C183.406 34.0703 183.742 34.2344 184.211 34.25C184.445 34.25 184.852 34.2266 185.133 34.2031V36.0312C184.883 36.0703 184.469 36.1172 183.898 36.1094C182.227 36.1172 181.086 35.3672 181.102 33.7188V29.25H179.93V27.5156H181.102V25.4844H183.414V27.5156H185.008ZM186.461 36V27.5156H188.773V36H186.461ZM186.352 25.2344C186.352 24.5781 186.922 24.0547 187.617 24.0469C188.305 24.0547 188.875 24.5781 188.867 25.2344C188.875 25.875 188.305 26.4062 187.617 26.4062C186.922 26.4062 186.352 25.875 186.352 25.2344ZM194.383 36.1719C191.82 36.1641 190.219 34.4062 190.227 31.7812C190.219 29.1641 191.82 27.4062 194.383 27.4062C196.953 27.4062 198.547 29.1641 198.555 31.7812C198.547 34.4062 196.953 36.1641 194.383 36.1719ZM192.57 31.7812C192.57 33.2656 193.188 34.3672 194.398 34.375C195.578 34.3672 196.203 33.2656 196.195 31.7812C196.203 30.2891 195.578 29.1719 194.398 29.1719C193.188 29.1719 192.57 30.2891 192.57 31.7812ZM202.32 31.0938V36H200.008V27.5156H202.211V29H202.305C202.688 28.0234 203.594 27.4062 204.852 27.4062C206.625 27.4062 207.781 28.6172 207.773 30.5938V36H205.477V31C205.469 29.9531 204.906 29.3281 203.945 29.3281C202.984 29.3281 202.32 29.9766 202.32 31.0938Z" fill="#334155"/>
<path d="M43.9922 50.5156V59H42.9375V50.5156H43.9922ZM46.7461 55.1797V59H45.7383V52.6367H46.7109V53.6328H46.793C47.0918 52.9824 47.6895 52.5547 48.6562 52.5547C49.9453 52.5547 50.8066 53.3398 50.8008 54.957V59H49.793V55.0273C49.793 54.043 49.2539 53.457 48.3516 53.457C47.4258 53.457 46.7461 54.0781 46.7461 55.1797ZM55.0195 59.1289C53.2148 59.1348 52.1133 57.7578 52.1133 55.8477C52.1133 53.9141 53.2676 52.5547 54.9961 52.5547C56.3496 52.5547 57.3691 53.3574 57.5273 54.5586H56.5195C56.373 53.9785 55.8691 53.4453 55.0195 53.4453C53.8828 53.4453 53.127 54.3828 53.1211 55.8125C53.127 57.2832 53.8652 58.2266 55.0195 58.2266C55.7695 58.2266 56.3438 57.8223 56.5195 57.125H57.5273C57.3691 58.2617 56.4316 59.1348 55.0195 59.1289ZM59.7773 55.1797V59H58.7695V50.5156H59.7773V53.6328H59.8594C60.1582 52.9766 60.7266 52.5547 61.7344 52.5547C63.0352 52.5547 63.9023 53.3223 63.9023 54.957V59H62.8945V55.0273C62.8945 54.0254 62.3438 53.457 61.4297 53.457C60.4805 53.457 59.7773 54.0781 59.7773 55.1797ZM68.1914 59.1289C66.3516 59.1348 65.2148 57.8223 65.2148 55.8711C65.2148 53.9141 66.3691 52.5547 68.0977 52.5547C69.4336 52.5547 70.8457 53.375 70.8398 55.7305V56.1523H66.2227C66.2754 57.5 67.0605 58.2383 68.1914 58.2383C68.9531 58.2383 69.4336 57.9043 69.668 57.5117H70.7461C70.4473 58.4785 69.5039 59.1348 68.1914 59.1289ZM66.2285 55.2969H69.8203C69.8145 54.2363 69.1465 53.4453 68.0977 53.4453C66.9961 53.4453 66.2988 54.3125 66.2285 55.2969ZM74.7539 59.1289C73.0195 59.1348 71.8477 57.8223 71.8477 55.8477C71.8477 53.8613 73.0195 52.5547 74.7539 52.5547C76.4824 52.5547 77.6426 53.8613 77.6367 55.8477C77.6426 57.8223 76.4824 59.1348 74.7539 59.1289ZM72.8555 55.8477C72.8613 57.1191 73.459 58.2383 74.7539 58.2383C76.0371 58.2383 76.6289 57.1191 76.6289 55.8477C76.6289 54.582 76.0371 53.4453 74.7539 53.4453C73.459 53.4453 72.8613 54.582 72.8555 55.8477ZM79.9688 55.1797V59H78.9609V52.6367H79.9336V53.6328H80.0156C80.3145 52.9824 80.9121 52.5547 81.8789 52.5547C83.168 52.5547 84.0293 53.3398 84.0234 54.957V59H83.0156V55.0273C83.0156 54.043 82.4766 53.457 81.5742 53.457C80.6484 53.457 79.9688 54.0781 79.9688 55.1797ZM93.4102 52.6484C93.3223 51.8164 92.5488 51.3359 91.5352 51.3359C90.4102 51.3359 89.6777 51.9219 89.6719 52.7305C89.6777 53.6211 90.668 53.9551 91.3125 54.1133L92.1562 54.3477C93.0645 54.582 94.5586 55.1035 94.5586 56.6914C94.5586 58.0742 93.4453 59.1465 91.4766 59.1523C89.6484 59.1465 88.5176 58.2031 88.418 56.7969H89.4961C89.584 57.7461 90.4688 58.1973 91.4766 58.1914C92.6484 58.1973 93.5273 57.5938 93.5273 56.668C93.5273 55.8418 92.7422 55.5254 91.8516 55.2734L90.8086 54.9922C89.4785 54.6055 88.6465 53.9258 88.6523 52.7773C88.6465 51.3418 89.9238 50.3984 91.5703 50.3984C93.2168 50.3984 94.4004 51.3594 94.4414 52.6484H93.4102ZM98.7188 52.6367V53.4805H97.3828V57.1719C97.377 57.9863 97.7871 58.1211 98.2148 58.1211C98.3965 58.1211 98.666 58.1035 98.8125 58.0977V59.0352C98.6543 59.0586 98.4082 59.082 98.1094 59.082C97.2598 59.082 96.3691 58.5547 96.3633 57.4297V53.4805H95.4023V52.6367H96.3633V51.1133H97.3828V52.6367H98.7188ZM99.7148 57.1953C99.7148 55.7363 101.004 55.4023 102.105 55.3203C102.516 55.291 103.541 55.2324 103.828 55.2266V54.7109C103.828 53.9023 103.348 53.4336 102.387 53.4336C101.584 53.4336 101.098 53.8027 100.957 54.2891H99.9023C100.031 53.2637 101.027 52.5547 102.434 52.5547C103.266 52.5547 104.83 52.8008 104.824 54.8047V59H103.828V58.1328H103.781C103.57 58.5605 102.99 59.1465 101.883 59.1523C100.676 59.1465 99.7148 58.4375 99.7148 57.1953ZM100.723 57.2422C100.729 57.916 101.285 58.2559 102.059 58.25C103.195 58.2559 103.828 57.4941 103.828 56.6914V56.0527C103.529 56.0703 102.527 56.1465 102.223 56.1641C101.309 56.2227 100.729 56.5449 100.723 57.2422ZM109.219 52.6367V53.4805H107.883V57.1719C107.877 57.9863 108.287 58.1211 108.715 58.1211C108.896 58.1211 109.166 58.1035 109.312 58.0977V59.0352C109.154 59.0586 108.908 59.082 108.609 59.082C107.76 59.082 106.869 58.5547 106.863 57.4297V53.4805H105.902V52.6367H106.863V51.1133H107.883V52.6367H109.219ZM110.52 59V52.6367H111.527V59H110.52ZM110.32 50.9141C110.314 50.5391 110.637 50.2402 111.023 50.2461C111.41 50.2402 111.732 50.5391 111.738 50.9141C111.732 51.2832 111.41 51.582 111.023 51.582C110.637 51.582 110.314 51.2832 110.32 50.9141ZM115.734 59.1289C114 59.1348 112.828 57.8223 112.828 55.8477C112.828 53.8613 114 52.5547 115.734 52.5547C117.463 52.5547 118.623 53.8613 118.617 55.8477C118.623 57.8223 117.463 59.1348 115.734 59.1289ZM113.836 55.8477C113.842 57.1191 114.439 58.2383 115.734 58.2383C117.018 58.2383 117.609 57.1191 117.609 55.8477C117.609 54.582 117.018 53.4453 115.734 53.4453C114.439 53.4453 113.842 54.582 113.836 55.8477ZM120.949 55.1797V59H119.941V52.6367H120.914V53.6328H120.996C121.295 52.9824 121.893 52.5547 122.859 52.5547C124.148 52.5547 125.01 53.3398 125.004 54.957V59H123.996V55.0273C123.996 54.043 123.457 53.457 122.555 53.457C121.629 53.457 120.949 54.0781 120.949 55.1797Z" fill="#64748B"/>
<path d="M42.7969 77L42.7852 76.2266L45.6797 73.1797C46.6816 72.1133 47.1621 71.5391 47.168 70.7539C47.1621 69.8809 46.4355 69.3184 45.4805 69.3125C44.4668 69.3184 43.834 69.957 43.8281 70.9062H42.832C42.8203 69.4062 43.9805 68.3984 45.5156 68.3984C47.0566 68.3984 48.1465 69.4355 48.1523 70.7539C48.1465 71.7031 47.707 72.4414 46.207 73.9883L44.2617 75.9922V76.0625H48.3047V77H42.7969ZM52.6172 77.1172C50.7363 77.1172 49.6465 75.5352 49.6523 72.7578C49.6465 70.0039 50.748 68.3984 52.6172 68.3984C54.4805 68.3984 55.582 70.0039 55.582 72.7578C55.582 75.5352 54.498 77.1172 52.6172 77.1172ZM50.6719 72.7578C50.6777 74.9551 51.3867 76.1797 52.6172 76.1797C53.8418 76.1797 54.5566 74.9551 54.5508 72.7578C54.5566 70.5605 53.8359 69.3184 52.6172 69.3125C51.3984 69.3184 50.6777 70.5605 50.6719 72.7578ZM56.9883 77L56.9766 76.2266L59.8711 73.1797C60.873 72.1133 61.3535 71.5391 61.3594 70.7539C61.3535 69.8809 60.627 69.3184 59.6719 69.3125C58.6582 69.3184 58.0254 69.957 58.0195 70.9062H57.0234C57.0117 69.4062 58.1719 68.3984 59.707 68.3984C61.248 68.3984 62.3379 69.4355 62.3438 70.7539C62.3379 71.7031 61.8984 72.4414 60.3984 73.9883L58.4531 75.9922V76.0625H62.4961V77H56.9883ZM66.9609 77.1172C65.2734 77.1172 64.0605 76.2148 64.0078 74.8672H65.0742C65.1328 75.6758 65.9355 76.1797 66.9492 76.1797C68.0684 76.1797 68.877 75.5762 68.8828 74.6914C68.877 73.7656 68.1387 73.1152 66.8203 73.1094H66.1289V72.1836H66.8203C67.8516 72.1836 68.5723 71.6035 68.5664 70.7305C68.5723 69.8809 67.9512 69.3184 66.9844 69.3125C66.0762 69.3184 65.25 69.8164 65.2031 70.6484H64.1836C64.2363 69.3008 65.4902 68.3984 66.9961 68.3984C68.6133 68.3984 69.5977 69.459 69.5859 70.6719C69.5977 71.6387 69.0352 72.3418 68.1445 72.5938V72.6523C69.252 72.8223 69.9199 73.6133 69.9141 74.6914C69.9199 76.0859 68.6543 77.1172 66.9609 77.1172ZM71.8945 77.0703C71.4844 77.0645 71.1328 76.7246 71.1445 76.3086C71.1328 75.8984 71.4844 75.5586 71.8945 75.5586C72.3105 75.5586 72.6504 75.8984 72.6445 76.3086C72.6504 76.7246 72.3105 77.0645 71.8945 77.0703ZM76.6875 77.1172C74.8066 77.1172 73.7168 75.5352 73.7227 72.7578C73.7168 70.0039 74.8184 68.3984 76.6875 68.3984C78.5508 68.3984 79.6523 70.0039 79.6523 72.7578C79.6523 75.5352 78.5684 77.1172 76.6875 77.1172ZM74.7422 72.7578C74.748 74.9551 75.457 76.1797 76.6875 76.1797C77.9121 76.1797 78.627 74.9551 78.6211 72.7578C78.627 70.5605 77.9062 69.3184 76.6875 69.3125C75.4688 69.3184 74.748 70.5605 74.7422 72.7578ZM80.8477 75.2656V74.3984L84.668 68.5156H85.9688V74.3398H87.1523V75.2656H85.9688V77H84.9609V75.2656H80.8477ZM81.9844 74.3398H84.9609V69.8516H84.8555L81.9844 74.2695V74.3398ZM88.8867 77.0703C88.4766 77.0645 88.125 76.7246 88.1367 76.3086C88.125 75.8984 88.4766 75.5586 88.8867 75.5586C89.3027 75.5586 89.6426 75.8984 89.6367 76.3086C89.6426 76.7246 89.3027 77.0645 88.8867 77.0703ZM93.1875 68.5156V77H92.1211V69.6172H92.0742L90.0117 70.9883V69.9219L92.1211 68.5156H93.1875ZM98.2148 77.1172C96.6855 77.1172 95.5254 76.1738 95.4609 74.8672H96.4805C96.5566 75.623 97.2949 76.1855 98.2148 76.1914C99.3164 76.1855 100.113 75.3828 100.113 74.3164C100.113 73.2148 99.2871 72.4004 98.1445 72.3945C97.4297 72.3828 96.873 72.6055 96.5625 73.1562H95.543L96.1406 68.5156H100.734V69.4531H97.0195L96.7031 71.9375H96.7852C97.166 71.6445 97.7344 71.4453 98.332 71.4453C99.9492 71.4453 101.139 72.6406 101.145 74.293C101.139 75.9336 99.9082 77.1172 98.2148 77.1172Z" fill="#64748B"/>
<path d="M43.7812 141L43.75 137.594L51.875 130.125C53.9844 128.109 55.125 126.859 55.125 125.062C55.125 123.047 53.6094 121.797 51.5312 121.812C49.4062 121.797 48.0156 123.141 48.0312 125.312H43.5625C43.5469 120.891 46.8281 118.062 51.5938 118.062C56.4375 118.062 59.6562 120.828 59.6562 124.75C59.6562 127.328 58.4062 129.438 53.75 133.656L50.3125 137V137.125H59.9688V141H43.7812ZM72.9025 118.375V141H68.1838V122.844H68.0588L62.8713 126.094V121.938L68.465 118.375H72.9025ZM83.2425 129.031C80.2581 129.047 77.8519 126.625 77.8363 123.625C77.8519 120.641 80.2581 118.219 83.2425 118.219C86.2425 118.219 88.6644 120.641 88.68 123.625C88.6644 126.625 86.2425 129.047 83.2425 129.031ZM80.93 123.625C80.9456 124.906 81.9769 125.953 83.2425 125.938C84.5394 125.953 85.5706 124.906 85.555 123.625C85.5706 122.344 84.5394 121.328 83.2425 121.312C81.9769 121.328 80.9456 122.344 80.93 123.625ZM106.614 126.25C106.239 123.75 104.317 122.234 101.676 122.219C98.1606 122.234 95.8325 124.922 95.8325 129.688C95.8325 134.562 98.1919 137.141 101.645 137.156C104.223 137.141 106.161 135.734 106.614 133.281L111.364 133.312C110.848 137.5 107.333 141.312 101.583 141.312C95.5356 141.312 91.0513 137.047 91.0513 129.688C91.0513 122.297 95.6138 118.062 101.583 118.062C106.801 118.062 110.739 121.047 111.364 126.25H106.614Z" fill="#334155"/>
<path d="M164 125H162.667C162.494 124.252 162.202 123.538 161.8 122.884L162.733 121.95C163.006 121.631 163.149 121.221 163.133 120.802C163.117 120.382 162.943 119.985 162.646 119.688C162.349 119.391 161.951 119.217 161.532 119.201C161.112 119.185 160.702 119.327 160.383 119.6L159.45 120.534C158.796 120.132 158.081 119.839 157.333 119.667V118.334C157.333 117.892 157.158 117.468 156.845 117.155C156.533 116.843 156.109 116.667 155.667 116.667C155.225 116.667 154.801 116.843 154.488 117.155C154.176 117.468 154 117.892 154 118.334V119.667C153.257 119.837 152.547 120.13 151.9 120.534L150.95 119.6C150.631 119.327 150.221 119.185 149.802 119.201C149.382 119.217 148.984 119.391 148.687 119.688C148.391 119.985 148.217 120.382 148.201 120.802C148.184 121.221 148.327 121.631 148.6 121.95L149.533 122.9C149.383 123.15 149.267 123.434 149.133 123.7C148.277 123.458 147.391 123.335 146.5 123.334C144.098 123.332 141.776 124.195 139.958 125.765C138.14 127.335 136.948 129.507 136.6 131.884C135.244 132.264 134.071 133.122 133.298 134.3C132.525 135.478 132.205 136.895 132.396 138.291C132.587 139.687 133.276 140.966 134.337 141.893C135.398 142.82 136.758 143.332 138.167 143.334H153.45C155.364 143.334 157.2 142.573 158.553 141.22C159.906 139.867 160.667 138.031 160.667 136.117C160.665 135.232 160.496 134.355 160.167 133.534L160.383 133.734C160.694 134.042 161.113 134.215 161.55 134.217C161.769 134.218 161.987 134.176 162.19 134.093C162.393 134.01 162.578 133.888 162.733 133.734C163.044 133.421 163.218 132.999 163.218 132.559C163.218 132.118 163.044 131.696 162.733 131.384L161.8 130.45C162.202 129.796 162.494 129.082 162.667 128.334H164C164.442 128.334 164.866 128.158 165.179 127.846C165.491 127.533 165.667 127.109 165.667 126.667C165.667 126.225 165.491 125.801 165.179 125.488C164.866 125.176 164.442 125 164 125ZM153.45 140H138.167C137.504 140 136.868 139.737 136.399 139.268C135.93 138.799 135.667 138.163 135.667 137.5C135.667 136.837 135.93 136.201 136.399 135.733C136.868 135.264 137.504 135 138.167 135C138.609 135 139.033 134.825 139.345 134.512C139.658 134.2 139.833 133.776 139.833 133.334C139.841 131.76 140.404 130.239 141.425 129.041C142.445 127.843 143.857 127.045 145.41 126.787C146.962 126.53 148.556 126.83 149.908 127.634C151.261 128.439 152.285 129.696 152.8 131.184C152.895 131.47 153.067 131.725 153.296 131.922C153.525 132.119 153.803 132.249 154.1 132.3C155.046 132.477 155.893 132.999 156.476 133.765C157.059 134.53 157.337 135.485 157.256 136.444C157.175 137.403 156.741 138.298 156.038 138.955C155.334 139.612 154.412 139.985 153.45 140ZM158.45 129.417C158.156 129.693 157.818 129.919 157.45 130.084C156.896 129.723 156.296 129.437 155.667 129.234C154.901 127.562 153.697 126.128 152.183 125.084C152.366 124.656 152.625 124.266 152.95 123.934C153.696 123.243 154.675 122.859 155.692 122.859C156.708 122.859 157.688 123.243 158.433 123.934C159.148 124.671 159.548 125.657 159.548 126.684C159.548 127.71 159.148 128.697 158.433 129.434L158.45 129.417Z" fill="#5797FF"/>
<rect x="42.5" y="162.5" width="167" height="39" rx="7.5" fill="#F8FAFC" stroke="#F1F5F9"/>
<path d="M79.1309 180.929V181.756H75.2422V182.594C77.0146 182.685 78.0566 183.26 78.0674 184.237C78.0566 185.312 76.8159 185.897 74.7373 185.892C72.6426 185.897 71.4019 185.312 71.4072 184.237C71.4019 183.26 72.4438 182.685 74.2324 182.594V181.756H70.3545V180.929H79.1309ZM71.1602 177.47V176.632H78.3037V177.47H76.9072V179.307H78.2607V180.134H71.2031V179.307H72.5674V177.47H71.1602ZM72.4277 184.237C72.4277 184.817 73.2656 185.129 74.7373 185.118C76.1875 185.129 77.0254 184.817 77.0254 184.237C77.0254 183.673 76.1875 183.356 74.7373 183.356C73.2656 183.356 72.4277 183.673 72.4277 184.237ZM73.5771 179.307H75.8867V177.47H73.5771V179.307ZM88.7881 177.878V178.716H87.4238V179.93H88.7881V180.768H87.4238V182.465H86.4033V176.288H87.4238V177.878H88.7881ZM79.8721 178.125V177.319H82.2354V176.213H83.2559V177.319H85.6084V178.125H79.8721ZM80.3984 180.284C80.3931 179.248 81.3384 178.571 82.7402 178.565C84.126 178.571 85.0713 179.248 85.0713 180.284C85.0713 181.315 84.126 181.987 82.7402 181.981C81.3384 181.987 80.3931 181.315 80.3984 180.284ZM81.1611 184.227C81.1504 183.163 82.3643 182.54 84.3516 182.54C86.312 182.54 87.5312 183.163 87.5312 184.227C87.5312 185.274 86.312 185.897 84.3516 185.892C82.3643 185.897 81.1504 185.274 81.1611 184.227ZM81.3867 180.284C81.376 180.854 81.9238 181.208 82.7402 181.208C83.5566 181.208 84.1045 180.854 84.1152 180.284C84.1045 179.699 83.5566 179.328 82.7402 179.328C81.9238 179.328 81.376 179.699 81.3867 180.284ZM82.1709 184.227C82.1655 184.791 82.9658 185.118 84.3516 185.118C85.7158 185.118 86.5161 184.791 86.5215 184.227C86.5161 183.641 85.7158 183.33 84.3516 183.324C82.9658 183.33 82.1655 183.641 82.1709 184.227ZM92.6768 176.857L90.1738 186.171H89.1533L91.6562 176.857H92.6768ZM101.958 180.929V181.756H98.0693V182.594C99.8418 182.685 100.884 183.26 100.895 184.237C100.884 185.312 99.6431 185.897 97.5645 185.892C95.4697 185.897 94.229 185.312 94.2344 184.237C94.229 183.26 95.271 182.685 97.0596 182.594V181.756H93.1816V180.929H101.958ZM93.9873 177.47V176.632H101.131V177.47H99.7344V179.307H101.088V180.134H94.0303V179.307H95.3945V177.47H93.9873ZM95.2549 184.237C95.2549 184.817 96.0928 185.129 97.5645 185.118C99.0146 185.129 99.8525 184.817 99.8525 184.237C99.8525 183.673 99.0146 183.356 97.5645 183.356C96.0928 183.356 95.2549 183.673 95.2549 184.237ZM96.4043 179.307H98.7139V177.47H96.4043V179.307ZM111.486 181.068V181.906H102.688V181.068H106.566V179.661H107.576V181.068H111.486ZM103.193 179.382C105.036 179.146 106.55 178.061 106.556 176.847V176.438H107.587V176.847C107.582 178.077 109.091 179.146 110.949 179.382L110.552 180.188C109.026 179.94 107.678 179.199 107.066 178.136C106.454 179.199 105.105 179.94 103.569 180.188L103.193 179.382ZM103.666 183.561V182.755H110.391V185.913H109.359V183.561H103.666Z" fill="#64748B"/>
<path d="M139.066 181.453V182.625H129.316V181.453H133.465V180.539H130.5V176.883H137.895V178.043H131.988V179.367H137.953V180.539H134.93V181.453H139.066ZM130.43 185.133C130.43 183.867 131.836 183.164 134.168 183.164C136.482 183.164 137.871 183.867 137.883 185.133C137.871 186.381 136.482 187.09 134.168 187.09C131.836 187.09 130.43 186.381 130.43 185.133ZM131.953 185.133C131.947 185.689 132.691 185.953 134.168 185.953C135.615 185.953 136.377 185.689 136.383 185.133C136.377 184.582 135.615 184.301 134.168 184.301C132.691 184.301 131.947 184.582 131.953 185.133ZM149.414 181.465V182.648H145.289V183.363C147.158 183.492 148.254 184.137 148.254 185.215C148.254 186.416 146.859 187.084 144.539 187.078C142.201 187.084 140.812 186.416 140.812 185.215C140.812 184.137 141.914 183.486 143.801 183.363V182.648H139.688V181.465H149.414ZM140.543 177.961V176.766H148.547V177.961H147.152V179.59H148.477V180.785H140.613V179.59H141.926V177.961H140.543ZM142.312 185.215C142.307 185.73 143.062 185.977 144.539 185.977C145.986 185.977 146.736 185.73 146.742 185.215C146.736 184.705 145.986 184.459 144.539 184.453C143.062 184.459 142.307 184.705 142.312 185.215ZM143.426 179.59H145.652V177.961H143.426V179.59Z" fill="#334155"/>
<path d="M158.668 186L158.656 184.723L161.703 181.922C162.494 181.166 162.922 180.697 162.922 180.023C162.922 179.268 162.354 178.799 161.574 178.805C160.777 178.799 160.256 179.303 160.262 180.117H158.586C158.58 178.459 159.811 177.398 161.598 177.398C163.414 177.398 164.621 178.436 164.621 179.906C164.621 180.873 164.152 181.664 162.406 183.246L161.117 184.5V184.547H164.738V186H158.668ZM167.023 186.105C166.473 186.105 166.027 185.666 166.039 185.121C166.027 184.582 166.473 184.143 167.023 184.148C167.545 184.143 167.996 184.582 167.996 185.121C167.996 185.666 167.545 186.105 167.023 186.105ZM172.32 177.398C174.078 177.404 175.742 178.453 175.742 181.535C175.748 184.418 174.383 186.117 172.25 186.117C170.545 186.117 169.373 185.045 169.203 183.609H170.938C171.084 184.236 171.57 184.605 172.25 184.605C173.404 184.605 174.014 183.568 174.02 181.875H173.949C173.551 182.625 172.713 183.07 171.77 183.07C170.246 183.07 169.121 181.922 169.109 180.34C169.109 178.635 170.404 177.393 172.32 177.398ZM170.832 180.293C170.832 181.131 171.447 181.781 172.32 181.781C173.182 181.781 173.844 181.096 173.844 180.281C173.832 179.473 173.199 178.787 172.332 178.781C171.465 178.787 170.82 179.449 170.832 180.293ZM176.949 186V179.637H178.602V180.75H178.672C178.941 180.006 179.586 179.555 180.441 179.555C181.314 179.555 181.965 180.018 182.176 180.75H182.234C182.498 180.029 183.225 179.555 184.156 179.555C185.334 179.555 186.16 180.334 186.16 181.723V186H184.426V182.062C184.432 181.336 183.998 180.984 183.43 180.984C182.779 180.984 182.393 181.436 182.398 182.109V186H180.711V182.016C180.717 181.389 180.318 180.984 179.727 180.984C179.135 180.984 178.678 181.459 178.684 182.18V186H176.949ZM191.164 177.117L188.422 187.277H186.934L189.664 177.117H191.164ZM195.582 181.523C195.506 181.078 195.119 180.791 194.539 180.785C193.977 180.791 193.549 181.055 193.555 181.441C193.549 181.729 193.771 181.951 194.375 182.074L195.512 182.309C196.748 182.566 197.346 183.117 197.352 184.031C197.346 185.285 196.221 186.123 194.527 186.129C192.811 186.123 191.803 185.355 191.656 184.113H193.402C193.484 184.611 193.889 184.869 194.527 184.875C195.16 184.869 195.582 184.617 195.582 184.207C195.582 183.879 195.312 183.674 194.715 183.551L193.66 183.34C192.447 183.1 191.826 182.479 191.832 181.535C191.826 180.316 192.875 179.555 194.516 179.555C196.121 179.555 197.117 180.316 197.211 181.523H195.582Z" fill="#334155"/>
<path d="M56.3935 177.06C56.5484 176.905 56.7393 176.789 56.9494 176.725C57.1595 176.661 57.3822 176.65 57.5977 176.692C57.8132 176.735 58.0148 176.83 58.1847 176.969C58.3545 177.109 58.4873 177.288 58.5712 177.491C58.6552 177.694 58.6877 177.914 58.6658 178.133C58.6439 178.352 58.5684 178.561 58.4459 178.744C58.3235 178.926 58.1578 179.075 57.9637 179.178C57.7697 179.281 57.5532 179.335 57.3335 179.334H51.3335M58.3935 186.94C58.5484 187.096 58.7393 187.211 58.9494 187.275C59.1595 187.34 59.3822 187.351 59.5977 187.308C59.8132 187.266 60.0148 187.171 60.1847 187.031C60.3545 186.892 60.4873 186.713 60.5712 186.51C60.6552 186.307 60.6877 186.086 60.6658 185.868C60.6439 185.649 60.5684 185.439 60.4459 185.257C60.3235 185.075 60.1578 184.925 59.9637 184.822C59.7697 184.719 59.5532 184.666 59.3335 184.667H51.3335M61.8202 179.154C62.0141 178.96 62.2526 178.818 62.5148 178.738C62.7769 178.659 63.0546 178.646 63.3232 178.699C63.5917 178.753 63.843 178.872 64.0547 179.045C64.2663 179.219 64.4319 179.442 64.5368 179.695C64.6417 179.948 64.6826 180.223 64.6559 180.496C64.6293 180.769 64.5358 181.03 64.3839 181.258C64.232 181.486 64.0263 181.673 63.7849 181.802C63.5436 181.932 63.274 182 63.0002 182H51.3335" stroke="#334155" stroke-width="2" stroke-linecap="round" stroke-linejoin="round"/>
<rect x="42.5" y="206.5" width="167" height="39" rx="7.5" fill="#F8FAFC" stroke="#F1F5F9"/>
<path d="M74.6943 226.336C76.7783 226.336 78.0942 226.997 78.0996 228.119C78.0942 229.236 76.7783 229.897 74.6943 229.892C72.6318 229.897 71.3105 229.236 71.3105 228.119C71.3105 226.997 72.6318 226.336 74.6943 226.336ZM70.3652 225.541V224.714H73.8779V222.909H74.877V224.714H79.1201V225.541H70.3652ZM71.3857 221.577V220.761H78.0244V221.566C78.0298 222.334 78.0298 223.129 77.7559 224.123L76.7568 224.016C77.0146 223.033 77.0146 222.324 77.0146 221.577H71.3857ZM72.3311 228.119C72.3203 228.742 73.2388 229.102 74.6943 229.107C76.166 229.102 77.0791 228.742 77.0898 228.119C77.0791 227.485 76.166 227.115 74.6943 227.109C73.2388 227.115 72.3203 227.485 72.3311 228.119ZM87.8643 220.288V229.913H86.833V220.288H87.8643ZM79.958 227.335C82.5146 226.116 83.7661 224.381 83.9648 222.136H80.4199V221.319H84.9961C84.9961 224.139 83.7983 226.578 80.4951 228.162L79.958 227.335ZM97.3389 220.288V225.262H96.3291V220.288H97.3389ZM89.4756 224.499C90.9688 224.037 91.8979 222.877 91.9033 221.631H89.7441V220.804H95.0508V221.631H92.9346C92.9346 222.807 93.853 223.892 95.3516 224.316L94.8574 225.101C93.7188 224.762 92.8701 224.037 92.4351 223.113C92.0107 224.134 91.1299 224.934 89.9482 225.305L89.4756 224.499ZM91.0225 226.486V225.702H97.3496V228.087H92.043V229.021H97.6719V229.816H91.0547V227.346H96.3398V226.486H91.0225Z" fill="#64748B"/>
<mask id="path-15-inside-1_841_13092" fill="white">
<path d="M64.6134 224.734C63.2667 221.607 60.7334 219.667 58 219.667C55.2667 219.667 52.7334 221.607 51.3867 224.734C51.35 224.818 51.3311 224.909 51.3311 225C51.3311 225.092 51.35 225.183 51.3867 225.267C52.7334 228.394 55.2667 230.334 58 230.334C60.7334 230.334 63.2667 228.394 64.6134 225.267C64.6501 225.183 64.669 225.092 64.669 225C64.669 224.909 64.6501 224.818 64.6134 224.734ZM58 229C55.8867 229 53.8867 227.474 52.7334 225C53.8867 222.527 55.8867 221 58 221C60.1134 221 62.1134 222.527 63.2667 225C62.1134 227.474 60.1134 229 58 229ZM58 222.334C57.4726 222.334 56.9571 222.49 56.5185 222.783C56.08 223.076 55.7382 223.493 55.5364 223.98C55.3345 224.467 55.2817 225.003 55.3846 225.521C55.4875 226.038 55.7415 226.513 56.1144 226.886C56.4874 227.259 56.9625 227.513 57.4798 227.616C57.9971 227.719 58.5333 227.666 59.0205 227.464C59.5078 227.262 59.9243 226.92 60.2173 226.482C60.5103 226.043 60.6667 225.528 60.6667 225C60.6667 224.293 60.3858 223.615 59.8857 223.115C59.3856 222.615 58.7073 222.334 58 222.334ZM58 226.334C57.7363 226.334 57.4785 226.255 57.2593 226.109C57.04 225.962 56.8691 225.754 56.7682 225.511C56.6673 225.267 56.6409 224.999 56.6923 224.74C56.7438 224.482 56.8708 224.244 57.0572 224.058C57.2437 223.871 57.4813 223.744 57.7399 223.693C57.9986 223.641 58.2667 223.668 58.5103 223.768C58.7539 223.869 58.9622 224.04 59.1087 224.26C59.2552 224.479 59.3334 224.737 59.3334 225C59.3334 225.354 59.1929 225.693 58.9429 225.943C58.6928 226.193 58.3537 226.334 58 226.334Z"/>
</mask>
<path d="M51.3867 224.734L53.2198 225.534L53.2236 225.525L51.3867 224.734ZM51.3311 225H49.3311H51.3311ZM51.3867 225.267L53.2236 224.476L53.2197 224.467L51.3867 225.267ZM64.6134 225.267L62.7803 224.467L62.7765 224.476L64.6134 225.267ZM52.7334 225L50.9208 224.155L50.5266 225L50.9208 225.846L52.7334 225ZM63.2667 225L65.0793 225.846L65.4735 225L65.0793 224.155L63.2667 225ZM60.6667 225H62.6667H60.6667ZM66.4502 223.943C64.8829 220.304 61.7482 217.667 58 217.667V221.667C59.7186 221.667 61.6505 222.91 62.7765 225.525L66.4502 223.943ZM58 217.667C54.2519 217.667 51.1172 220.304 49.5498 223.943L53.2236 225.525C54.3496 222.91 56.2815 221.667 58 221.667V217.667ZM49.5537 223.934C49.4068 224.27 49.3311 224.633 49.3311 225H53.3311C53.3311 225.184 53.2932 225.365 53.2197 225.534L49.5537 223.934ZM49.3311 225C49.3311 225.367 49.4068 225.731 49.5537 226.067L53.2197 224.467C53.2932 224.635 53.3311 224.817 53.3311 225H49.3311ZM49.5498 226.058C51.1172 229.697 54.2519 232.334 58 232.334V228.334C56.2815 228.334 54.3496 227.09 53.2236 224.476L49.5498 226.058ZM58 232.334C61.7482 232.334 64.8829 229.697 66.4502 226.058L62.7765 224.476C61.6505 227.09 59.7186 228.334 58 228.334V232.334ZM66.4464 226.067C66.5932 225.731 66.669 225.367 66.669 225H62.669C62.669 224.817 62.7069 224.635 62.7803 224.467L66.4464 226.067ZM66.669 225C66.669 224.633 66.5932 224.27 66.4464 223.934L62.7803 225.534C62.7069 225.365 62.669 225.184 62.669 225H66.669ZM58 227C56.909 227 55.4888 226.177 54.546 224.155L50.9208 225.846C52.2846 228.77 54.8644 231 58 231V227ZM54.546 225.846C55.4888 223.824 56.909 223 58 223V219C54.8644 219 52.2846 221.23 50.9208 224.155L54.546 225.846ZM58 223C59.0911 223 60.5113 223.824 61.4541 225.846L65.0793 224.155C63.7155 221.23 61.1357 219 58 219V223ZM61.4541 224.155C60.5113 226.177 59.0911 227 58 227V231C61.1357 231 63.7155 228.77 65.0793 225.846L61.4541 224.155ZM58 220.334C57.0771 220.334 56.1748 220.607 55.4074 221.12L57.6297 224.446C57.7393 224.373 57.8682 224.334 58 224.334V220.334ZM55.4074 221.12C54.64 221.633 54.0418 222.362 53.6886 223.214L57.3841 224.745C57.4346 224.623 57.52 224.519 57.6297 224.446L55.4074 221.12ZM53.6886 223.214C53.3354 224.067 53.243 225.006 53.423 225.911L57.3462 225.13C57.3205 225.001 57.3337 224.867 57.3841 224.745L53.6886 223.214ZM53.423 225.911C53.6031 226.816 54.0476 227.648 54.7002 228.3L57.5286 225.472C57.4354 225.378 57.3719 225.26 57.3462 225.13L53.423 225.911ZM54.7002 228.3C55.3529 228.953 56.1844 229.397 57.0896 229.577L57.87 225.654C57.7407 225.628 57.6219 225.565 57.5286 225.472L54.7002 228.3ZM57.0896 229.577C57.9949 229.757 58.9332 229.665 59.7859 229.312L58.2552 225.616C58.1333 225.667 57.9993 225.68 57.87 225.654L57.0896 229.577ZM59.7859 229.312C60.6386 228.959 61.3675 228.36 61.8802 227.593L58.5544 225.371C58.4811 225.48 58.377 225.566 58.2552 225.616L59.7859 229.312ZM61.8802 227.593C62.393 226.826 62.6667 225.923 62.6667 225H58.6667C58.6667 225.132 58.6276 225.261 58.5544 225.371L61.8802 227.593ZM62.6667 225C62.6667 223.763 62.175 222.576 61.2999 221.7L58.4714 224.529C58.5965 224.654 58.6667 224.824 58.6667 225H62.6667ZM61.2999 221.7C60.4247 220.825 59.2377 220.334 58 220.334V224.334C58.1769 224.334 58.3464 224.404 58.4714 224.529L61.2999 221.7ZM58 224.334C58.1319 224.334 58.2608 224.373 58.3704 224.446L56.1481 227.772C56.6963 228.138 57.3408 228.334 58 228.334V224.334ZM58.3704 224.446C58.4801 224.519 58.5655 224.623 58.616 224.745L54.9204 226.276C55.1727 226.885 55.6 227.406 56.1481 227.772L58.3704 224.446ZM58.616 224.745C58.6664 224.867 58.6796 225.001 58.6539 225.13L54.7308 224.35C54.6021 224.997 54.6682 225.667 54.9204 226.276L58.616 224.745ZM58.6539 225.13C58.6282 225.26 58.5647 225.378 58.4714 225.472L55.643 222.643C55.1768 223.109 54.8594 223.703 54.7308 224.35L58.6539 225.13ZM58.4714 225.472C58.3782 225.565 58.2594 225.628 58.1301 225.654L57.3497 221.731C56.7031 221.86 56.1092 222.177 55.643 222.643L58.4714 225.472ZM58.1301 225.654C58.0008 225.68 57.8667 225.667 57.7449 225.616L59.2757 221.921C58.6666 221.668 57.9963 221.602 57.3497 221.731L58.1301 225.654ZM57.7449 225.616C57.6231 225.566 57.519 225.48 57.4457 225.371L60.7716 223.148C60.4053 222.6 59.8847 222.173 59.2757 221.921L57.7449 225.616ZM57.4457 225.371C57.3725 225.261 57.3334 225.132 57.3334 225H61.3334C61.3334 224.341 61.1379 223.697 60.7716 223.148L57.4457 225.371ZM57.3334 225C57.3334 224.824 57.4036 224.654 57.5286 224.529L60.3571 227.357C60.9822 226.732 61.3334 225.884 61.3334 225H57.3334ZM57.5286 224.529C57.6537 224.404 57.8232 224.334 58 224.334V228.334C58.8841 228.334 59.7319 227.982 60.3571 227.357L57.5286 224.529Z" fill="#334155" mask="url(#path-15-inside-1_841_13092)"/>
<path d="M139.078 228.617V229.836H129.316V228.617H133.43V226.648H130.348V221.094H131.848V222.746H136.5V221.094H137.988V226.648H134.918V228.617H139.078ZM131.848 225.453H136.5V223.941H131.848V225.453ZM149.414 225.91V227.082H139.664V225.91H143.789V225.254H140.883V220.672H148.277V221.82H142.383V222.418H148.031V223.496H142.383V224.105H148.371V225.254H145.289V225.91H149.414ZM140.801 229.32C140.801 228.195 142.148 227.562 144.539 227.574C146.889 227.562 148.242 228.195 148.254 229.32C148.242 230.469 146.889 231.084 144.539 231.078C142.148 231.084 140.801 230.469 140.801 229.32ZM142.301 229.32C142.289 229.777 143.004 229.977 144.539 229.977C146.039 229.977 146.748 229.777 146.754 229.32C146.748 228.875 146.039 228.67 144.539 228.676C143.004 228.67 142.289 228.875 142.301 229.32Z" fill="#3BAE2B"/>
<path d="M161.949 230.117C160.197 230.111 158.521 229.062 158.527 225.957C158.533 223.092 159.898 221.398 162.02 221.398C163.725 221.398 164.896 222.477 165.066 223.871H163.332C163.191 223.279 162.705 222.91 162.02 222.91C160.865 222.91 160.262 223.947 160.25 225.617H160.332C160.725 224.861 161.562 224.422 162.5 224.422C164.029 224.422 165.166 225.564 165.16 227.164C165.166 228.887 163.865 230.123 161.949 230.117ZM160.426 227.211C160.438 228.043 161.07 228.729 161.938 228.723C162.811 228.729 163.449 228.066 163.449 227.211C163.449 226.361 162.822 225.705 161.961 225.699C161.094 225.705 160.438 226.385 160.426 227.211ZM169.66 230.117C167.908 230.111 166.232 229.062 166.238 225.957C166.244 223.092 167.609 221.398 169.73 221.398C171.436 221.398 172.607 222.477 172.777 223.871H171.043C170.902 223.279 170.416 222.91 169.73 222.91C168.576 222.91 167.973 223.947 167.961 225.617H168.043C168.436 224.861 169.273 224.422 170.211 224.422C171.74 224.422 172.877 225.564 172.871 227.164C172.877 228.887 171.576 230.123 169.66 230.117ZM168.137 227.211C168.148 228.043 168.781 228.729 169.648 228.723C170.521 228.729 171.16 228.066 171.16 227.211C171.16 226.361 170.533 225.705 169.672 225.699C168.805 225.705 168.148 226.385 168.137 227.211Z" fill="#3BAE2B"/>
</g>
<defs>
<filter id="filter0_d_841_13092" x="0" y="0" width="200" height="260" filterUnits="userSpaceOnUse" color-interpolation-filters="sRGB">
<feFlood flood-opacity="0" result="BackgroundImageFix"/>
<feColorMatrix in="SourceAlpha" type="matrix" values="0 0 0 0 0 0 0 0 0 0 0 0 0 0 0 0 0 0 127 0" result="hardAlpha"/>
<feOffset dy="24"/>
<feGaussianBlur stdDeviation="13"/>
<feComposite in2="hardAlpha" operator="out"/>
<feColorMatrix type="matrix" values="0 0 0 0 0.258824 0 0 0 0 0.321569 0 0 0 0 0.431373 0 0 0 0.06 0"/>
<feBlend mode="normal" in2="BackgroundImageFix" result="effect1_dropShadow_841_13092"/>
<feBlend mode="normal" in="SourceGraphic" in2="effect1_dropShadow_841_13092" result="shape"/>
</filter>
</defs>
</svg>
