<svg width="16" height="17" viewBox="0 0 16 17" fill="none" xmlns="http://www.w3.org/2000/svg">
<g id="ic_parts">
<path id="Vector" d="M6.6665 15.8334C6.6665 15.4668 6.79717 15.153 7.0585 14.8921C7.31984 14.6312 7.63361 14.5005 7.99984 14.5001V11.0334C7.8665 10.9779 7.74161 10.9139 7.62517 10.8414C7.50873 10.769 7.40028 10.6885 7.29984 10.6001L5.83317 11.5334C5.67761 11.6223 5.50806 11.6807 5.3245 11.7087C5.14095 11.7367 4.95495 11.7227 4.7665 11.6667L1.7665 10.8167C1.44428 10.7279 1.1805 10.5474 0.975171 10.2754C0.769837 10.0034 0.666948 9.69497 0.666504 9.35008C0.666504 8.92786 0.813837 8.56964 1.1085 8.27542C1.40317 7.98119 1.76139 7.83386 2.18317 7.83342H7.19984C7.31095 7.71119 7.43317 7.60564 7.5665 7.51675C7.69984 7.42786 7.84428 7.35564 7.99984 7.30008V5.01675C7.99984 4.82786 8.03606 4.65008 8.1085 4.48342C8.18095 4.31675 8.28361 4.1723 8.4165 4.05008L10.6998 1.91675C10.9554 1.6723 11.2527 1.53342 11.5918 1.50008C11.9309 1.46675 12.2447 1.53897 12.5332 1.71675C12.8887 1.93897 13.1194 2.25297 13.2252 2.65875C13.3309 3.06453 13.2725 3.44497 13.0498 3.80008L10.3998 8.18342C10.4776 8.31675 10.5361 8.46119 10.5752 8.61675C10.6143 8.7723 10.6392 8.93342 10.6498 9.10008L12.4498 9.53342C12.6276 9.57786 12.7887 9.65564 12.9332 9.76675C13.0776 9.87786 13.1943 10.0112 13.2832 10.1667L14.7998 12.9001C14.9665 13.2001 15.0276 13.5167 14.9832 13.8501C14.9387 14.1834 14.7943 14.4723 14.5498 14.7168C14.2498 15.0168 13.8916 15.1667 13.4752 15.1667C13.0587 15.1667 12.7003 15.0168 12.3998 14.7168L9.33317 11.6501V14.5001C9.69984 14.5001 10.0138 14.6307 10.2752 14.8921C10.5365 15.1534 10.6669 15.4672 10.6665 15.8334H6.6665ZM9.33317 5.01675V7.30008C9.34428 7.30008 9.35273 7.30297 9.3585 7.30875C9.36428 7.31453 9.3725 7.31719 9.38317 7.31675L11.9165 3.10008C11.9387 3.05564 11.9443 3.0083 11.9332 2.95808C11.9221 2.90786 11.8943 2.87186 11.8498 2.85008C11.8165 2.82786 11.7749 2.8223 11.7252 2.83342C11.6754 2.84453 11.6392 2.86119 11.6165 2.88342L9.33317 5.01675ZM8.6665 9.83342C8.85539 9.83342 9.01384 9.76942 9.14184 9.64142C9.26984 9.51342 9.33361 9.35519 9.33317 9.16675C9.33317 8.97786 9.26917 8.81964 9.14117 8.69208C9.01317 8.56453 8.85495 8.50053 8.6665 8.50008C8.47761 8.50008 8.31939 8.56408 8.19184 8.69208C8.06428 8.82008 8.00028 8.9783 7.99984 9.16675C7.99984 9.35564 8.06384 9.51408 8.19184 9.64208C8.31984 9.77008 8.47806 9.83386 8.6665 9.83342ZM5.14984 10.4001L6.69984 9.46675C6.68873 9.41119 6.68317 9.36119 6.68317 9.31675V9.16675H2.18317C2.12761 9.16675 2.08317 9.18342 2.04984 9.21675C2.0165 9.25008 1.99984 9.29453 1.99984 9.35008C1.99984 9.39453 2.01095 9.43342 2.03317 9.46675C2.05539 9.50008 2.08873 9.5223 2.13317 9.53342L5.14984 10.4001ZM12.1332 10.8167L10.2332 10.3834C10.2109 10.4056 10.1887 10.4334 10.1665 10.4667C10.1443 10.5001 10.1221 10.5279 10.0998 10.5501L13.3498 13.7834C13.3832 13.8167 13.4276 13.8334 13.4832 13.8334C13.5387 13.8334 13.5832 13.8167 13.6165 13.7834C13.6498 13.7501 13.6694 13.7141 13.6752 13.6754C13.6809 13.6368 13.6725 13.595 13.6498 13.5501L12.1332 10.8167Z" fill="#FF7C00"/>
</g>
</svg>
