<svg width="20" height="20" viewBox="0 0 20 20" fill="none" xmlns="http://www.w3.org/2000/svg">
<g id="material-symbols:wind-power-outline">
<path id="Vector" d="M8.3335 19.1668C8.3335 18.7084 8.49683 18.3162 8.8235 17.9901C9.15016 17.664 9.54239 17.5007 10.0002 17.5001V13.1668C9.8335 13.0973 9.67738 13.0173 9.53183 12.9268C9.38627 12.8362 9.25072 12.7357 9.12516 12.6251L7.29183 13.7918C7.09738 13.9029 6.88544 13.9759 6.656 14.0109C6.42655 14.0459 6.19405 14.0284 5.9585 13.9584L2.2085 12.8959C1.80572 12.7848 1.476 12.5593 1.21933 12.2193C0.962663 11.8793 0.834052 11.4937 0.833496 11.0626C0.833496 10.5348 1.01766 10.087 1.386 9.71927C1.75433 9.35149 2.20211 9.16733 2.72933 9.16677H9.00016C9.13905 9.01399 9.29183 8.88205 9.4585 8.77094C9.62516 8.65982 9.80572 8.56955 10.0002 8.5001V5.64594C10.0002 5.40983 10.0454 5.1876 10.136 4.97927C10.2266 4.77094 10.3549 4.59038 10.521 4.4376L13.3752 1.77094C13.6946 1.46538 14.0663 1.29177 14.4902 1.2501C14.9141 1.20844 15.3063 1.29871 15.6668 1.52094C16.1113 1.79871 16.3996 2.19121 16.5318 2.69844C16.6641 3.20566 16.591 3.68121 16.3127 4.1251L13.0002 9.60427C13.0974 9.77094 13.1704 9.95149 13.2193 10.1459C13.2682 10.3404 13.2993 10.5418 13.3127 10.7501L15.5627 11.2918C15.7849 11.3473 15.9863 11.4445 16.1668 11.5834C16.3474 11.7223 16.4932 11.889 16.6043 12.0834L18.5002 15.5001C18.7085 15.8751 18.7849 16.2709 18.7293 16.6876C18.6738 17.1043 18.4932 17.4654 18.1877 17.7709C17.8127 18.1459 17.3649 18.3334 16.8443 18.3334C16.3238 18.3334 15.8757 18.1459 15.5002 17.7709L11.6668 13.9376V17.5001C12.1252 17.5001 12.5177 17.6634 12.8443 17.9901C13.171 18.3168 13.3341 18.709 13.3335 19.1668H8.3335ZM11.6668 5.64594V8.5001C11.6807 8.5001 11.6913 8.50371 11.6985 8.51094C11.7057 8.51816 11.716 8.52149 11.7293 8.52094L14.896 3.2501C14.9238 3.19455 14.9307 3.13538 14.9168 3.0726C14.9029 3.00983 14.8682 2.96483 14.8127 2.9376C14.771 2.90983 14.7191 2.90288 14.6568 2.91677C14.5946 2.93066 14.5493 2.95149 14.521 2.97927L11.6668 5.64594ZM10.8335 11.6668C11.0696 11.6668 11.2677 11.5868 11.4277 11.4268C11.5877 11.2668 11.6674 11.069 11.6668 10.8334C11.6668 10.5973 11.5868 10.3995 11.4268 10.2401C11.2668 10.0807 11.0691 10.0007 10.8335 10.0001C10.5974 10.0001 10.3996 10.0801 10.2402 10.2401C10.0807 10.4001 10.0007 10.5979 10.0002 10.8334C10.0002 11.0695 10.0802 11.2676 10.2402 11.4276C10.4002 11.5876 10.5979 11.6673 10.8335 11.6668ZM6.43766 12.3751L8.37516 11.2084C8.36127 11.139 8.35433 11.0765 8.35433 11.0209V10.8334H2.72933C2.65989 10.8334 2.60433 10.8543 2.56266 10.8959C2.521 10.9376 2.50016 10.9932 2.50016 11.0626C2.50016 11.1182 2.51405 11.1668 2.54183 11.2084C2.56961 11.2501 2.61127 11.2779 2.66683 11.2918L6.43766 12.3751ZM15.1668 12.8959L12.7918 12.3543C12.7641 12.382 12.7363 12.4168 12.7085 12.4584C12.6807 12.5001 12.6529 12.5348 12.6252 12.5626L16.6877 16.6043C16.7293 16.6459 16.7849 16.6668 16.8543 16.6668C16.9238 16.6668 16.9793 16.6459 17.021 16.6043C17.0627 16.5626 17.0871 16.5176 17.0943 16.4693C17.1016 16.4209 17.091 16.3687 17.0627 16.3126L15.1668 12.8959Z" fill="#94A3B8"/>
</g>
</svg>
