<svg width="20" height="20" viewBox="0 0 20 20" fill="none" xmlns="http://www.w3.org/2000/svg">
<g id="u:check">
<path id="Vector" d="M15.2367 6.36032L15.2445 6.3682L15.2527 6.37572C15.2865 6.40693 15.3135 6.44482 15.332 6.48698C15.3504 6.52915 15.36 6.57468 15.36 6.62072C15.36 6.66675 15.3504 6.71229 15.332 6.75445C15.3135 6.79662 15.2865 6.8345 15.2527 6.86572L15.2453 6.87254L15.2382 6.87966L8.43815 13.6797L8.43815 13.6797L8.43671 13.6811C8.40572 13.7124 8.36885 13.7372 8.32823 13.7541C8.28761 13.771 8.24404 13.7797 8.20004 13.7797C8.15604 13.7797 8.11247 13.771 8.07185 13.7541C8.03123 13.7372 7.99436 13.7124 7.96337 13.6811L7.96193 13.6797L4.76193 10.4797L4.76198 10.4796L4.75576 10.4736C4.72255 10.4415 4.69598 10.4032 4.67758 10.3609C4.65917 10.3185 4.64929 10.273 4.64849 10.2268C4.64769 10.1806 4.65599 10.1348 4.67292 10.0918L4.20774 9.90848L4.67292 10.0918C4.68985 10.0488 4.71508 10.0096 4.74716 9.97644C4.77924 9.94323 4.81754 9.91666 4.85989 9.89826L4.66311 9.44551L4.85989 9.89825C4.90223 9.87985 4.94779 9.86997 4.99396 9.86917C5.04012 9.86837 5.086 9.87667 5.12895 9.8936L5.31227 9.42842L5.12895 9.8936C5.17076 9.91008 5.20902 9.93441 5.24165 9.96528L7.84592 12.5779L8.19971 12.9328L8.55383 12.5782L14.7622 6.36154L14.7634 6.36032C14.7944 6.32907 14.8312 6.30428 14.8718 6.28735C14.9125 6.27043 14.956 6.26172 15 6.26172C15.044 6.26172 15.0876 6.27043 15.1282 6.28735C15.1688 6.30428 15.2057 6.32907 15.2367 6.36032Z" fill="white" stroke="white"/>
</g>
</svg>
