<svg width="20" height="20" viewBox="0 0 20 20" fill="none" xmlns="http://www.w3.org/2000/svg">
<g id="uil:circuit">
<path id="Vector" d="M8.33317 10.8337C8.16835 10.8337 8.00724 10.8825 7.87019 10.9741C7.73315 11.0657 7.62634 11.1958 7.56327 11.3481C7.5002 11.5004 7.4837 11.6679 7.51585 11.8296C7.548 11.9912 7.62737 12.1397 7.74392 12.2562C7.86046 12.3728 8.00894 12.4522 8.1706 12.4843C8.33225 12.5165 8.4998 12.5 8.65207 12.4369C8.80435 12.3738 8.93449 12.267 9.02606 12.13C9.11763 11.9929 9.1665 11.8318 9.1665 11.667C9.1665 11.446 9.07871 11.234 8.92243 11.0777C8.76615 10.9215 8.55418 10.8337 8.33317 10.8337ZM8.33317 7.50033C8.16835 7.50033 8.00724 7.5492 7.87019 7.64077C7.73315 7.73234 7.62634 7.86248 7.56327 8.01476C7.5002 8.16703 7.4837 8.33458 7.51585 8.49623C7.548 8.65788 7.62737 8.80637 7.74392 8.92291C7.86046 9.03946 8.00894 9.11883 8.1706 9.15098C8.33225 9.18313 8.4998 9.16663 8.65207 9.10356C8.80435 9.04049 8.93449 8.93368 9.02606 8.79663C9.11763 8.65959 9.1665 8.49848 9.1665 8.33366C9.1665 8.11265 9.07871 7.90068 8.92243 7.7444C8.76615 7.58812 8.55418 7.50033 8.33317 7.50033ZM11.6665 7.50033C11.5017 7.50033 11.3406 7.5492 11.2035 7.64077C11.0665 7.73234 10.9597 7.86248 10.8966 8.01476C10.8335 8.16703 10.817 8.33458 10.8492 8.49623C10.8813 8.65788 10.9607 8.80637 11.0772 8.92291C11.1938 9.03946 11.3423 9.11883 11.5039 9.15098C11.6656 9.18313 11.8331 9.16663 11.9854 9.10356C12.1377 9.04049 12.2678 8.93368 12.3594 8.79663C12.451 8.65959 12.4998 8.49848 12.4998 8.33366C12.4998 8.11265 12.412 7.90068 12.2558 7.7444C12.0995 7.58812 11.8875 7.50033 11.6665 7.50033ZM17.4998 10.8337C17.7208 10.8337 17.9328 10.7459 18.0891 10.5896C18.2454 10.4333 18.3332 10.2213 18.3332 10.0003C18.3332 9.77931 18.2454 9.56735 18.0891 9.41107C17.9328 9.25479 17.7208 9.16699 17.4998 9.16699H15.8332V7.50033H17.4998C17.7208 7.50033 17.9328 7.41253 18.0891 7.25625C18.2454 7.09997 18.3332 6.88801 18.3332 6.66699C18.3332 6.44598 18.2454 6.23402 18.0891 6.07774C17.9328 5.92146 17.7208 5.83366 17.4998 5.83366H15.6832C15.5587 5.48416 15.3581 5.16674 15.0958 4.90441C14.8334 4.64208 14.516 4.44142 14.1665 4.31699V2.50033C14.1665 2.27931 14.0787 2.06735 13.9224 1.91107C13.7661 1.75479 13.5542 1.66699 13.3332 1.66699C13.1122 1.66699 12.9002 1.75479 12.7439 1.91107C12.5876 2.06735 12.4998 2.27931 12.4998 2.50033V4.16699H10.8332V2.50033C10.8332 2.27931 10.7454 2.06735 10.5891 1.91107C10.4328 1.75479 10.2209 1.66699 9.99984 1.66699C9.77882 1.66699 9.56686 1.75479 9.41058 1.91107C9.2543 2.06735 9.1665 2.27931 9.1665 2.50033V4.16699H7.49984V2.50033C7.49984 2.27931 7.41204 2.06735 7.25576 1.91107C7.09948 1.75479 6.88752 1.66699 6.6665 1.66699C6.44549 1.66699 6.23353 1.75479 6.07725 1.91107C5.92097 2.06735 5.83317 2.27931 5.83317 2.50033V4.31699C5.48367 4.44142 5.16625 4.64208 4.90392 4.90441C4.64159 5.16674 4.44094 5.48416 4.3165 5.83366H2.49984C2.27882 5.83366 2.06686 5.92146 1.91058 6.07774C1.7543 6.23402 1.6665 6.44598 1.6665 6.66699C1.6665 6.88801 1.7543 7.09997 1.91058 7.25625C2.06686 7.41253 2.27882 7.50033 2.49984 7.50033H4.1665V9.16699H2.49984C2.27882 9.16699 2.06686 9.25479 1.91058 9.41107C1.7543 9.56735 1.6665 9.77931 1.6665 10.0003C1.6665 10.2213 1.7543 10.4333 1.91058 10.5896C2.06686 10.7459 2.27882 10.8337 2.49984 10.8337H4.1665V12.5003H2.49984C2.27882 12.5003 2.06686 12.5881 1.91058 12.7444C1.7543 12.9007 1.6665 13.1126 1.6665 13.3337C1.6665 13.5547 1.7543 13.7666 1.91058 13.9229C2.06686 14.0792 2.27882 14.167 2.49984 14.167H4.3165C4.44094 14.5165 4.64159 14.8339 4.90392 15.0962C5.16625 15.3586 5.48367 15.5592 5.83317 15.6837V17.5003C5.83317 17.7213 5.92097 17.9333 6.07725 18.0896C6.23353 18.2459 6.44549 18.3337 6.6665 18.3337C6.88752 18.3337 7.09948 18.2459 7.25576 18.0896C7.41204 17.9333 7.49984 17.7213 7.49984 17.5003V15.8337H9.1665V17.5003C9.1665 17.7213 9.2543 17.9333 9.41058 18.0896C9.56686 18.2459 9.77882 18.3337 9.99984 18.3337C10.2209 18.3337 10.4328 18.2459 10.5891 18.0896C10.7454 17.9333 10.8332 17.7213 10.8332 17.5003V15.8337H12.4998V17.5003C12.4998 17.7213 12.5876 17.9333 12.7439 18.0896C12.9002 18.2459 13.1122 18.3337 13.3332 18.3337C13.5542 18.3337 13.7661 18.2459 13.9224 18.0896C14.0787 17.9333 14.1665 17.7213 14.1665 17.5003V15.6837C14.516 15.5592 14.8334 15.3586 15.0958 15.0962C15.3581 14.8339 15.5587 14.5165 15.6832 14.167H17.4998C17.7208 14.167 17.9328 14.0792 18.0891 13.9229C18.2454 13.7666 18.3332 13.5547 18.3332 13.3337C18.3332 13.1126 18.2454 12.9007 18.0891 12.7444C17.9328 12.5881 17.7208 12.5003 17.4998 12.5003H15.8332V10.8337H17.4998ZM14.1665 13.3337C14.1665 13.5547 14.0787 13.7666 13.9224 13.9229C13.7661 14.0792 13.5542 14.167 13.3332 14.167H6.6665C6.44549 14.167 6.23353 14.0792 6.07725 13.9229C5.92097 13.7666 5.83317 13.5547 5.83317 13.3337V6.66699C5.83317 6.44598 5.92097 6.23402 6.07725 6.07774C6.23353 5.92146 6.44549 5.83366 6.6665 5.83366H13.3332C13.5542 5.83366 13.7661 5.92146 13.9224 6.07774C14.0787 6.23402 14.1665 6.44598 14.1665 6.66699V13.3337ZM11.6665 10.8337C11.5017 10.8337 11.3406 10.8825 11.2035 10.9741C11.0665 11.0657 10.9597 11.1958 10.8966 11.3481C10.8335 11.5004 10.817 11.6679 10.8492 11.8296C10.8813 11.9912 10.9607 12.1397 11.0772 12.2562C11.1938 12.3728 11.3423 12.4522 11.5039 12.4843C11.6656 12.5165 11.8331 12.5 11.9854 12.4369C12.1377 12.3738 12.2678 12.267 12.3594 12.13C12.451 11.9929 12.4998 11.8318 12.4998 11.667C12.4998 11.446 12.412 11.234 12.2558 11.0777C12.0995 10.9215 11.8875 10.8337 11.6665 10.8337Z" fill="#94A3B8"/>
</g>
</svg>
