<svg width="16" height="17" viewBox="0 0 16 17" fill="none" xmlns="http://www.w3.org/2000/svg">
<g id="ic_parts">
<path id="Vector" d="M6.66683 9.16634C6.53498 9.16634 6.40608 9.20544 6.29645 9.27869C6.18682 9.35195 6.10137 9.45607 6.05091 9.57788C6.00045 9.6997 5.98725 9.83375 6.01297 9.96307C6.0387 10.0924 6.10219 10.2112 6.19542 10.3044C6.28866 10.3976 6.40745 10.4611 6.53677 10.4869C6.66609 10.5126 6.80013 10.4994 6.92195 10.4489C7.04377 10.3985 7.14789 10.313 7.22114 10.2034C7.2944 10.0938 7.3335 9.96486 7.3335 9.83301C7.3335 9.6562 7.26326 9.48663 7.13823 9.3616C7.01321 9.23658 6.84364 9.16634 6.66683 9.16634ZM6.66683 6.49967C6.53498 6.49967 6.40608 6.53877 6.29645 6.61203C6.18682 6.68528 6.10137 6.7894 6.05091 6.91122C6.00045 7.03304 5.98725 7.16708 6.01297 7.2964C6.0387 7.42572 6.10219 7.54451 6.19542 7.63775C6.28866 7.73098 6.40745 7.79447 6.53677 7.8202C6.66609 7.84592 6.80013 7.83272 6.92195 7.78226C7.04377 7.7318 7.14789 7.64635 7.22114 7.53672C7.2944 7.42709 7.3335 7.29819 7.3335 7.16634C7.3335 6.98953 7.26326 6.81996 7.13823 6.69494C7.01321 6.56991 6.84364 6.49967 6.66683 6.49967ZM9.3335 6.49967C9.20164 6.49967 9.07275 6.53877 8.96312 6.61203C8.85348 6.68528 8.76803 6.7894 8.71758 6.91122C8.66712 7.03304 8.65392 7.16708 8.67964 7.2964C8.70536 7.42572 8.76886 7.54451 8.86209 7.63775C8.95533 7.73098 9.07411 7.79447 9.20344 7.8202C9.33276 7.84592 9.4668 7.83272 9.58862 7.78226C9.71044 7.7318 9.81455 7.64635 9.88781 7.53672C9.96106 7.42709 10.0002 7.29819 10.0002 7.16634C10.0002 6.98953 9.92992 6.81996 9.8049 6.69494C9.67988 6.56991 9.51031 6.49967 9.3335 6.49967ZM14.0002 9.16634C14.177 9.16634 14.3465 9.0961 14.4716 8.97108C14.5966 8.84605 14.6668 8.67649 14.6668 8.49967C14.6668 8.32286 14.5966 8.15329 14.4716 8.02827C14.3465 7.90325 14.177 7.83301 14.0002 7.83301H12.6668V6.49967H14.0002C14.177 6.49967 14.3465 6.42944 14.4716 6.30441C14.5966 6.17939 14.6668 6.00982 14.6668 5.83301C14.6668 5.6562 14.5966 5.48663 14.4716 5.3616C14.3465 5.23658 14.177 5.16634 14.0002 5.16634H12.5468C12.4473 4.88674 12.2868 4.6328 12.0769 4.42294C11.867 4.21308 11.6131 4.05255 11.3335 3.95301V2.49967C11.3335 2.32286 11.2633 2.15329 11.1382 2.02827C11.0132 1.90325 10.8436 1.83301 10.6668 1.83301C10.49 1.83301 10.3204 1.90325 10.1954 2.02827C10.0704 2.15329 10.0002 2.32286 10.0002 2.49967V3.83301H8.66683V2.49967C8.66683 2.32286 8.59659 2.15329 8.47157 2.02827C8.34654 1.90325 8.17697 1.83301 8.00016 1.83301C7.82335 1.83301 7.65378 1.90325 7.52876 2.02827C7.40373 2.15329 7.3335 2.32286 7.3335 2.49967V3.83301H6.00016V2.49967C6.00016 2.32286 5.92992 2.15329 5.8049 2.02827C5.67988 1.90325 5.51031 1.83301 5.3335 1.83301C5.15668 1.83301 4.98712 1.90325 4.86209 2.02827C4.73707 2.15329 4.66683 2.32286 4.66683 2.49967V3.95301C4.38723 4.05255 4.13329 4.21308 3.92343 4.42294C3.71357 4.6328 3.55304 4.88674 3.4535 5.16634H2.00016C1.82335 5.16634 1.65378 5.23658 1.52876 5.3616C1.40373 5.48663 1.3335 5.6562 1.3335 5.83301C1.3335 6.00982 1.40373 6.17939 1.52876 6.30441C1.65378 6.42944 1.82335 6.49967 2.00016 6.49967H3.3335V7.83301H2.00016C1.82335 7.83301 1.65378 7.90325 1.52876 8.02827C1.40373 8.15329 1.3335 8.32286 1.3335 8.49967C1.3335 8.67649 1.40373 8.84605 1.52876 8.97108C1.65378 9.0961 1.82335 9.16634 2.00016 9.16634H3.3335V10.4997H2.00016C1.82335 10.4997 1.65378 10.5699 1.52876 10.6949C1.40373 10.82 1.3335 10.9895 1.3335 11.1663C1.3335 11.3432 1.40373 11.5127 1.52876 11.6377C1.65378 11.7628 1.82335 11.833 2.00016 11.833H3.4535C3.55304 12.1126 3.71357 12.3665 3.92343 12.5764C4.13329 12.7863 4.38723 12.9468 4.66683 13.0463V14.4997C4.66683 14.6765 4.73707 14.8461 4.86209 14.9711C4.98712 15.0961 5.15668 15.1663 5.3335 15.1663C5.51031 15.1663 5.67988 15.0961 5.8049 14.9711C5.92992 14.8461 6.00016 14.6765 6.00016 14.4997V13.1663H7.3335V14.4997C7.3335 14.6765 7.40373 14.8461 7.52876 14.9711C7.65378 15.0961 7.82335 15.1663 8.00016 15.1663C8.17697 15.1663 8.34654 15.0961 8.47157 14.9711C8.59659 14.8461 8.66683 14.6765 8.66683 14.4997V13.1663H10.0002V14.4997C10.0002 14.6765 10.0704 14.8461 10.1954 14.9711C10.3204 15.0961 10.49 15.1663 10.6668 15.1663C10.8436 15.1663 11.0132 15.0961 11.1382 14.9711C11.2633 14.8461 11.3335 14.6765 11.3335 14.4997V13.0463C11.6131 12.9468 11.867 12.7863 12.0769 12.5764C12.2868 12.3665 12.4473 12.1126 12.5468 11.833H14.0002C14.177 11.833 14.3465 11.7628 14.4716 11.6377C14.5966 11.5127 14.6668 11.3432 14.6668 11.1663C14.6668 10.9895 14.5966 10.82 14.4716 10.6949C14.3465 10.5699 14.177 10.4997 14.0002 10.4997H12.6668V9.16634H14.0002ZM11.3335 11.1663C11.3335 11.3432 11.2633 11.5127 11.1382 11.6377C11.0132 11.7628 10.8436 11.833 10.6668 11.833H5.3335C5.15668 11.833 4.98712 11.7628 4.86209 11.6377C4.73707 11.5127 4.66683 11.3432 4.66683 11.1663V5.83301C4.66683 5.6562 4.73707 5.48663 4.86209 5.3616C4.98712 5.23658 5.15668 5.16634 5.3335 5.16634H10.6668C10.8436 5.16634 11.0132 5.23658 11.1382 5.3616C11.2633 5.48663 11.3335 5.6562 11.3335 5.83301V11.1663ZM9.3335 9.16634C9.20164 9.16634 9.07275 9.20544 8.96312 9.27869C8.85348 9.35195 8.76803 9.45607 8.71758 9.57788C8.66712 9.6997 8.65392 9.83375 8.67964 9.96307C8.70536 10.0924 8.76886 10.2112 8.86209 10.3044C8.95533 10.3976 9.07411 10.4611 9.20344 10.4869C9.33276 10.5126 9.4668 10.4994 9.58862 10.4489C9.71044 10.3985 9.81455 10.313 9.88781 10.2034C9.96106 10.0938 10.0002 9.96486 10.0002 9.83301C10.0002 9.6562 9.92992 9.48663 9.8049 9.3616C9.67988 9.23658 9.51031 9.16634 9.3335 9.16634Z" fill="#FF7C00"/>
</g>
</svg>
