<svg width="20" height="20" viewBox="0 0 20 20" fill="none" xmlns="http://www.w3.org/2000/svg">
<path d="M10.0001 2.16665L9.99809 2.16665C8.53412 2.16011 7.0976 2.56396 5.85149 3.33239C4.60539 4.10083 3.59956 5.20309 2.94809 6.51414L2.94754 6.51525C2.90739 6.59556 2.90078 6.68852 2.92917 6.7737C2.95756 6.85887 3.01863 6.92928 3.09893 6.96943C3.17924 7.00959 3.2722 7.01619 3.35738 6.9878C3.44225 6.95951 3.51246 6.89878 3.55268 6.8189C4.11902 5.67559 4.98033 4.70419 6.04764 4.00505C7.11522 3.30573 8.35018 2.90419 9.62489 2.8419C10.8996 2.77962 12.1678 3.05886 13.2985 3.65077C14.4292 4.24268 15.3813 5.12578 16.0564 6.20881C16.7315 7.29184 17.1052 8.53551 17.1388 9.8113C17.1724 11.0871 16.8647 12.3487 16.2476 13.4658C15.6304 14.5829 14.7261 15.5149 13.6282 16.1655C12.5303 16.8161 11.2786 17.1617 10.0025 17.1666L10.0001 2.16665ZM10.0001 2.16665C11.3957 2.1673 12.7658 2.5408 13.9687 3.24851C15.1715 3.95623 16.1635 4.97245 16.8419 6.19207C17.5203 7.41168 17.8606 8.79041 17.8275 10.1856C17.7945 11.5809 17.3892 12.9419 16.6538 14.128C15.9183 15.3141 14.8793 16.2822 13.6443 16.9321C12.4092 17.582 11.023 17.8902 9.62889 17.8247C8.23481 17.7592 6.88354 17.3225 5.71484 16.5597C4.54615 15.7968 3.60247 14.7356 2.98143 13.4858L2.98087 13.4847M10.0001 2.16665L2.98087 13.4847M2.98087 13.4847C2.94072 13.4044 2.93411 13.3114 2.96251 13.2263C2.9909 13.1411 3.05196 13.0707 3.13226 13.0305C3.21257 12.9904 3.30554 12.9838 3.39071 13.0122C3.47532 13.0404 3.54535 13.1008 3.58564 13.1803C4.17224 14.3802 5.08505 15.3906 6.21947 16.0957C7.35464 16.8012 8.66572 17.1724 10.0023 17.1666L2.98087 13.4847ZM10.8448 11.1876L11.7028 10.3333H10.492H2.50033C2.41192 10.3333 2.32714 10.2982 2.26462 10.2357C2.20211 10.1732 2.16699 10.0884 2.16699 9.99998C2.16699 9.91158 2.20211 9.82679 2.26462 9.76428C2.32714 9.70177 2.41192 9.66665 2.50033 9.66665H10.492H11.7028L10.8448 8.81233L8.92888 6.90476C8.92877 6.90465 8.92866 6.90454 8.92854 6.90443C8.89743 6.87323 8.87274 6.83622 8.85588 6.79552C8.83896 6.75466 8.83025 6.71087 8.83025 6.66665C8.83025 6.62243 8.83896 6.57864 8.85588 6.53778C8.8728 6.49693 8.89761 6.45981 8.92888 6.42853C8.96015 6.39726 8.99727 6.37246 9.03813 6.35554C9.07898 6.33861 9.12277 6.3299 9.16699 6.3299C9.21121 6.3299 9.255 6.33861 9.29586 6.35554C9.33671 6.37246 9.37384 6.39726 9.40511 6.42853L12.7337 9.75715C12.7627 9.78818 12.7855 9.82447 12.8008 9.86407L12.8007 9.8641L12.8045 9.87331C12.8378 9.95447 12.8378 10.0455 12.8045 10.1266L12.8044 10.1266L12.8008 10.1359C12.7855 10.1755 12.7627 10.2118 12.7337 10.2428L9.4051 13.5714L9.40366 13.5729C9.37267 13.6041 9.3358 13.6289 9.29519 13.6458L9.48747 14.1074L9.29518 13.6458C9.25457 13.6628 9.211 13.6715 9.16699 13.6715C9.12299 13.6715 9.07942 13.6628 9.0388 13.6458C8.99818 13.6289 8.96132 13.6041 8.93033 13.5729L8.92743 13.57C8.89618 13.539 8.87139 13.5021 8.85446 13.4615L8.39292 13.6538L8.85446 13.4615C8.83754 13.4209 8.82883 13.3773 8.82883 13.3333C8.82883 13.2893 8.83754 13.2457 8.85446 13.2051L8.39292 13.0128L8.85446 13.2051C8.87139 13.1645 8.89618 13.1276 8.92743 13.0966L8.92811 13.096L10.8448 11.1876Z" fill="black" stroke="#94A3B8"/>
</svg>
