<svg width="20" height="20" viewBox="0 0 20 20" fill="none" xmlns="http://www.w3.org/2000/svg">
<path d="M10.492 10.8334L8.57533 12.7417C8.49722 12.8192 8.43522 12.9113 8.39292 13.0129C8.35061 13.1144 8.32883 13.2234 8.32883 13.3334C8.32883 13.4434 8.35061 13.5523 8.39292 13.6539C8.43522 13.7554 8.49722 13.8476 8.57533 13.925C8.6528 14.0031 8.74496 14.0651 8.84651 14.1075C8.94806 14.1498 9.05698 14.1715 9.16699 14.1715C9.277 14.1715 9.38592 14.1498 9.48747 14.1075C9.58902 14.0651 9.68119 14.0031 9.75866 13.925L13.092 10.5917C13.1679 10.5125 13.2273 10.419 13.267 10.3167C13.3503 10.1138 13.3503 9.88626 13.267 9.68338C13.2273 9.58108 13.1679 9.48763 13.092 9.40838L9.75866 6.07504C9.68096 5.99734 9.58872 5.93571 9.4872 5.89366C9.38568 5.85161 9.27688 5.82997 9.16699 5.82997C9.05711 5.82997 8.9483 5.85161 8.84678 5.89366C8.74527 5.93571 8.65302 5.99734 8.57533 6.07504C8.49763 6.15274 8.43599 6.24498 8.39394 6.3465C8.35189 6.44802 8.33025 6.55683 8.33025 6.66671C8.33025 6.77659 8.35189 6.8854 8.39394 6.98692C8.43599 7.08844 8.49763 7.18068 8.57533 7.25838L10.492 9.16671H2.50033C2.27931 9.16671 2.06735 9.25451 1.91107 9.41079C1.75479 9.56707 1.66699 9.77903 1.66699 10C1.66699 10.2211 1.75479 10.433 1.91107 10.5893C2.06735 10.7456 2.27931 10.8334 2.50033 10.8334H10.492ZM10.0003 1.66671C8.4429 1.65976 6.9147 2.08939 5.58905 2.90687C4.2634 3.72435 3.19337 4.89697 2.50033 6.29171C2.40087 6.49062 2.3845 6.7209 2.45483 6.93187C2.52516 7.14285 2.67641 7.31725 2.87533 7.41671C3.07424 7.51616 3.30451 7.53253 3.51549 7.4622C3.72647 7.39188 3.90087 7.24062 4.00033 7.04171C4.52715 5.97781 5.32852 5.07389 6.32162 4.42337C7.31471 3.77284 8.46351 3.39931 9.64929 3.34137C10.8351 3.28343 12.0148 3.54319 13.0666 4.0938C14.1184 4.64441 15.0041 5.4659 15.6321 6.47337C16.2601 7.48084 16.6077 8.63775 16.639 9.82453C16.6703 11.0113 16.384 12.1849 15.8099 13.2241C15.2358 14.2632 14.3946 15.1302 13.3733 15.7354C12.3519 16.3406 11.1875 16.6621 10.0003 16.6667C8.75773 16.6721 7.53879 16.327 6.4834 15.6711C5.42802 15.0152 4.57895 14.0749 4.03366 12.9584C3.9342 12.7595 3.7598 12.6082 3.54882 12.5379C3.33785 12.4676 3.10757 12.4839 2.90866 12.5834C2.70975 12.6828 2.55849 12.8572 2.48816 13.0682C2.41784 13.2792 2.4342 13.5095 2.53366 13.7084C3.19435 15.038 4.19826 16.1669 5.44155 16.9784C6.68484 17.7899 8.12237 18.2545 9.60543 18.3242C11.0885 18.3939 12.5632 18.066 13.8771 17.3746C15.191 16.6832 16.2963 15.6534 17.0787 14.3916C17.8611 13.1298 18.2922 11.6818 18.3274 10.1975C18.3626 8.71327 18.0006 7.24654 17.2789 5.94907C16.5571 4.6516 15.5019 3.57051 14.2222 2.81763C12.9426 2.06475 11.485 1.66741 10.0003 1.66671Z" fill="#94A3B8"/>
</svg>
