<svg width="16" height="16" viewBox="0 0 16 16" fill="none" xmlns="http://www.w3.org/2000/svg">
<path d="M7.99998 7.3335C7.82317 7.3335 7.6536 7.40373 7.52858 7.52876C7.40355 7.65378 7.33332 7.82335 7.33332 8.00016V10.6668C7.33332 10.8436 7.40355 11.0132 7.52858 11.1382C7.6536 11.2633 7.82317 11.3335 7.99998 11.3335C8.17679 11.3335 8.34636 11.2633 8.47139 11.1382C8.59641 11.0132 8.66665 10.8436 8.66665 10.6668V8.00016C8.66665 7.82335 8.59641 7.65378 8.47139 7.52876C8.34636 7.40373 8.17679 7.3335 7.99998 7.3335ZM8.25332 4.72016C8.09101 4.65348 7.90896 4.65348 7.74665 4.72016C7.66482 4.75189 7.59005 4.79947 7.52665 4.86016C7.46776 4.92496 7.42041 4.99937 7.38665 5.08016C7.34933 5.15928 7.33106 5.24605 7.33332 5.3335C7.33281 5.42123 7.34963 5.50821 7.3828 5.58943C7.41598 5.67066 7.46486 5.74454 7.52665 5.80683C7.59145 5.86572 7.66586 5.91307 7.74665 5.94683C7.84765 5.98832 7.95729 6.00437 8.06595 5.99357C8.1746 5.98277 8.27894 5.94544 8.36979 5.88488C8.46064 5.82431 8.53523 5.74235 8.58699 5.64621C8.63875 5.55007 8.66611 5.44269 8.66665 5.3335C8.66419 5.15698 8.59514 4.98792 8.47332 4.86016C8.40991 4.79947 8.33515 4.75189 8.25332 4.72016ZM7.99998 1.3335C6.68144 1.3335 5.39251 1.72449 4.29618 2.45703C3.19985 3.18957 2.34537 4.23077 1.84079 5.44894C1.3362 6.66711 1.20418 8.00756 1.46141 9.30077C1.71865 10.594 2.35359 11.7819 3.28594 12.7142C4.21829 13.6466 5.40617 14.2815 6.69938 14.5387C7.99259 14.796 9.33303 14.6639 10.5512 14.1594C11.7694 13.6548 12.8106 12.8003 13.5431 11.704C14.2757 10.6076 14.6666 9.31871 14.6666 8.00016C14.6666 7.12468 14.4942 6.25778 14.1592 5.44894C13.8241 4.6401 13.3331 3.90517 12.714 3.28612C12.095 2.66706 11.36 2.176 10.5512 1.84097C9.74237 1.50593 8.87546 1.3335 7.99998 1.3335ZM7.99998 13.3335C6.94515 13.3335 5.914 13.0207 5.03694 12.4347C4.15988 11.8486 3.47629 11.0157 3.07263 10.0411C2.66896 9.0666 2.56334 7.99425 2.76913 6.95968C2.97492 5.92512 3.48287 4.97481 4.22875 4.22893C4.97463 3.48305 5.92494 2.9751 6.9595 2.76931C7.99407 2.56352 9.06642 2.66914 10.041 3.07281C11.0155 3.47647 11.8485 4.16006 12.4345 5.03712C13.0205 5.91418 13.3333 6.94533 13.3333 8.00016C13.3333 9.41465 12.7714 10.7712 11.7712 11.7714C10.771 12.7716 9.41447 13.3335 7.99998 13.3335Z" fill="#94A3B8"/>
</svg>
