<svg width="20" height="20" viewBox="0 0 20 20" fill="none" xmlns="http://www.w3.org/2000/svg">
<g id="mdi:motor-outline">
<path id="Vector" d="M6.66683 8.33301H12.3335C12.8858 8.33301 13.3335 8.78072 13.3335 9.33301V13.9997C13.3335 14.552 12.8858 14.9997 12.3335 14.9997H9.58104C9.31583 14.9997 9.06147 14.8943 8.87394 14.7068L7.79306 13.6259C7.60552 13.4384 7.35117 13.333 7.08595 13.333H6.8335C6.28121 13.333 5.8335 12.8853 5.8335 12.333V9.16634M6.66683 3.33301C6.20659 3.33301 5.8335 3.7061 5.8335 4.16634C5.8335 4.62658 6.20659 4.99967 6.66683 4.99967H7.50016C7.9604 4.99967 8.3335 5.37277 8.3335 5.83301C8.3335 6.29325 7.9604 6.66634 7.50016 6.66634H6.24771C5.98249 6.66634 5.72814 6.7717 5.5406 6.95923L4.45972 8.04011C4.27219 8.22765 4.16683 8.482 4.16683 8.74722V9.99967C4.16683 10.4599 3.79373 10.833 3.3335 10.833C2.87326 10.833 2.50016 10.4599 2.50016 9.99967V9.16634C2.50016 8.7061 2.12707 8.33301 1.66683 8.33301C1.20659 8.33301 0.833496 8.7061 0.833496 9.16634V14.1663C0.833496 14.6266 1.20659 14.9997 1.66683 14.9997C2.12707 14.9997 2.50016 14.6266 2.50016 14.1663V13.333C2.50016 12.8728 2.87326 12.4997 3.3335 12.4997C3.79373 12.4997 4.16683 12.8728 4.16683 13.333V13.9997C4.16683 14.552 4.61454 14.9997 5.16683 14.9997H6.25262C6.51783 14.9997 6.77219 15.105 6.95972 15.2926L8.0406 16.3734C8.22814 16.561 8.48249 16.6663 8.74771 16.6663H14.0002C14.5524 16.6663 15.0002 16.2186 15.0002 15.6663V14.1663C15.0002 13.7061 15.3733 13.333 15.8335 13.333C16.2937 13.333 16.6668 13.7061 16.6668 14.1663V14.833C16.6668 15.3853 17.1145 15.833 17.6668 15.833H18.1668C18.7191 15.833 19.1668 15.3853 19.1668 14.833V8.49967C19.1668 7.94739 18.7191 7.49967 18.1668 7.49967H17.6668C17.1145 7.49967 16.6668 7.94739 16.6668 8.49967V9.16634C16.6668 9.62658 16.2937 9.99967 15.8335 9.99967C15.3733 9.99967 15.0002 9.62658 15.0002 9.16634V7.66634C15.0002 7.11406 14.5524 6.66634 14.0002 6.66634H10.8335C10.3733 6.66634 10.0002 6.29325 10.0002 5.83301C10.0002 5.37277 10.3733 4.99967 10.8335 4.99967H11.6668C12.1271 4.99967 12.5002 4.62658 12.5002 4.16634C12.5002 3.7061 12.1271 3.33301 11.6668 3.33301H6.66683Z" fill="#94A3B8"/>
</g>
</svg>
