<svg width="16" height="17" viewBox="0 0 16 17" fill="none" xmlns="http://www.w3.org/2000/svg">
<g id="ic_parts">
<path id="Vector" d="M5.33317 7.16699H9.6665C10.2188 7.16699 10.6665 7.61471 10.6665 8.16699V11.5003C10.6665 12.0526 10.2188 12.5003 9.6665 12.5003H7.74738C7.48217 12.5003 7.22781 12.395 7.04028 12.2074L6.27598 11.4431C6.09917 11.2663 5.85936 11.167 5.60931 11.167C5.08861 11.167 4.6665 10.7449 4.6665 10.2242V7.83366M5.33317 3.16699C4.96498 3.16699 4.6665 3.46547 4.6665 3.83366C4.6665 4.20185 4.96498 4.50033 5.33317 4.50033H5.99984C6.36803 4.50033 6.6665 4.7988 6.6665 5.16699C6.6665 5.53518 6.36803 5.83366 5.99984 5.83366H5.08072C4.8155 5.83366 4.56115 5.93902 4.37361 6.12655L3.62606 6.8741C3.43853 7.06163 3.33317 7.31599 3.33317 7.58121V8.50033C3.33317 8.86852 3.03469 9.16699 2.6665 9.16699C2.29831 9.16699 1.99984 8.86852 1.99984 8.50033V7.83366C1.99984 7.46547 1.70136 7.16699 1.33317 7.16699C0.964981 7.16699 0.666504 7.46547 0.666504 7.83366V11.8337C0.666504 12.2018 0.964981 12.5003 1.33317 12.5003C1.70136 12.5003 1.99984 12.2018 1.99984 11.8337V11.167C1.99984 10.7988 2.29831 10.5003 2.6665 10.5003C3.03469 10.5003 3.33317 10.7988 3.33317 11.167V11.5003C3.33317 12.0526 3.78089 12.5003 4.33317 12.5003H4.91896C5.18417 12.5003 5.43853 12.6057 5.62606 12.7932L6.37361 13.5408C6.56115 13.7283 6.8155 13.8337 7.08072 13.8337H10.9998C11.5521 13.8337 11.9998 13.3859 11.9998 12.8337V11.8337C11.9998 11.4655 12.2983 11.167 12.6665 11.167C13.0347 11.167 13.3332 11.4655 13.3332 11.8337V12.167C13.3332 12.7193 13.7809 13.167 14.3332 13.167C14.8855 13.167 15.3332 12.7193 15.3332 12.167V7.50032C15.3332 6.94804 14.8855 6.50033 14.3332 6.50033C13.7809 6.50033 13.3332 6.94804 13.3332 7.50033V7.83366C13.3332 8.20185 13.0347 8.50033 12.6665 8.50033C12.2983 8.50033 11.9998 8.20185 11.9998 7.83366V6.83366C11.9998 6.28137 11.5521 5.83366 10.9998 5.83366H8.6665C8.29831 5.83366 7.99984 5.53518 7.99984 5.16699C7.99984 4.7988 8.29831 4.50033 8.6665 4.50033H9.33317C9.70136 4.50033 9.99984 4.20185 9.99984 3.83366C9.99984 3.46547 9.70136 3.16699 9.33317 3.16699H5.33317Z" fill="#FF7C00"/>
</g>
</svg>
