<svg width="20" height="20" viewBox="0 0 20 20" fill="none" xmlns="http://www.w3.org/2000/svg">
<g id="u:search">
<path id="Vector" d="M14.6101 13.5288L14.3286 13.8797L14.648 14.1966L17.7351 17.2587C17.7935 17.3205 17.826 17.4023 17.826 17.4874C17.826 17.5728 17.7932 17.6549 17.7345 17.7168C17.704 17.7469 17.668 17.7709 17.6284 17.7874L17.8206 18.249L17.6283 17.7875C17.5877 17.8044 17.5442 17.8131 17.5002 17.8131C17.4562 17.8131 17.4126 17.8044 17.372 17.7875L17.1797 18.249L17.372 17.7874C17.3314 17.7705 17.2945 17.7457 17.2635 17.7145L17.2621 17.713L14.1954 14.6464L13.8785 14.3295L13.529 14.6099C12.1324 15.7299 10.3598 16.2724 8.57557 16.1256C6.79135 15.9789 5.13117 15.1541 3.93639 13.8208C2.74162 12.4876 2.10307 10.7473 2.15204 8.9577C2.20101 7.16812 2.93377 5.46532 4.19967 4.19943C5.46556 2.93353 7.16837 2.20076 8.95794 2.15179C10.7475 2.10282 12.4878 2.74138 13.8211 3.93615C15.1543 5.13092 15.9791 6.79111 16.1259 8.57533C16.2726 10.3595 15.7302 12.1322 14.6101 13.5288ZM5.64822 14.4326C6.68973 15.1285 7.91422 15.4999 9.16683 15.4999C10.8465 15.4999 12.4574 14.8327 13.6452 13.6449C14.8329 12.4572 15.5002 10.8463 15.5002 9.16659C15.5002 7.91397 15.1287 6.68949 14.4328 5.64798C13.7369 4.60646 12.7478 3.7947 11.5905 3.31535C10.4332 2.83599 9.15981 2.71057 7.93126 2.95495C6.70271 3.19932 5.57422 3.80251 4.68849 4.68824C3.80276 5.57398 3.19956 6.70247 2.95519 7.93102C2.71082 9.15956 2.83624 10.433 3.31559 11.5902C3.79495 12.7475 4.60671 13.7366 5.64822 14.4326Z" fill="#334155" stroke="#475569"/>
</g>
</svg>
