<svg width="12" height="12" viewBox="0 0 12 12" fill="none" xmlns="http://www.w3.org/2000/svg">
<g id="u:wrench">
<path id="Vector" d="M1.50101 4.83687C1.50116 4.90912 1.50366 4.98147 1.50853 5.05382C1.53321 5.4208 1.61832 5.7798 1.75922 6.11671C1.83378 6.29502 1.92397 6.46713 2.02909 6.63097C2.16182 6.83784 2.31646 7.02856 2.48978 7.20013C2.7131 7.4212 2.96742 7.61047 3.24579 7.76147C3.35469 7.82055 3.4665 7.87335 3.58065 7.91973C3.98475 8.08391 4.41831 8.1677 4.85688 8.16495L4.86161 8.16492C4.86003 8.16493 4.85846 8.16497 4.85688 8.16498C4.4195 8.16785 3.9858 8.08465 3.5805 7.92011C3.46578 7.87353 3.35397 7.8207 3.24555 7.76192C2.96872 7.61185 2.71398 7.42301 2.48927 7.20065C2.31478 7.028 2.16032 6.83703 2.02836 6.63144C1.92382 6.46855 1.8334 6.29649 1.75835 6.11707C1.61668 5.77842 1.53209 5.41916 1.50752 5.05389L1.50101 4.83687ZM1.50101 4.83687L1.83317 4.83559L2.00562 5.00848C2.02546 5.32307 2.09766 5.63257 2.21962 5.92412C2.36394 6.26914 2.57511 6.58219 2.84095 6.84524C3.10679 7.10829 3.42206 7.31615 3.76858 7.45683C4.1151 7.59751 4.48603 7.66824 4.86001 7.66494M1.50101 4.83687L4.86176 8.16494C4.86251 8.16494 4.86327 8.16493 4.86403 8.16493M4.86001 7.66494L4.8635 8.16493C4.86367 8.16493 4.86385 8.16493 4.86403 8.16493M4.86001 7.66494C5.10992 7.6632 5.35859 7.62959 5.60001 7.56494L4.86403 8.16493M4.86001 7.66494L4.86442 8.16492C4.86429 8.16492 4.86416 8.16492 4.86403 8.16493M1.51056 3.02442C1.44612 3.07319 1.39446 3.13684 1.36001 3.20994C1.08677 3.79619 0.966248 4.44203 1.00965 5.08737C1.05306 5.73272 1.25898 6.3566 1.60826 6.90098C1.95755 7.44536 2.43884 7.89256 3.00738 8.20097C3.57591 8.50938 4.21322 8.66899 4.86001 8.66494C5.09512 8.6657 5.32969 8.64224 5.56001 8.59494L1.51056 3.02442ZM1.51056 3.02442C1.575 2.97566 1.6503 2.94324 1.73001 2.92994C1.8088 2.91556 1.88989 2.92031 1.96646 2.94381L1.51056 3.02442ZM3.42122 1.81314C3.4222 1.81268 3.42319 1.81222 3.42417 1.81177L4.0001 2.39213L4.44505 2.84051L3.41815 1.81598L3.41764 1.81547L3.41776 1.81474L3.41777 1.81475L3.42122 1.81314ZM5.59356 4.6935L5.94003 4.34703L5.94045 4.34745L4.35501 5.94784L4.35401 5.94684L4.34712 5.93993L4.69356 5.59349L5.59356 4.6935ZM3.02165 1.50962C2.97199 1.5741 2.93881 1.64973 2.92501 1.72994L3.02165 1.50962Z" fill="black" stroke="#FF7C00"/>
</g>
</svg>
