<svg width="12" height="12" viewBox="0 0 12 12" fill="none" xmlns="http://www.w3.org/2000/svg">
<g id="u:search">
<path id="Vector" d="M8.39468 8.2608L8.33501 8.3352L8.26062 8.39486C8.28346 8.37308 8.30607 8.351 8.32844 8.32862C8.35081 8.30625 8.37289 8.28364 8.39468 8.2608ZM1.8045 7.03093C2.0056 7.51644 2.29933 7.95509 2.6667 8.32374C2.61329 8.27053 2.56126 8.2157 2.51069 8.15927C1.82797 7.39742 1.46308 6.40295 1.49106 5.38033C1.51904 4.35772 1.93777 3.38469 2.66114 2.66132C3.38451 1.93795 4.35754 1.51923 5.38015 1.49124C6.40277 1.46326 7.39724 1.82815 8.15908 2.51088C8.21551 2.56145 8.27035 2.61348 8.32355 2.66688C7.95491 2.29952 7.51625 2.00578 7.03075 1.80468C6.29984 1.50193 5.49558 1.42271 4.71965 1.57706C3.94373 1.7314 3.231 2.11236 2.67159 2.67177C2.11218 3.23118 1.73121 3.94391 1.57687 4.71984C1.42253 5.49576 1.50174 6.30003 1.8045 7.03093Z" fill="black" stroke="#475569"/>
</g>
</svg>
