<svg width="202" height="885" viewBox="0 0 202 885" fill="none" xmlns="http://www.w3.org/2000/svg">
<g id="Group 1437255170">
<rect id="Rectangle 13066" x="0.5" y="0.5" width="201" height="884" rx="11.5" fill="white" stroke="#CBDFFF"/>
<g id="Group 1437255055">
<rect id="Inactive Track" x="18" y="526.329" width="166" height="3.44129" fill="#CBD5E1"/>
<g id="Active Track">
<rect width="46.3604" height="3.44129" transform="translate(18 526.329)" fill="#5797FF"/>
</g>
<path id="100&#236;&#160;&#144;" d="M21.4805 540.792V548.569H20.5029V541.802H20.46L18.5693 543.059V542.081L20.5029 540.792H21.4805ZM26.0996 548.677C24.3701 548.677 23.3818 547.227 23.3818 544.681C23.3818 542.156 24.3916 540.685 26.0996 540.685C27.8076 540.685 28.8174 542.156 28.8174 544.681C28.8174 547.227 27.8184 548.677 26.0996 548.677ZM26.0996 547.817C27.2168 547.817 27.8721 546.689 27.8721 544.681C27.8721 542.672 27.2168 541.522 26.0996 541.522C24.9824 541.522 24.3164 542.672 24.3164 544.681C24.3164 546.689 24.9717 547.817 26.0996 547.817ZM32.6523 548.677C30.9229 548.677 29.9346 547.227 29.9346 544.681C29.9346 542.156 30.9443 540.685 32.6523 540.685C34.3604 540.685 35.3701 542.156 35.3701 544.681C35.3701 547.227 34.3711 548.677 32.6523 548.677ZM32.6523 547.817C33.7695 547.817 34.4248 546.689 34.4248 544.681C34.4248 542.672 33.7695 541.522 32.6523 541.522C31.5352 541.522 30.8691 542.672 30.8691 544.681C30.8691 546.689 31.5244 547.817 32.6523 547.817ZM44.2324 539.89V545.486H43.3838V542.994H41.4502V542.285H43.3838V539.89H44.2324ZM44.2324 545.959V549.311H37.9912V545.959H44.2324ZM38.8291 546.636V548.623H43.4053V546.636H38.8291ZM39.6348 541.587C39.6348 542.822 40.5908 544.015 41.9873 544.509L41.5469 545.175C40.4673 544.788 39.6348 543.982 39.2266 542.994C38.813 544.095 37.9321 544.976 36.7988 545.39L36.3584 544.724C37.7656 544.219 38.7861 542.951 38.7861 541.587V541.211H36.627V540.513H41.7725V541.211H39.6348V541.587Z" fill="#94A3B8"/>
<path id="Vector 5420" d="M18 522.888V533.212" stroke="#94A3B8"/>
<path id="Vector 5421" d="M184 522.888V533.212" stroke="#94A3B8"/>
<path id="0&#236;&#160;&#144;" d="M171.217 548.677C169.487 548.677 168.499 547.227 168.499 544.681C168.499 542.156 169.509 540.685 171.217 540.685C172.925 540.685 173.935 542.156 173.935 544.681C173.935 547.227 172.936 548.677 171.217 548.677ZM171.217 547.817C172.334 547.817 172.989 546.689 172.989 544.681C172.989 542.672 172.334 541.522 171.217 541.522C170.1 541.522 169.434 542.672 169.434 544.681C169.434 546.689 170.089 547.817 171.217 547.817ZM182.797 539.89V545.486H181.948V542.994H180.015V542.285H181.948V539.89H182.797ZM182.797 545.959V549.311H176.556V545.959H182.797ZM177.394 546.636V548.623H181.97V546.636H177.394ZM178.199 541.587C178.199 542.822 179.155 544.015 180.552 544.509L180.111 545.175C179.032 544.788 178.199 543.982 177.791 542.994C177.377 544.095 176.497 544.976 175.363 545.39L174.923 544.724C176.33 544.219 177.351 542.951 177.351 541.587V541.211H175.191V540.513H180.337V541.211H178.199V541.587Z" fill="#94A3B8"/>
<path id="Vector 5422" d="M101 522.888V533.212" stroke="#94A3B8"/>
<g id="Frame 1198" filter="url(#filter0_d_1354_29687)">
<rect id="Rectangle 13108" x="19" y="521.307" width="12.955" height="13.4858" rx="6.47748" fill="#5797FF" stroke="white" stroke-width="2"/>
<path id="Vector 5423" d="M25.4766 526.114V529.986" stroke="#DCE9FF" stroke-width="2" stroke-linecap="round"/>
</g>
<g id="Frame 1202" filter="url(#filter1_d_1354_29687)">
<rect id="Rectangle 13108_2" x="57.8828" y="521.307" width="12.955" height="13.4858" rx="6.47748" fill="#5797FF" stroke="white" stroke-width="2"/>
<path id="Vector 5423_2" d="M64.3594 526.114V529.986" stroke="#DCE9FF" stroke-width="2" stroke-linecap="round"/>
</g>
</g>
<g id="Group 1437255097">
<rect id="Inactive Track_2" x="17" y="692.485" width="166" height="3.44129" fill="#CBD5E1"/>
<g id="Active Track_2">
<rect width="46.3604" height="3.44129" transform="translate(17 692.485)" fill="#5797FF"/>
</g>
<path id="0&#236;&#155;&#144;" d="M20.2764 714.741C18.5469 714.741 17.5586 713.291 17.5586 710.745C17.5586 708.221 18.5684 706.749 20.2764 706.749C21.9844 706.749 22.9941 708.221 22.9941 710.745C22.9941 713.291 21.9951 714.741 20.2764 714.741ZM20.2764 713.882C21.3936 713.882 22.0488 712.754 22.0488 710.745C22.0488 708.736 21.3936 707.587 20.2764 707.587C19.1592 707.587 18.4932 708.736 18.4932 710.745C18.4932 712.754 19.1484 713.882 20.2764 713.882ZM31.8135 705.965V713.216H30.9648V712.228H28.9883V711.615H30.9648V705.965H31.8135ZM32.0498 714.591V715.3H25.2607V712.507H26.1094V714.591H32.0498ZM23.8857 710.391C25.6689 710.38 28.0537 710.369 30.1055 710.111L30.1592 710.724C29.3052 710.858 28.4136 710.944 27.5381 710.992V712.883H26.6895V711.035C25.7227 711.078 24.8042 711.083 24.0039 711.078L23.8857 710.391ZM27.0225 706.352C28.4189 706.352 29.375 707.018 29.3857 708.017C29.375 709.037 28.4189 709.671 27.0225 709.671C25.6152 709.671 24.6592 709.037 24.6592 708.017C24.6592 707.018 25.6152 706.352 27.0225 706.352ZM27.0225 706.996C26.0879 706.985 25.4541 707.404 25.4648 708.017C25.4541 708.64 26.0879 709.048 27.0225 709.048C27.9248 709.048 28.5693 708.64 28.5801 708.017C28.5693 707.404 27.9248 706.985 27.0225 706.996Z" fill="#94A3B8"/>
<path id="Vector 5420_2" d="M17 689.044V699.368" stroke="#94A3B8"/>
<path id="Vector 5421_2" d="M183 689.044V699.368" stroke="#94A3B8"/>
<path id="500&#235;&#167;&#140;&#236;&#155;&#144;" d="M147.583 714.741C146.176 714.741 145.112 713.871 145.059 712.679H145.993C146.068 713.377 146.745 713.893 147.583 713.893C148.593 713.893 149.323 713.151 149.323 712.174C149.323 711.164 148.561 710.423 147.519 710.412C146.863 710.401 146.358 710.605 146.068 711.11H145.134L145.682 706.856H149.893V707.716H146.487L146.197 709.993H146.272C146.616 709.725 147.143 709.542 147.69 709.542C149.173 709.542 150.269 710.638 150.269 712.152C150.269 713.656 149.13 714.741 147.583 714.741ZM154.157 714.741C152.428 714.741 151.439 713.291 151.439 710.745C151.439 708.221 152.449 706.749 154.157 706.749C155.865 706.749 156.875 708.221 156.875 710.745C156.875 713.291 155.876 714.741 154.157 714.741ZM154.157 713.882C155.274 713.882 155.93 712.754 155.93 710.745C155.93 708.736 155.274 707.587 154.157 707.587C153.04 707.587 152.374 708.736 152.374 710.745C152.374 712.754 153.029 713.882 154.157 713.882ZM160.71 714.741C158.98 714.741 157.992 713.291 157.992 710.745C157.992 708.221 159.002 706.749 160.71 706.749C162.418 706.749 163.428 708.221 163.428 710.745C163.428 713.291 162.429 714.741 160.71 714.741ZM160.71 713.882C161.827 713.882 162.482 712.754 162.482 710.745C162.482 708.736 161.827 707.587 160.71 707.587C159.593 707.587 158.927 708.736 158.927 710.745C158.927 712.754 159.582 713.882 160.71 713.882ZM169.196 706.824V711.218H164.781V706.824H169.196ZM165.608 707.512V710.541H168.38V707.512H165.608ZM171.839 705.954V708.865H173.278V709.574H171.839V712.958H171.001V705.954H171.839ZM172.279 714.591V715.3H165.866V712.292H166.693V714.591H172.279ZM181.754 705.965V713.216H180.905V712.228H178.929V711.615H180.905V705.965H181.754ZM181.99 714.591V715.3H175.201V712.507H176.05V714.591H181.99ZM173.826 710.391C175.609 710.38 177.994 710.369 180.046 710.111L180.1 710.724C179.246 710.858 178.354 710.944 177.479 710.992V712.883H176.63V711.035C175.663 711.078 174.745 711.083 173.944 711.078L173.826 710.391ZM176.963 706.352C178.359 706.352 179.315 707.018 179.326 708.017C179.315 709.037 178.359 709.671 176.963 709.671C175.556 709.671 174.6 709.037 174.6 708.017C174.6 707.018 175.556 706.352 176.963 706.352ZM176.963 706.996C176.028 706.985 175.395 707.404 175.405 708.017C175.395 708.64 176.028 709.048 176.963 709.048C177.865 709.048 178.51 708.64 178.521 708.017C178.51 707.404 177.865 706.985 176.963 706.996Z" fill="#94A3B8"/>
<path id="Vector 5422_2" d="M100 689.044V699.368" stroke="#94A3B8"/>
<g id="Frame 1198_2" filter="url(#filter2_d_1354_29687)">
<rect id="Rectangle 13108_3" x="18" y="687.463" width="12.955" height="13.4858" rx="6.47748" fill="#5797FF" stroke="white" stroke-width="2"/>
<path id="Vector 5423_3" d="M24.4766 692.271V696.142" stroke="#DCE9FF" stroke-width="2" stroke-linecap="round"/>
</g>
<g id="Frame 1202_2" filter="url(#filter3_d_1354_29687)">
<rect id="Rectangle 13108_4" x="56.8828" y="687.463" width="12.955" height="13.4858" rx="6.47748" fill="#5797FF" stroke="white" stroke-width="2"/>
<path id="Vector 5423_4" d="M63.3594 692.271V696.142" stroke="#DCE9FF" stroke-width="2" stroke-linecap="round"/>
</g>
</g>
<path id="&#236;&#160;&#144;&#236;&#136;&#152; &#235;&#178;&#148;&#236;&#156;&#132;" d="M26.144 497.496V503.616H25.04V500.976H23.048V500.064H25.04V497.496H26.144ZM17.384 502.68C19.016 502.128 20.012 500.724 20.024 499.272V499.032H17.744V498.12H23.408V499.032H21.152V499.296C21.14 500.592 22.088 501.9 23.672 502.464L23.096 503.328C21.92 502.92 21.056 502.068 20.6 501.036C20.132 502.188 19.22 503.112 17.96 503.544L17.384 502.68ZM19.208 507.864V504.096H26.144V507.864H19.208ZM20.312 506.952H25.04V504.984H20.312V506.952ZM33.1311 498.408C33.1311 499.812 34.8351 501.12 36.8991 501.408L36.4671 502.32C34.7391 502.044 33.2391 501.144 32.5551 499.896C31.8711 501.144 30.3711 502.044 28.6671 502.32L28.2111 501.408C30.2751 501.12 31.9671 499.836 31.9791 498.408V497.856H33.1311V498.408ZM27.7551 504.264V503.328H37.3311V504.264H33.0591V507.984H31.9791V504.264H27.7551ZM42.6639 498.096V499.68H45.3039V498.096H46.4079V500.088H48.7119V497.496H49.8159V503.592H48.7119V501.024H46.4079V503.04H41.5599V498.096H42.6639ZM42.6639 502.152H45.3039V500.544H42.6639V502.152ZM42.8799 507.864V504.072H49.8159V507.864H42.8799ZM43.9839 506.952H48.7119V504.96H43.9839V506.952ZM54.883 497.976C56.455 497.976 57.595 498.852 57.595 500.16C57.595 501.444 56.455 502.332 54.883 502.32C53.299 502.332 52.159 501.444 52.171 500.16C52.159 498.852 53.299 497.976 54.883 497.976ZM51.427 503.136C53.359 503.148 56.035 503.1 58.339 502.752L58.411 503.592C57.463 503.772 56.467 503.88 55.507 503.952V507.672H54.379V504.012C53.359 504.06 52.399 504.072 51.571 504.072L51.427 503.136ZM53.251 500.16C53.239 500.916 53.923 501.42 54.883 501.408C55.855 501.42 56.539 500.916 56.539 500.16C56.539 499.392 55.855 498.876 54.883 498.888C53.923 498.876 53.239 499.392 53.251 500.16ZM59.059 508.008V497.496H60.163V508.008H59.059Z" fill="#334155"/>
<path id="&#234;&#176;&#128;&#234;&#178;&#169; &#235;&#178;&#148;&#236;&#156;&#132;" d="M25.568 663.496V667.672H27.2V668.608H25.568V673.984H24.464V663.496H25.568ZM17.384 671.176C20.024 669.868 21.452 667.984 21.692 665.536H17.912V664.6H22.832C22.82 667.636 21.476 670.348 18.008 672.04L17.384 671.176ZM33.3231 664.192C33.3231 664.588 33.2871 664.96 33.2031 665.32H35.4111V663.496H36.5151V669.76H35.4111V668.44H32.7471V667.528H35.4111V666.208H32.9271C32.2191 667.864 30.5991 669.04 28.3311 669.664L27.8991 668.776C30.3951 668.092 31.9191 666.76 32.1231 665.104H28.4751V664.192H33.3231ZM29.3871 671.08V670.216H36.5151V673.984H35.4111V671.08H29.3871ZM42.6639 664.096V665.68H45.3039V664.096H46.4079V666.088H48.7119V663.496H49.8159V669.592H48.7119V667.024H46.4079V669.04H41.5599V664.096H42.6639ZM42.6639 668.152H45.3039V666.544H42.6639V668.152ZM42.8799 673.864V670.072H49.8159V673.864H42.8799ZM43.9839 672.952H48.7119V670.96H43.9839V672.952ZM54.883 663.976C56.455 663.976 57.595 664.852 57.595 666.16C57.595 667.444 56.455 668.332 54.883 668.32C53.299 668.332 52.159 667.444 52.171 666.16C52.159 664.852 53.299 663.976 54.883 663.976ZM51.427 669.136C53.359 669.148 56.035 669.1 58.339 668.752L58.411 669.592C57.463 669.772 56.467 669.88 55.507 669.952V673.672H54.379V670.012C53.359 670.06 52.399 670.072 51.571 670.072L51.427 669.136ZM53.251 666.16C53.239 666.916 53.923 667.42 54.883 667.408C55.855 667.42 56.539 666.916 56.539 666.16C56.539 665.392 55.855 664.876 54.883 664.888C53.923 664.876 53.239 665.392 53.251 666.16ZM59.059 674.008V663.496H60.163V674.008H59.059Z" fill="#334155"/>
<path id="&#237;&#149;&#132;&#237;&#132;&#176;" d="M29.352 455.2V462.528H27.368V455.2H29.352ZM17.672 460.672L19.176 460.656V457.6H18.024V456.096H25.768V457.6H24.584V460.448C25.176 460.4 25.752 460.352 26.312 460.288L26.408 461.696C23.576 462.16 20.344 462.24 17.864 462.24L17.672 460.672ZM19.688 464.608V463.072H29.352V466.88H21.704V467.776H29.768V469.344H19.72V465.44H27.4V464.608H19.688ZM21.096 460.624L22.664 460.56V457.6H21.096V460.624ZM43.2441 455.2V469.472H41.2921V461.856H38.7641V460.256H41.2921V455.2H43.2441ZM31.9161 466.24V456.416H38.5401V458.016H33.9001V460.384H38.0281V461.952H33.9001V464.608C35.8681 464.608 37.4521 464.544 39.2121 464.256L39.4041 465.856C37.3241 466.176 35.4681 466.24 33.0361 466.24H31.9161Z" fill="#334155"/>
<path id="&#236;&#160;&#132;&#236;&#178;&#180; &#236;&#185;&#180;&#237;&#133;&#140;&#234;&#179;&#160;&#235;&#166;&#172;" d="M33.416 27.4322V37.8002H31.432V32.7122H29.096V31.1122H31.432V27.4322H33.416ZM21.352 34.6002C23.688 33.8802 24.76 32.0242 24.776 30.1842V29.9922H21.896V28.3922H29.608V29.9922H26.792V30.2162C26.792 31.8642 27.8 33.6242 30.056 34.3762L29.064 35.9442C27.496 35.4162 26.408 34.3922 25.8 33.1122C25.176 34.5362 24.04 35.6722 22.376 36.2322L21.352 34.6002ZM23.976 41.3842V36.9042H25.96V39.7842H33.736V41.3842H23.976ZM39.6921 31.7522C39.6921 33.9122 40.4601 36.0722 42.4761 37.1602L41.3881 38.6002C40.1081 37.9442 39.2601 36.7922 38.7641 35.4162C38.2681 36.9202 37.4361 38.2002 36.1401 38.9522L34.9881 37.4482C37.0361 36.2642 37.8041 33.9442 37.8041 31.7522V31.4322H35.5321V29.8322H37.8041V27.9122H39.6601V29.8322H41.9321V31.4322H39.6921V31.7522ZM41.1001 34.4402V32.8082H42.7641V27.6562H44.6201V40.9682H42.7641V34.4402H41.1001ZM45.6441 41.6402V27.4002H47.5321V41.6402H45.6441ZM60.1838 28.7762C60.1678 33.1602 59.1118 36.8242 53.7838 39.4962L52.6958 37.9922C55.0798 36.8082 56.4878 35.4802 57.2878 33.8962L53.0798 34.3122L52.8558 32.5842L57.8958 32.2802C58.0398 31.6882 58.1358 31.0482 58.1838 30.3762H53.5918V28.7762H60.1838ZM61.9758 41.6082V27.4002H63.9918V32.8722H66.0078V34.5042H63.9918V41.6082H61.9758ZM72.3479 29.0002V30.5682H68.9239V32.8082H71.8039V34.3442H68.9239V36.9042C70.4439 36.8722 71.5639 36.7922 72.8919 36.5842L73.0519 38.1842C71.4359 38.4722 70.0759 38.5042 67.9959 38.5042H67.0359V29.0002H72.3479ZM72.4439 34.2162V32.6162H74.0439V27.6562H75.8999V41.0002H74.0439V34.2162H72.4439ZM76.9879 41.6402V27.4002H78.9079V41.6402H76.9879ZM92.128 28.6482V29.9922C92.128 31.7682 92.128 33.7682 91.584 36.8082L89.568 36.5842C90.096 33.9122 90.128 31.9282 90.144 30.2482H81.76V28.6482H92.128ZM80.416 39.9122V38.2802H85.056V33.3842H87.04V38.2802H93.408V39.9122H80.416ZM106.18 27.4002V41.6722H104.196V27.4002H106.18ZM95.0121 38.3442V32.5202H99.7161V30.2162H95.0121V28.6162H101.764V34.0882H97.0601V36.7122C99.2361 36.6962 101.076 36.5842 103.172 36.2322L103.332 37.8322C101.012 38.2482 98.9001 38.3442 96.2921 38.3442H95.0121Z" fill="#334155"/>
<g id="Group 1437255100">
<g id="Group 1437255101">
<g id="u:angle-right">
<path id="Vector" d="M29.0039 269.762L29.0039 269.762L29.0053 269.764C29.0366 269.795 29.0614 269.832 29.0783 269.872C29.0952 269.913 29.1039 269.956 29.1039 270C29.1039 270.044 29.0952 270.088 29.0783 270.129C29.0614 270.169 29.0366 270.206 29.0053 270.237L29.0039 270.239L25.472 273.77C25.4718 273.771 25.4716 273.771 25.4714 273.771C25.4404 273.802 25.4036 273.826 25.3633 273.842C25.3227 273.859 25.2792 273.867 25.2353 273.867L25.2353 273.867L25.2295 273.867C25.1857 273.867 25.1422 273.859 25.1016 273.842C25.0615 273.826 25.025 273.802 24.9941 273.772C24.9328 273.709 24.8984 273.625 24.8984 273.538C24.8984 273.45 24.9331 273.366 24.995 273.303C24.9951 273.303 24.9952 273.303 24.9954 273.303L27.9443 270.354L28.2979 270L27.9443 269.647L24.9954 266.698C24.9952 266.698 24.9951 266.698 24.995 266.697C24.9331 266.635 24.8984 266.551 24.8984 266.463C24.8984 266.375 24.9333 266.29 24.9954 266.228L24.9958 266.228C25.0268 266.196 25.0636 266.171 25.1042 266.155C25.1449 266.138 25.1884 266.129 25.2324 266.129C25.2764 266.129 25.32 266.138 25.3606 266.155C25.4012 266.171 25.4381 266.196 25.4691 266.228L25.4691 266.228L25.4705 266.229L29.0039 269.762Z" fill="#64748B" stroke="#64748B"/>
</g>
<path id="&#235;&#147;&#156;&#235;&#161;&#160; &#236;&#163;&#188;&#236;&#154;&#148; &#235;&#182;&#128;&#237;&#146;&#136;" d="M47.904 269.488V270.376H40.584V265.432H47.808V266.344H41.688V269.488H47.904ZM39.384 273.616V272.68H49.008V273.616H39.384ZM59.3551 270.424V271.336H49.7551V270.424H54.0031V269.392H50.9791V266.704H57.0271V265.672H50.9551V264.808H58.1551V267.496H52.0831V268.528H58.3471V269.392H55.1071V270.424H59.3551ZM51.0031 274.936V271.984H52.1071V274.024H58.3711V274.936H51.0031ZM72.6319 270.4V271.312H68.3599V274.984H67.2799V271.312H63.0559V270.4H72.6319ZM63.5839 268.744C65.5639 268.468 67.1839 267.292 67.2079 266.008H63.9439V265.12H71.7439V266.008H68.4799C68.4919 267.292 70.1119 268.468 72.1039 268.744L71.6959 269.608C69.9799 269.344 68.4919 268.504 67.8439 267.316C67.1959 268.504 65.7199 269.344 64.0159 269.608L63.5839 268.744ZM83.051 272.752V273.688H73.427V272.752H75.731V270.016C74.867 269.548 74.339 268.792 74.339 267.856C74.339 266.2 75.959 265.108 78.203 265.096C80.471 265.108 82.091 266.2 82.091 267.856C82.091 268.768 81.587 269.512 80.747 269.992V272.752H83.051ZM75.419 267.856C75.419 268.972 76.559 269.704 78.203 269.704C79.847 269.704 81.011 268.972 81.011 267.856C81.011 266.716 79.847 265.996 78.203 266.008C76.559 265.996 75.419 266.716 75.419 267.856ZM76.835 272.752H79.619V270.412C79.187 270.52 78.707 270.568 78.203 270.568C77.711 270.568 77.255 270.52 76.835 270.424V272.752ZM96.3278 270.664V271.552H92.0318V274.984H90.9518V271.552H86.7278V270.664H96.3278ZM87.9038 269.488V264.928H89.0078V266.296H94.0238V264.928H95.1278V269.488H87.9038ZM89.0078 268.576H94.0238V267.184H89.0078V268.576ZM106.675 269.512V270.424H102.427V271.552H105.499V274.864H98.2508V271.552H101.323V270.424H97.0988V269.512H106.675ZM97.9868 265.72V264.808H105.787V265.72H104.251V267.736H105.739V268.624H98.0348V267.736H99.5228V265.72H97.9868ZM99.3548 273.952H104.419V272.416H99.3548V273.952ZM100.627 267.736H103.147V265.72H100.627V267.736Z" fill="#64748B"/>
</g>
<path id="&#236;&#150;&#145;&#236;&#130;&#176;&#237;&#152;&#149; &#235;&#147;&#156;&#235;&#161;&#160;" d="M49.128 112.984V113.896H47.64V115.24H49.128V116.152H47.64V117.688H46.536V111.496H47.64V112.984H49.128ZM39.552 114.592C39.54 113.128 40.728 112.108 42.336 112.12C43.944 112.108 45.132 113.128 45.144 114.592C45.132 116.068 43.944 117.088 42.336 117.088C40.728 117.088 39.54 116.068 39.552 114.592ZM40.632 114.592C40.632 115.54 41.352 116.152 42.336 116.152C43.32 116.152 44.052 115.54 44.064 114.592C44.052 113.68 43.32 113.044 42.336 113.056C41.352 113.044 40.632 113.68 40.632 114.592ZM40.728 119.992C40.728 118.72 42.084 117.988 44.256 117.976C46.392 117.988 47.736 118.72 47.736 119.992C47.736 121.24 46.392 121.984 44.256 121.984C42.084 121.984 40.728 121.24 40.728 119.992ZM41.832 119.992C41.832 120.7 42.732 121.084 44.256 121.096C45.756 121.084 46.644 120.7 46.656 119.992C46.644 119.272 45.756 118.876 44.256 118.864C42.732 118.876 41.832 119.272 41.832 119.992ZM53.4031 113.416C53.4031 114.82 54.3871 116.152 55.9711 116.68L55.3951 117.568C54.2191 117.148 53.3551 116.32 52.8871 115.264C52.4311 116.44 51.5191 117.352 50.2831 117.808L49.6831 116.92C51.3391 116.368 52.2991 114.952 52.2991 113.392V112.144H53.4031V113.416ZM51.3631 121.768V118.48H52.4911V120.88H58.4671V121.768H51.3631ZM56.9071 119.224V111.496H58.0111V114.64H59.5231V115.6H58.0111V119.224H56.9071ZM66.0542 112.6V113.488H60.1502V112.6H62.5982V111.4H63.7022V112.6H66.0542ZM60.7262 115.936C60.7262 114.748 61.7102 113.968 63.1502 113.968C64.5542 113.968 65.5622 114.748 65.5742 115.936C65.5622 117.1 64.5542 117.868 63.1502 117.88C61.7102 117.868 60.7262 117.1 60.7262 115.936ZM61.7822 115.936C61.7582 116.608 62.3102 117.028 63.1502 117.04C63.9542 117.028 64.5182 116.608 64.5422 115.936C64.5182 115.24 63.9542 114.808 63.1502 114.808C62.3102 114.808 61.7582 115.24 61.7822 115.936ZM61.8302 120.184C61.8182 119.02 63.1742 118.36 65.3822 118.36C67.5902 118.36 68.9342 119.02 68.9342 120.184C68.9342 121.312 67.5902 121.984 65.3822 121.984C63.1742 121.984 61.8182 121.312 61.8302 120.184ZM62.9822 120.184C62.9822 120.784 63.8822 121.132 65.3822 121.12C66.8702 121.132 67.7582 120.784 67.7582 120.184C67.7582 119.548 66.8702 119.224 65.3822 119.224C63.8822 119.224 62.9822 119.548 62.9822 120.184ZM66.0782 116.92V116.008H67.7822V114.856H66.0782V113.944H67.7822V111.496H68.8862V118.264H67.7822V116.92H66.0782ZM81.947 116.488V117.376H74.627V112.432H81.851V113.344H75.731V116.488H81.947ZM73.427 120.616V119.68H83.051V120.616H73.427ZM93.3981 117.424V118.336H83.7981V117.424H88.0461V116.392H85.0221V113.704H91.0701V112.672H84.9981V111.808H92.1981V114.496H86.1261V115.528H92.3901V116.392H89.1501V117.424H93.3981ZM85.0461 121.936V118.984H86.1501V121.024H92.4141V121.936H85.0461Z" fill="#64748B"/>
<path id="&#237;&#138;&#185;&#236;&#136;&#152; &#235;&#170;&#169;&#236;&#160;&#129; &#235;&#147;&#156;&#235;&#161;&#160;" d="M49.056 151.968V153.12H39.288V151.968H49.056ZM40.392 155.016V153.84H47.856V157.08H46.344V155.016H40.392ZM40.512 151.272V146.664H47.904V147.816H42V148.392H47.664V149.496H42V150.144H48V151.272H40.512ZM55.3471 147.24C55.3471 148.5 56.6311 149.892 59.0671 150.192L58.4911 151.416C56.6191 151.14 55.2511 150.276 54.5671 149.112C53.8711 150.276 52.5031 151.14 50.6431 151.416L50.0671 150.192C52.4911 149.892 53.7751 148.5 53.7631 147.24V146.736H55.3471V147.24ZM49.6831 153.432V152.208H59.4271V153.432H55.2751V157.08H53.7871V153.432H49.6831ZM71.3158 146.832V150.6H68.4358V151.608H72.5638V152.808H62.8198V151.608H66.9238V150.6H64.0198V146.832H71.3158ZM63.8998 154.776V153.6H71.3638V157.08H69.8758V154.776H63.8998ZM65.4838 149.424H69.8518V148.008H65.4838V149.424ZM79.3349 147V148.2H77.2229C77.2349 149.448 77.9909 150.732 79.6709 151.296L78.9269 152.448C77.7509 152.076 76.9469 151.308 76.4789 150.348C76.0109 151.416 75.1589 152.268 73.9109 152.664L73.1429 151.488C74.8829 150.924 75.6869 149.532 75.7109 148.2H73.5509V147H79.3349ZM74.8469 154.44V153.24H82.1909V157.08H80.7029V154.44H74.8469ZM79.0469 150.192V148.968H80.7029V146.4H82.1909V152.76H80.7029V150.192H79.0469ZM95.0156 151.344V152.544H87.4796V147.312H94.9436V148.512H88.9676V151.344H95.0156ZM86.3276 155.784V154.56H96.0956V155.784H86.3276ZM106.443 152.304V153.504H96.6987V152.304H100.827V151.488H97.8987V148.56H103.779V147.792H97.8987V146.64H105.267V149.592H99.3867V150.36H105.459V151.488H102.315V152.304H106.443ZM97.9227 157.128V154.056H99.4107V155.952H105.507V157.128H97.9227Z" fill="#5797FF"/>
<path id="&#234;&#181;&#144;&#236;&#156;&#161;&#236;&#154;&#169; &#235;&#147;&#156;&#235;&#161;&#160;" d="M47.928 217.504V218.632C47.904 219.952 47.904 221.332 47.544 223.336L46.44 223.216C46.812 221.32 46.812 219.916 46.8 218.632V218.416H40.368V217.504H47.928ZM39.384 225.568V224.656H41.64V221.248H42.768V224.656H44.28V221.248H45.36V224.656H48.96V225.568H39.384ZM59.3311 221.512V222.4H56.8591V223.624H58.1551V226.984H57.0271V224.488H50.8111V223.624H52.2031V222.4H49.7551V221.512H59.3311ZM50.7871 218.752C50.7871 217.492 52.2391 216.724 54.5311 216.736C56.8351 216.724 58.2871 217.492 58.2751 218.752C58.2871 220.024 56.8351 220.792 54.5311 220.792C52.2391 220.792 50.7871 220.024 50.7871 218.752ZM51.9391 218.752C51.9271 219.496 52.9231 219.916 54.5311 219.928C56.1511 219.916 57.1471 219.496 57.1471 218.752C57.1471 218.032 56.1511 217.6 54.5311 217.6C52.9231 217.6 51.9271 218.032 51.9391 218.752ZM53.3071 223.624H55.7551V222.4H53.3071V223.624ZM69.7022 221.608V222.52H60.1262V221.608H62.4302V220.216C61.6142 219.88 61.1582 219.352 61.1582 218.656C61.1582 217.408 62.5982 216.676 64.9022 216.688C67.2062 216.676 68.6582 217.408 68.6462 218.656C68.6582 219.352 68.1902 219.88 67.3742 220.216V221.608H69.7022ZM61.2542 225.088C61.2662 223.9 62.6222 223.228 64.9022 223.24C67.1702 223.228 68.5262 223.9 68.5262 225.088C68.5262 226.312 67.1702 226.972 64.9022 226.984C62.6222 226.972 61.2662 226.312 61.2542 225.088ZM62.3102 218.656C62.2982 219.352 63.2702 219.748 64.9022 219.76C66.5342 219.748 67.5182 219.352 67.5182 218.656C67.5182 217.948 66.5342 217.54 64.9022 217.552C63.2702 217.54 62.2982 217.948 62.3102 218.656ZM62.4062 225.088C62.3822 225.76 63.3062 226.132 64.9022 226.12C66.4982 226.132 67.4102 225.76 67.4222 225.088C67.4102 224.452 66.4982 224.092 64.9022 224.08C63.3062 224.092 62.3822 224.452 62.4062 225.088ZM63.5582 221.608H66.2702V220.504C65.8622 220.564 65.3942 220.6 64.9022 220.6C64.4102 220.6 63.9662 220.564 63.5582 220.504V221.608ZM81.947 221.488V222.376H74.627V217.432H81.851V218.344H75.731V221.488H81.947ZM73.427 225.616V224.68H83.051V225.616H73.427ZM93.3981 222.424V223.336H83.7981V222.424H88.0461V221.392H85.0221V218.704H91.0701V217.672H84.9981V216.808H92.1981V219.496H86.1261V220.528H92.3901V221.392H89.1501V222.424H93.3981ZM85.0461 226.936V223.984H86.1501V226.024H92.4141V226.936H85.0461Z" fill="#64748B"/>
<path id="&#235;&#176;&#169;&#236;&#160;&#156;&#236;&#154;&#169; &#235;&#147;&#156;&#235;&#161;&#160;" d="M44.256 192.048C46.416 192.036 47.736 192.756 47.736 194.016C47.736 195.264 46.416 195.984 44.256 195.984C42.06 195.984 40.728 195.264 40.728 194.016C40.728 192.756 42.06 192.036 44.256 192.048ZM39.792 191.016V186.144H40.896V187.656H43.632V186.144H44.736V191.016H39.792ZM40.896 190.128H43.632V188.544H40.896V190.128ZM41.832 194.016C41.832 194.712 42.732 195.108 44.256 195.12C45.756 195.108 46.644 194.712 46.656 194.016C46.644 193.308 45.756 192.912 44.256 192.912C42.732 192.912 41.832 193.308 41.832 194.016ZM46.536 191.76V185.496H47.64V188.064H49.152V189H47.64V191.76H46.536ZM58.7551 185.496V195.984H57.6991V185.496H58.7551ZM49.6111 193.104C51.0871 192.204 51.8551 190.296 51.8431 188.424V187.584H49.9231V186.672H54.7231V187.584H52.9231V188.424C52.9231 190.224 53.6431 192.012 55.1311 192.864L54.4591 193.68C53.4511 193.08 52.7671 192.024 52.3951 190.752C52.0231 192.12 51.3151 193.284 50.2831 193.92L49.6111 193.104ZM53.9551 190.128V189.216H55.5871V185.712H56.6431V195.456H55.5871V190.128H53.9551ZM69.7022 190.608V191.52H60.1262V190.608H62.4302V189.216C61.6142 188.88 61.1582 188.352 61.1582 187.656C61.1582 186.408 62.5982 185.676 64.9022 185.688C67.2062 185.676 68.6582 186.408 68.6462 187.656C68.6582 188.352 68.1902 188.88 67.3742 189.216V190.608H69.7022ZM61.2542 194.088C61.2662 192.9 62.6222 192.228 64.9022 192.24C67.1702 192.228 68.5262 192.9 68.5262 194.088C68.5262 195.312 67.1702 195.972 64.9022 195.984C62.6222 195.972 61.2662 195.312 61.2542 194.088ZM62.3102 187.656C62.2982 188.352 63.2702 188.748 64.9022 188.76C66.5342 188.748 67.5182 188.352 67.5182 187.656C67.5182 186.948 66.5342 186.54 64.9022 186.552C63.2702 186.54 62.2982 186.948 62.3102 187.656ZM62.4062 194.088C62.3822 194.76 63.3062 195.132 64.9022 195.12C66.4982 195.132 67.4102 194.76 67.4222 194.088C67.4102 193.452 66.4982 193.092 64.9022 193.08C63.3062 193.092 62.3822 193.452 62.4062 194.088ZM63.5582 190.608H66.2702V189.504C65.8622 189.564 65.3942 189.6 64.9022 189.6C64.4102 189.6 63.9662 189.564 63.5582 189.504V190.608ZM81.947 190.488V191.376H74.627V186.432H81.851V187.344H75.731V190.488H81.947ZM73.427 194.616V193.68H83.051V194.616H73.427ZM93.3981 191.424V192.336H83.7981V191.424H88.0461V190.392H85.0221V187.704H91.0701V186.672H84.9981V185.808H92.1981V188.496H86.1261V189.528H92.3901V190.392H89.1501V191.424H93.3981ZM85.0461 195.936V192.984H86.1501V195.024H92.4141V195.936H85.0461Z" fill="#64748B"/>
<g id="Group 1437255102">
<g id="u:angle-right_2">
<path id="Vector_2" d="M29.0039 308.762L29.0039 308.762L29.0053 308.764C29.0366 308.795 29.0614 308.832 29.0783 308.872C29.0952 308.913 29.1039 308.956 29.1039 309C29.1039 309.044 29.0952 309.088 29.0783 309.129C29.0614 309.169 29.0366 309.206 29.0053 309.237L29.0039 309.239L25.472 312.77C25.4718 312.771 25.4716 312.771 25.4714 312.771C25.4404 312.802 25.4036 312.826 25.3633 312.842C25.3227 312.859 25.2792 312.867 25.2353 312.867L25.2353 312.867L25.2295 312.867C25.1857 312.867 25.1422 312.859 25.1016 312.842C25.0615 312.826 25.025 312.802 24.9941 312.772C24.9328 312.709 24.8984 312.625 24.8984 312.538C24.8984 312.45 24.9331 312.366 24.995 312.303C24.9951 312.303 24.9952 312.303 24.9954 312.303L27.9443 309.354L28.2979 309L27.9443 308.647L24.9954 305.698C24.9952 305.698 24.9951 305.698 24.995 305.697C24.9331 305.635 24.8984 305.551 24.8984 305.463C24.8984 305.375 24.9333 305.29 24.9954 305.228L24.9958 305.228C25.0268 305.196 25.0636 305.171 25.1042 305.155C25.1449 305.138 25.1884 305.129 25.2324 305.129C25.2764 305.129 25.32 305.138 25.3606 305.155C25.4012 305.171 25.4381 305.196 25.4691 305.228L25.4691 305.228L25.4705 305.229L29.0039 308.762Z" fill="#64748B" stroke="#64748B"/>
</g>
<path id="&#235;&#147;&#156;&#235;&#161;&#160; &#236;&#163;&#188;&#235;&#179;&#128; &#235;&#182;&#128;&#237;&#146;&#136;" d="M47.904 308.488V309.376H40.584V304.432H47.808V305.344H41.688V308.488H47.904ZM39.384 312.616V311.68H49.008V312.616H39.384ZM59.3551 309.424V310.336H49.7551V309.424H54.0031V308.392H50.9791V305.704H57.0271V304.672H50.9551V303.808H58.1551V306.496H52.0831V307.528H58.3471V308.392H55.1071V309.424H59.3551ZM51.0031 313.936V310.984H52.1071V313.024H58.3711V313.936H51.0031ZM72.6319 309.4V310.312H68.3599V313.984H67.2799V310.312H63.0559V309.4H72.6319ZM63.5839 307.744C65.5639 307.468 67.1839 306.292 67.2079 305.008H63.9439V304.12H71.7439V305.008H68.4799C68.4919 306.292 70.1119 307.468 72.1039 307.744L71.6959 308.608C69.9799 308.344 68.4919 307.504 67.8439 306.316C67.1959 307.504 65.7199 308.344 64.0159 308.608L63.5839 307.744ZM82.187 303.496V311.272H81.083V308.536H78.779V309.52H73.931V304.192H75.035V305.968H77.675V304.192H78.779V305.368H81.083V303.496H82.187ZM75.035 308.632H77.675V306.832H75.035V308.632ZM75.323 313.768V310.504H76.451V312.88H82.427V313.768H75.323ZM78.779 307.624H81.083V306.28H78.779V307.624ZM96.3278 309.664V310.552H92.0318V313.984H90.9518V310.552H86.7278V309.664H96.3278ZM87.9038 308.488V303.928H89.0078V305.296H94.0238V303.928H95.1278V308.488H87.9038ZM89.0078 307.576H94.0238V306.184H89.0078V307.576ZM106.675 308.512V309.424H102.427V310.552H105.499V313.864H98.2508V310.552H101.323V309.424H97.0988V308.512H106.675ZM97.9868 304.72V303.808H105.787V304.72H104.251V306.736H105.739V307.624H98.0348V306.736H99.5228V304.72H97.9868ZM99.3548 312.952H104.419V311.416H99.3548V312.952ZM100.627 306.736H103.147V304.72H100.627V306.736Z" fill="#64748B"/>
</g>
<g id="Group 1437255103">
<g id="u:angle-right_3">
<path id="Vector_3" d="M29.0039 347.762L29.0039 347.762L29.0053 347.764C29.0366 347.795 29.0614 347.832 29.0783 347.872C29.0952 347.913 29.1039 347.956 29.1039 348C29.1039 348.044 29.0952 348.088 29.0783 348.129C29.0614 348.169 29.0366 348.206 29.0053 348.237L29.0039 348.239L25.472 351.77C25.4718 351.771 25.4716 351.771 25.4714 351.771C25.4404 351.802 25.4036 351.826 25.3633 351.842C25.3227 351.859 25.2792 351.867 25.2353 351.867L25.2353 351.867L25.2295 351.867C25.1857 351.867 25.1422 351.859 25.1016 351.842C25.0615 351.826 25.025 351.802 24.9941 351.772C24.9328 351.709 24.8984 351.625 24.8984 351.538C24.8984 351.45 24.9331 351.366 24.995 351.303C24.9951 351.303 24.9952 351.303 24.9954 351.303L27.9443 348.354L28.2979 348L27.9443 347.647L24.9954 344.698C24.9952 344.698 24.9951 344.698 24.995 344.697C24.9331 344.635 24.8984 344.551 24.8984 344.463C24.8984 344.375 24.9333 344.29 24.9954 344.228L24.9958 344.228C25.0268 344.196 25.0636 344.171 25.1042 344.155C25.1449 344.138 25.1884 344.129 25.2324 344.129C25.2764 344.129 25.32 344.138 25.3606 344.155C25.4012 344.171 25.4381 344.196 25.4691 344.228L25.4691 344.228L25.4705 344.229L29.0039 347.762Z" fill="#64748B" stroke="#64748B"/>
</g>
<path id="&#235;&#147;&#156;&#235;&#161;&#160; &#236;&#149;&#133;&#236;&#132;&#184;&#236;&#130;&#172;&#235;&#166;&#172;" d="M47.904 347.488V348.376H40.584V343.432H47.808V344.344H41.688V347.488H47.904ZM39.384 351.616V350.68H49.008V351.616H39.384ZM59.3551 348.424V349.336H49.7551V348.424H54.0031V347.392H50.9791V344.704H57.0271V343.672H50.9551V342.808H58.1551V345.496H52.0831V346.528H58.3471V347.392H55.1071V348.424H59.3551ZM51.0031 352.936V349.984H52.1071V352.024H58.3711V352.936H51.0031ZM66.0079 343.12C67.6159 343.108 68.8039 344.14 68.8159 345.616C68.8039 347.092 67.6159 348.124 66.0079 348.112C64.3999 348.124 63.2119 347.092 63.2239 345.616C63.2119 344.14 64.3999 343.108 66.0079 343.12ZM64.3039 345.616C64.3039 346.564 65.0239 347.176 66.0079 347.176C66.9919 347.176 67.7239 346.564 67.7359 345.616C67.7239 344.68 66.9919 344.056 66.0079 344.056C65.0239 344.056 64.3039 344.68 64.3039 345.616ZM64.3759 350.08V349.168H71.3119V353.008H70.2079V350.08H64.3759ZM70.2079 348.664V342.496H71.3119V345.136H72.8239V346.048H71.3119V348.664H70.2079ZM76.619 345.352C76.631 347.044 77.327 348.832 78.731 349.696L78.107 350.56C77.135 349.96 76.463 348.916 76.103 347.692C75.719 349.024 74.999 350.152 73.979 350.776L73.283 349.96C74.771 349.06 75.551 347.2 75.563 345.424V343.456H76.619V345.352ZM77.603 347.104V346.192H79.235V342.688H80.291V352.48H79.235V347.104H77.603ZM81.395 352.984V342.496H82.451V352.984H81.395ZM87.4461 345.16C87.4341 347.02 88.5141 348.928 90.0861 349.696L89.3901 350.584C88.2501 349.984 87.3621 348.82 86.8941 347.416C86.4261 348.904 85.5141 350.164 84.3261 350.776L83.6301 349.888C85.2381 349.108 86.3301 347.092 86.3421 345.16V343.36H87.4461V345.16ZM90.8781 352.984V342.496H91.9821V346.672H93.6621V347.632H91.9821V352.984H90.8781ZM102.881 342.496V353.008H101.777V342.496H102.881ZM94.7452 344.344V343.432H99.6652V347.272H95.9212V349.576C97.6252 349.564 99.1132 349.492 100.865 349.192L100.961 350.128C99.1012 350.428 97.5172 350.5 95.6572 350.488H94.7692V346.384H98.5372V344.344H94.7452Z" fill="#64748B"/>
</g>
</g>
<g id="Frame 319">
<rect x="9" y="60" width="184" height="36" rx="8" fill="#5797FF" fill-opacity="0.1"/>
<g id="u:angle-down">
<path id="Vector_4" d="M30.8146 75.9963L30.815 75.9967C30.8462 76.0277 30.871 76.0646 30.8879 76.1052C30.9049 76.1458 30.9136 76.1894 30.9136 76.2334C30.9136 76.2774 30.9049 76.321 30.8879 76.3616C30.871 76.4022 30.8463 76.439 30.8151 76.4699C30.8151 76.47 30.815 76.47 30.815 76.4701L27.2406 80.0028L27.2406 80.0028L27.2371 80.0063C27.2061 80.0375 27.1692 80.0623 27.1286 80.0793L27.3209 80.5408L27.1286 80.0793C27.088 80.0962 27.0444 80.1049 27.0004 80.1049C26.9564 80.1049 26.9128 80.0962 26.8722 80.0793C26.8316 80.0623 26.7947 80.0375 26.7637 80.0063L26.7637 80.0063L26.7623 80.0049L23.229 76.4715L23.229 76.4715L23.2275 76.4701C23.1963 76.4391 23.1715 76.4022 23.1545 76.3616C23.1376 76.321 23.1289 76.2774 23.1289 76.2334C23.1289 76.1894 23.1376 76.1458 23.1545 76.1052C23.1715 76.0646 23.1963 76.0277 23.2275 75.9967L23.2279 75.9963C23.2904 75.9343 23.3748 75.8994 23.4629 75.8994C23.5508 75.8994 23.6351 75.9341 23.6975 75.9959C23.6976 75.9961 23.6978 75.9962 23.6979 75.9963L26.6469 78.9453L26.9979 79.2964L27.3515 78.9478L30.3431 75.9978L30.3431 75.9978L30.3446 75.9963C30.407 75.9343 30.4915 75.8994 30.5796 75.8994C30.6676 75.8994 30.7521 75.9343 30.8146 75.9963ZM22.8754 76.8251L26.4087 80.3584L22.8754 75.6417C22.7973 75.7192 22.7353 75.8114 22.693 75.9129C22.6507 76.0145 22.6289 76.1234 22.6289 76.2334C22.6289 76.3434 22.6507 76.4523 22.693 76.5539C22.7353 76.6554 22.7973 76.7476 22.8754 76.8251Z" fill="black" stroke="#5797FF"/>
</g>
<path id="&#235;&#147;&#156;&#235;&#161;&#160;" d="M56 77.344V78.544H48.464V73.312H55.928V74.512H49.952V77.344H56ZM47.312 81.784V80.56H57.08V81.784H47.312ZM67.4271 78.304V79.504H57.6831V78.304H61.8111V77.488H58.8831V74.56H64.7631V73.792H58.8831V72.64H66.2511V75.592H60.3711V76.36H66.4431V77.488H63.2991V78.304H67.4271ZM58.9071 83.128V80.056H60.3951V81.952H66.4911V83.128H58.9071Z" fill="#5797FF"/>
</g>
<g id="Frame 320">
<rect x="9" y="136" width="182" height="32" rx="8" fill="#5797FF" fill-opacity="0.1"/>
</g>
<g id="Frame 1231">
<path id="&#236;&#181;&#156;&#235;&#140;&#128;" d="M23.376 625.048V626.91C24.398 626.854 25.42 626.756 26.372 626.616L26.512 627.904C23.754 628.422 20.8 628.436 18.616 628.436L18.42 627.036C19.344 627.036 20.45 627.036 21.612 626.994V625.048H23.376ZM18.672 624.096C20.548 623.606 21.472 622.444 21.57 621.184H19.064V619.784H21.612V618.412H23.376V619.784H25.924V621.184H23.39C23.502 622.388 24.426 623.522 26.316 623.984L25.532 625.328C24.076 624.964 23.054 624.152 22.494 623.13C21.948 624.208 20.954 625.062 19.484 625.44L18.672 624.096ZM27.1 630.788V618.3H28.836V630.788H27.1ZM41.2156 618.3V630.76H39.5636V624.516H38.3876V630.144H36.7636V618.524H38.3876V623.116H39.5636V618.3H41.2156ZM30.8276 627.932V619.756H35.4756V621.156H32.5636V626.476C33.7676 626.462 34.8316 626.392 36.0356 626.168L36.1756 627.596C34.6496 627.89 33.3336 627.932 31.6956 627.932H30.8276Z" fill="#5797FF"/>
<g id="Frame 1205">
<g id="text_field">
<rect x="57.5" y="604.5" width="106" height="39" rx="5.5" fill="#F8FAFC"/>
<rect x="57.5" y="604.5" width="106" height="39" rx="5.5" stroke="#E2E8F0"/>
<path id="&#237;&#133;&#141;&#236;&#138;&#164;&#237;&#138;&#184;&#237;&#133;&#141;&#236;&#138;&#164;&#237;&#138;&#184;" d="M69.576 626.344V625.312L73.32 619.504H74.904V625.264H76.056V626.344H74.904V628H73.68V626.344H69.576ZM70.92 625.264H73.68V621.04H73.608L70.92 625.192V625.264ZM80.2535 628.12C78.6335 628.12 77.4215 627.136 77.3735 625.792H78.6215C78.6935 626.512 79.3775 627.04 80.2535 627.04C81.2735 627.04 82.0055 626.296 82.0055 625.288C82.0055 624.244 81.2495 623.5 80.1815 623.488C79.4975 623.488 78.9815 623.716 78.6935 624.232H77.4695L78.0215 619.504H82.8215V620.632H79.1015L78.8135 622.984H78.8855C79.2455 622.66 79.8335 622.42 80.4935 622.432C82.0775 622.42 83.2655 623.608 83.2535 625.24C83.2655 626.92 82.0055 628.12 80.2535 628.12Z" fill="#334155"/>
</g>
<path id="&#236;&#160;&#144;" d="M181.664 618.412V625.549H180.365V622.473H178.068V621.393H180.365V618.412H181.664ZM171.465 624.455C173.345 623.812 174.521 622.179 174.514 620.504V620.217H171.861V619.15H178.465V620.217H175.84V620.504C175.833 622.028 176.94 623.553 178.793 624.195L178.123 625.221C176.749 624.742 175.73 623.758 175.197 622.541C174.664 623.895 173.591 624.968 172.135 625.48L171.465 624.455ZM173.584 630.512V626.123H181.664V630.512H173.584ZM174.869 629.459H180.393V627.148H174.869V629.459Z" fill="#64748B"/>
</g>
</g>
<g id="Frame 1233">
<path id="&#236;&#181;&#156;&#235;&#140;&#128;_2" d="M23.376 791.048V792.91C24.398 792.854 25.42 792.756 26.372 792.616L26.512 793.904C23.754 794.422 20.8 794.436 18.616 794.436L18.42 793.036C19.344 793.036 20.45 793.036 21.612 792.994V791.048H23.376ZM18.672 790.096C20.548 789.606 21.472 788.444 21.57 787.184H19.064V785.784H21.612V784.412H23.376V785.784H25.924V787.184H23.39C23.502 788.388 24.426 789.522 26.316 789.984L25.532 791.328C24.076 790.964 23.054 790.152 22.494 789.13C21.948 790.208 20.954 791.062 19.484 791.44L18.672 790.096ZM27.1 796.788V784.3H28.836V796.788H27.1ZM41.2156 784.3V796.76H39.5636V790.516H38.3876V796.144H36.7636V784.524H38.3876V789.116H39.5636V784.3H41.2156ZM30.8276 793.932V785.756H35.4756V787.156H32.5636V792.476C33.7676 792.462 34.8316 792.392 36.0356 792.168L36.1756 793.596C34.6496 793.89 33.3336 793.932 31.6956 793.932H30.8276Z" fill="#5797FF"/>
<g id="Frame 1205_2">
<g id="text_field_2">
<rect x="57.5" y="770.5" width="106" height="39" rx="5.5" fill="#F8FAFC"/>
<rect x="57.5" y="770.5" width="106" height="39" rx="5.5" stroke="#E2E8F0"/>
<path id="&#237;&#133;&#141;&#236;&#138;&#164;&#237;&#138;&#184;&#237;&#133;&#141;&#236;&#138;&#164;&#237;&#138;&#184;_2" d="M72.672 785.408C74.232 785.408 75.864 786.344 75.864 789.464C75.864 792.428 74.592 794.12 72.552 794.12C70.992 794.12 69.9 793.148 69.696 791.768H70.968C71.148 792.488 71.688 792.992 72.552 792.992C73.86 792.992 74.628 791.852 74.64 789.896H74.52C74.076 790.628 73.272 791.06 72.36 791.048C70.836 791.06 69.624 789.896 69.624 788.264C69.624 786.656 70.824 785.384 72.672 785.408ZM70.872 788.24C70.884 789.236 71.616 790.004 72.648 790.016C73.668 790.004 74.46 789.176 74.472 788.24C74.46 787.316 73.704 786.476 72.672 786.488C71.64 786.476 70.872 787.28 70.872 788.24ZM80.1843 794.12C78.2283 794.12 77.0763 792.536 77.0643 789.752C77.0763 787.004 78.2403 785.396 80.1843 785.408C82.1403 785.396 83.3043 787.004 83.3043 789.752C83.3043 792.536 82.1523 794.12 80.1843 794.12ZM78.3603 789.752C78.3603 791.876 79.0443 793.004 80.1843 793.016C81.3363 793.004 82.0203 791.876 82.0083 789.752C82.0203 787.652 81.3243 786.488 80.1843 786.488C79.0563 786.488 78.3603 787.652 78.3603 789.752ZM87.5788 794.12C85.6228 794.12 84.4708 792.536 84.4588 789.752C84.4708 787.004 85.6348 785.396 87.5788 785.408C89.5348 785.396 90.6988 787.004 90.6988 789.752C90.6988 792.536 89.5468 794.12 87.5788 794.12ZM85.7548 789.752C85.7548 791.876 86.4388 793.004 87.5788 793.016C88.7308 793.004 89.4148 791.876 89.4028 789.752C89.4148 787.652 88.7188 786.488 87.5788 786.488C86.4508 786.488 85.7548 787.652 85.7548 789.752ZM93.2649 793.184L92.3049 796.424H91.3209L91.9449 793.184H93.2649ZM97.5515 794.12C95.5955 794.12 94.4435 792.536 94.4315 789.752C94.4435 787.004 95.6075 785.396 97.5515 785.408C99.5075 785.396 100.671 787.004 100.671 789.752C100.671 792.536 99.5195 794.12 97.5515 794.12ZM95.7275 789.752C95.7275 791.876 96.4115 793.004 97.5515 793.016C98.7035 793.004 99.3875 791.876 99.3755 789.752C99.3875 787.652 98.6915 786.488 97.5515 786.488C96.4235 786.488 95.7275 787.652 95.7275 789.752ZM104.946 794.12C102.99 794.12 101.838 792.536 101.826 789.752C101.838 787.004 103.002 785.396 104.946 785.408C106.902 785.396 108.066 787.004 108.066 789.752C108.066 792.536 106.914 794.12 104.946 794.12ZM103.122 789.752C103.122 791.876 103.806 793.004 104.946 793.016C106.098 793.004 106.782 791.876 106.77 789.752C106.782 787.652 106.086 786.488 104.946 786.488C103.818 786.488 103.122 787.652 103.122 789.752ZM112.341 794.12C110.385 794.12 109.233 792.536 109.221 789.752C109.233 787.004 110.397 785.396 112.341 785.408C114.297 785.396 115.461 787.004 115.461 789.752C115.461 792.536 114.309 794.12 112.341 794.12ZM110.517 789.752C110.517 791.876 111.201 793.004 112.341 793.016C113.493 793.004 114.177 791.876 114.165 789.752C114.177 787.652 113.481 786.488 112.341 786.488C111.213 786.488 110.517 787.652 110.517 789.752Z" fill="#334155"/>
</g>
<path id="&#236;&#155;&#144;" d="M181.64 784.412V793.708H180.324V792.532H177.888V791.608H180.324V784.412H181.64ZM171.392 790.012C173.66 789.998 176.712 789.97 179.316 789.648L179.4 790.572C178.35 790.754 177.258 790.866 176.18 790.936V793.316H174.892V791.006C173.702 791.048 172.554 791.048 171.56 791.048L171.392 790.012ZM172.344 787.044C172.344 785.756 173.59 784.888 175.396 784.888C177.188 784.888 178.434 785.756 178.448 787.044C178.434 788.36 177.188 789.186 175.396 789.172C173.59 789.186 172.344 788.36 172.344 787.044ZM173.1 796.396V792.812H174.388V795.36H181.948V796.396H173.1ZM173.576 787.044C173.576 787.772 174.318 788.234 175.396 788.22C176.446 788.234 177.202 787.772 177.216 787.044C177.202 786.316 176.446 785.854 175.396 785.868C174.318 785.854 173.576 786.316 173.576 787.044Z" fill="#64748B"/>
</g>
</g>
<g id="Frame 1232">
<path id="&#236;&#181;&#156;&#236;&#134;&#140;" d="M23.376 581.048V582.91C24.398 582.854 25.42 582.756 26.372 582.616L26.512 583.904C23.754 584.422 20.8 584.436 18.616 584.436L18.42 583.036C19.344 583.036 20.45 583.036 21.612 582.994V581.048H23.376ZM18.672 580.096C20.548 579.606 21.472 578.444 21.57 577.184H19.064V575.784H21.612V574.412H23.376V575.784H25.924V577.184H23.39C23.502 578.388 24.426 579.522 26.316 579.984L25.532 581.328C24.076 580.964 23.054 580.152 22.494 579.13C21.948 580.208 20.954 581.062 19.484 581.44L18.672 580.096ZM27.1 586.788V574.3H28.836V586.788H27.1ZM41.8596 583.876V585.276H30.4636V583.876H35.2236V581.048H36.9596V583.876H41.8596ZM30.7436 580.012C33.5576 579.564 35.1396 577.674 35.1676 575.924V575.028H37.0156V575.924C37.0156 577.688 38.6116 579.564 41.4676 580.012L40.7116 581.468C38.5276 581.062 36.9036 579.886 36.0916 578.346C35.2656 579.886 33.6556 581.076 31.4716 581.468L30.7436 580.012Z" fill="#5797FF"/>
<g id="Frame 1205_3">
<g id="text_field_3">
<rect x="57.5" y="560.5" width="106" height="39" rx="5.5" fill="#F8FAFC"/>
<rect x="57.5" y="560.5" width="106" height="39" rx="5.5" stroke="#E2E8F0"/>
<path id="&#237;&#133;&#141;&#236;&#138;&#164;&#237;&#138;&#184;&#237;&#133;&#141;&#236;&#138;&#164;&#237;&#138;&#184;_3" d="M72.672 575.408C74.232 575.408 75.864 576.344 75.864 579.464C75.864 582.428 74.592 584.12 72.552 584.12C70.992 584.12 69.9 583.148 69.696 581.768H70.968C71.148 582.488 71.688 582.992 72.552 582.992C73.86 582.992 74.628 581.852 74.64 579.896H74.52C74.076 580.628 73.272 581.06 72.36 581.048C70.836 581.06 69.624 579.896 69.624 578.264C69.624 576.656 70.824 575.384 72.672 575.408ZM70.872 578.24C70.884 579.236 71.616 580.004 72.648 580.016C73.668 580.004 74.46 579.176 74.472 578.24C74.46 577.316 73.704 576.476 72.672 576.488C71.64 576.476 70.872 577.28 70.872 578.24ZM80.1843 584.12C78.2283 584.12 77.0763 582.536 77.0643 579.752C77.0763 577.004 78.2403 575.396 80.1843 575.408C82.1403 575.396 83.3043 577.004 83.3043 579.752C83.3043 582.536 82.1523 584.12 80.1843 584.12ZM78.3603 579.752C78.3603 581.876 79.0443 583.004 80.1843 583.016C81.3363 583.004 82.0203 581.876 82.0083 579.752C82.0203 577.652 81.3243 576.488 80.1843 576.488C79.0563 576.488 78.3603 577.652 78.3603 579.752Z" fill="#334155"/>
</g>
<path id="&#236;&#160;&#144;_2" d="M181.664 574.412V581.549H180.365V578.473H178.068V577.393H180.365V574.412H181.664ZM171.465 580.455C173.345 579.812 174.521 578.179 174.514 576.504V576.217H171.861V575.15H178.465V576.217H175.84V576.504C175.833 578.028 176.94 579.553 178.793 580.195L178.123 581.221C176.749 580.742 175.73 579.758 175.197 578.541C174.664 579.895 173.591 580.968 172.135 581.48L171.465 580.455ZM173.584 586.512V582.123H181.664V586.512H173.584ZM174.869 585.459H180.393V583.148H174.869V585.459Z" fill="#64748B"/>
</g>
</g>
<g id="Frame 1234">
<path id="&#236;&#181;&#156;&#236;&#134;&#140;_2" d="M23.376 747.048V748.91C24.398 748.854 25.42 748.756 26.372 748.616L26.512 749.904C23.754 750.422 20.8 750.436 18.616 750.436L18.42 749.036C19.344 749.036 20.45 749.036 21.612 748.994V747.048H23.376ZM18.672 746.096C20.548 745.606 21.472 744.444 21.57 743.184H19.064V741.784H21.612V740.412H23.376V741.784H25.924V743.184H23.39C23.502 744.388 24.426 745.522 26.316 745.984L25.532 747.328C24.076 746.964 23.054 746.152 22.494 745.13C21.948 746.208 20.954 747.062 19.484 747.44L18.672 746.096ZM27.1 752.788V740.3H28.836V752.788H27.1ZM41.8596 749.876V751.276H30.4636V749.876H35.2236V747.048H36.9596V749.876H41.8596ZM30.7436 746.012C33.5576 745.564 35.1396 743.674 35.1676 741.924V741.028H37.0156V741.924C37.0156 743.688 38.6116 745.564 41.4676 746.012L40.7116 747.468C38.5276 747.062 36.9036 745.886 36.0916 744.346C35.2656 745.886 33.6556 747.076 31.4716 747.468L30.7436 746.012Z" fill="#5797FF"/>
<g id="Frame 1205_4">
<g id="text_field_4">
<rect x="57.5" y="726.5" width="106" height="39" rx="5.5" fill="#F8FAFC"/>
<rect x="57.5" y="726.5" width="106" height="39" rx="5.5" stroke="#E2E8F0"/>
<path id="&#237;&#133;&#141;&#236;&#138;&#164;&#237;&#138;&#184;&#237;&#133;&#141;&#236;&#138;&#164;&#237;&#138;&#184;_4" d="M72.768 750.12C71.004 750.12 69.756 749.172 69.696 747.792H71.016C71.064 748.524 71.796 749.004 72.744 749.016C73.776 749.004 74.52 748.44 74.52 747.624C74.52 746.784 73.824 746.184 72.6 746.184H71.88V745.128H72.6C73.572 745.128 74.256 744.588 74.256 743.784C74.256 743.004 73.668 742.476 72.768 742.488C71.916 742.476 71.16 742.956 71.136 743.712H69.888C69.924 742.332 71.196 741.396 72.792 741.408C74.448 741.396 75.504 742.452 75.504 743.712C75.504 744.672 74.904 745.368 73.992 745.584V745.656C75.144 745.812 75.828 746.592 75.816 747.672C75.828 749.088 74.52 750.12 72.768 750.12ZM80.1843 750.12C78.2283 750.12 77.0763 748.536 77.0643 745.752C77.0763 743.004 78.2403 741.396 80.1843 741.408C82.1403 741.396 83.3043 743.004 83.3043 745.752C83.3043 748.536 82.1523 750.12 80.1843 750.12ZM78.3603 745.752C78.3603 747.876 79.0443 749.004 80.1843 749.016C81.3363 749.004 82.0203 747.876 82.0083 745.752C82.0203 743.652 81.3243 742.488 80.1843 742.488C79.0563 742.488 78.3603 743.652 78.3603 745.752ZM87.5788 750.12C85.6228 750.12 84.4708 748.536 84.4588 745.752C84.4708 743.004 85.6348 741.396 87.5788 741.408C89.5348 741.396 90.6988 743.004 90.6988 745.752C90.6988 748.536 89.5468 750.12 87.5788 750.12ZM85.7548 745.752C85.7548 747.876 86.4388 749.004 87.5788 749.016C88.7308 749.004 89.4148 747.876 89.4028 745.752C89.4148 743.652 88.7188 742.488 87.5788 742.488C86.4508 742.488 85.7548 743.652 85.7548 745.752ZM93.2649 749.184L92.3049 752.424H91.3209L91.9449 749.184H93.2649ZM97.5515 750.12C95.5955 750.12 94.4435 748.536 94.4315 745.752C94.4435 743.004 95.6075 741.396 97.5515 741.408C99.5075 741.396 100.671 743.004 100.671 745.752C100.671 748.536 99.5195 750.12 97.5515 750.12ZM95.7275 745.752C95.7275 747.876 96.4115 749.004 97.5515 749.016C98.7035 749.004 99.3875 747.876 99.3755 745.752C99.3875 743.652 98.6915 742.488 97.5515 742.488C96.4235 742.488 95.7275 743.652 95.7275 745.752ZM104.946 750.12C102.99 750.12 101.838 748.536 101.826 745.752C101.838 743.004 103.002 741.396 104.946 741.408C106.902 741.396 108.066 743.004 108.066 745.752C108.066 748.536 106.914 750.12 104.946 750.12ZM103.122 745.752C103.122 747.876 103.806 749.004 104.946 749.016C106.098 749.004 106.782 747.876 106.77 745.752C106.782 743.652 106.086 742.488 104.946 742.488C103.818 742.488 103.122 743.652 103.122 745.752ZM112.341 750.12C110.385 750.12 109.233 748.536 109.221 745.752C109.233 743.004 110.397 741.396 112.341 741.408C114.297 741.396 115.461 743.004 115.461 745.752C115.461 748.536 114.309 750.12 112.341 750.12ZM110.517 745.752C110.517 747.876 111.201 749.004 112.341 749.016C113.493 749.004 114.177 747.876 114.165 745.752C114.177 743.652 113.481 742.488 112.341 742.488C111.213 742.488 110.517 743.652 110.517 745.752Z" fill="#334155"/>
</g>
<path id="&#236;&#155;&#144;_2" d="M181.64 740.412V749.708H180.324V748.532H177.888V747.608H180.324V740.412H181.64ZM171.392 746.012C173.66 745.998 176.712 745.97 179.316 745.648L179.4 746.572C178.35 746.754 177.258 746.866 176.18 746.936V749.316H174.892V747.006C173.702 747.048 172.554 747.048 171.56 747.048L171.392 746.012ZM172.344 743.044C172.344 741.756 173.59 740.888 175.396 740.888C177.188 740.888 178.434 741.756 178.448 743.044C178.434 744.36 177.188 745.186 175.396 745.172C173.59 745.186 172.344 744.36 172.344 743.044ZM173.1 752.396V748.812H174.388V751.36H181.948V752.396H173.1ZM173.576 743.044C173.576 743.772 174.318 744.234 175.396 744.22C176.446 744.234 177.202 743.772 177.216 743.044C177.202 742.316 176.446 741.854 175.396 741.868C174.318 741.854 173.576 742.316 173.576 743.044Z" fill="#64748B"/>
</g>
</g>
</g>
<defs>
<filter id="filter0_d_1354_29687" x="7" y="513.307" width="36.9551" height="37.4854" filterUnits="userSpaceOnUse" color-interpolation-filters="sRGB">
<feFlood flood-opacity="0" result="BackgroundImageFix"/>
<feColorMatrix in="SourceAlpha" type="matrix" values="0 0 0 0 0 0 0 0 0 0 0 0 0 0 0 0 0 0 127 0" result="hardAlpha"/>
<feOffset dy="4"/>
<feGaussianBlur stdDeviation="5.5"/>
<feComposite in2="hardAlpha" operator="out"/>
<feColorMatrix type="matrix" values="0 0 0 0 0.212342 0 0 0 0 0.300884 0 0 0 0 0.455833 0 0 0 0.22 0"/>
<feBlend mode="normal" in2="BackgroundImageFix" result="effect1_dropShadow_1354_29687"/>
<feBlend mode="normal" in="SourceGraphic" in2="effect1_dropShadow_1354_29687" result="shape"/>
</filter>
<filter id="filter1_d_1354_29687" x="45.8828" y="513.307" width="36.9551" height="37.4854" filterUnits="userSpaceOnUse" color-interpolation-filters="sRGB">
<feFlood flood-opacity="0" result="BackgroundImageFix"/>
<feColorMatrix in="SourceAlpha" type="matrix" values="0 0 0 0 0 0 0 0 0 0 0 0 0 0 0 0 0 0 127 0" result="hardAlpha"/>
<feOffset dy="4"/>
<feGaussianBlur stdDeviation="5.5"/>
<feComposite in2="hardAlpha" operator="out"/>
<feColorMatrix type="matrix" values="0 0 0 0 0.212342 0 0 0 0 0.300884 0 0 0 0 0.455833 0 0 0 0.22 0"/>
<feBlend mode="normal" in2="BackgroundImageFix" result="effect1_dropShadow_1354_29687"/>
<feBlend mode="normal" in="SourceGraphic" in2="effect1_dropShadow_1354_29687" result="shape"/>
</filter>
<filter id="filter2_d_1354_29687" x="6" y="679.463" width="36.9551" height="37.4854" filterUnits="userSpaceOnUse" color-interpolation-filters="sRGB">
<feFlood flood-opacity="0" result="BackgroundImageFix"/>
<feColorMatrix in="SourceAlpha" type="matrix" values="0 0 0 0 0 0 0 0 0 0 0 0 0 0 0 0 0 0 127 0" result="hardAlpha"/>
<feOffset dy="4"/>
<feGaussianBlur stdDeviation="5.5"/>
<feComposite in2="hardAlpha" operator="out"/>
<feColorMatrix type="matrix" values="0 0 0 0 0.212342 0 0 0 0 0.300884 0 0 0 0 0.455833 0 0 0 0.22 0"/>
<feBlend mode="normal" in2="BackgroundImageFix" result="effect1_dropShadow_1354_29687"/>
<feBlend mode="normal" in="SourceGraphic" in2="effect1_dropShadow_1354_29687" result="shape"/>
</filter>
<filter id="filter3_d_1354_29687" x="44.8828" y="679.463" width="36.9551" height="37.4854" filterUnits="userSpaceOnUse" color-interpolation-filters="sRGB">
<feFlood flood-opacity="0" result="BackgroundImageFix"/>
<feColorMatrix in="SourceAlpha" type="matrix" values="0 0 0 0 0 0 0 0 0 0 0 0 0 0 0 0 0 0 127 0" result="hardAlpha"/>
<feOffset dy="4"/>
<feGaussianBlur stdDeviation="5.5"/>
<feComposite in2="hardAlpha" operator="out"/>
<feColorMatrix type="matrix" values="0 0 0 0 0.212342 0 0 0 0 0.300884 0 0 0 0 0.455833 0 0 0 0.22 0"/>
<feBlend mode="normal" in2="BackgroundImageFix" result="effect1_dropShadow_1354_29687"/>
<feBlend mode="normal" in="SourceGraphic" in2="effect1_dropShadow_1354_29687" result="shape"/>
</filter>
</defs>
</svg>
