<svg width="664" height="305" viewBox="0 0 664 305" fill="none" xmlns="http://www.w3.org/2000/svg">
<rect x="0.5" y="0.5" width="663" height="304" rx="11.5" fill="white" stroke="#E2E8F0"/>
<path d="M24.992 28.784C24.976 31.104 25.616 33.472 27.584 34.736L26.496 36.272C25.264 35.536 24.48 34.304 24.016 32.832C23.52 34.448 22.656 35.792 21.376 36.592L20.16 35.12C22.256 33.808 23.04 31.296 23.04 28.88V26.448H24.992V28.784ZM26.08 31.632V30H27.904V25.424H29.76V38.768H27.904V31.632H26.08ZM30.848 39.44V25.2H32.736V39.44H30.848ZM47.2361 33.424V34.992H41.7001V39.44H39.7161V34.992H34.2441V33.424H47.2361ZM35.7481 32.048V25.776H37.7321V27.408H43.7161V25.776H45.7001V32.048H35.7481ZM37.7321 30.448H43.7161V28.976H37.7321V30.448ZM57.0078 28.432C56.9918 30.992 58.0798 33.552 60.3678 34.64L59.1518 36.24C57.6478 35.488 56.6078 34.096 56.0158 32.384C55.3918 34.224 54.3038 35.728 52.6878 36.528L51.4718 34.896C53.8718 33.792 54.9918 31.072 54.9918 28.432V26.32H57.0078V28.432ZM60.9758 39.44V25.2H62.9918V30.704H65.0718V32.368H62.9918V39.44H60.9758ZM76.8839 25.2V28.848H78.8039V30.512H76.8839V34.256H74.8679V25.2H76.8839ZM65.5879 28.144V26.576H68.8199V25.136H70.8039V26.576H74.0359V28.144H65.5879ZM66.2919 31.184C66.2919 29.648 67.7159 28.624 69.8119 28.624C71.8759 28.624 73.3159 29.648 73.3319 31.184C73.3159 32.704 71.8759 33.712 69.8119 33.712C67.7319 33.712 66.2919 32.704 66.2919 31.184ZM67.4119 36.912C67.3959 35.328 69.2519 34.384 72.2439 34.384C75.1559 34.384 77.0279 35.328 77.0439 36.912C77.0279 38.496 75.1559 39.44 72.2439 39.44C69.2519 39.44 67.3959 38.496 67.4119 36.912ZM68.2439 31.184C68.2279 31.872 68.8679 32.24 69.8119 32.24C70.7719 32.24 71.4119 31.872 71.4119 31.184C71.4119 30.464 70.7719 30.064 69.8119 30.064C68.8679 30.064 68.2279 30.464 68.2439 31.184ZM69.3959 36.912C69.3799 37.584 70.3719 37.952 72.2439 37.936C74.0519 37.952 75.0279 37.584 75.0279 36.912C75.0279 36.208 74.0519 35.904 72.2439 35.888C70.3719 35.904 69.3799 36.208 69.3959 36.912Z" fill="#334155"/>
<rect x="36.5" y="75.5" width="138" height="91.4" rx="7.5" fill="#5797FF" fill-opacity="0.1" stroke="#CBDFFF"/>
<path d="M100.913 94.408V95.344H97.0729V97.36H100.697V98.248H97.0729V100.6C98.8369 100.6 100.133 100.528 101.657 100.288L101.777 101.176C100.145 101.452 98.7409 101.512 96.8089 101.512H95.9689V94.408H100.913ZM102.593 103.984V93.496H103.697V97.624H105.377V98.584H103.697V103.984H102.593ZM114.596 93.496V99.136H113.492V93.496H114.596ZM106.1 96.424C106.1 94.972 107.288 93.976 108.908 93.976C110.504 93.976 111.692 94.972 111.692 96.424C111.692 97.852 110.504 98.848 108.908 98.848C107.288 98.848 106.1 97.852 106.1 96.424ZM107.18 96.424C107.18 97.324 107.9 97.924 108.908 97.936C109.88 97.924 110.6 97.324 110.588 96.424C110.6 95.512 109.88 94.912 108.908 94.912C107.9 94.912 107.18 95.512 107.18 96.424ZM107.732 103.864V99.64H108.812V100.816H113.492V99.64H114.596V103.864H107.732ZM108.812 102.952H113.492V101.704H108.812V102.952Z" fill="#64748B"/>
<path d="M64.9963 114.088H67.5163L70.2883 120.808H70.4003L73.1443 114.088H75.6923V124H73.6763V117.504H73.5923L71.0163 123.944H69.6443L67.0683 117.504H66.9843V124H64.9963V114.088ZM82.046 120.836V116.58H84.062V124H82.13V122.656H82.046C81.724 123.524 80.912 124.098 79.806 124.084C78.308 124.098 77.3 123.048 77.286 121.312V116.58H79.302V120.948C79.316 121.83 79.82 122.376 80.618 122.376C81.36 122.376 82.06 121.858 82.046 120.836ZM87.6691 114.088V124H85.6531V114.088H87.6691ZM93.1825 116.58V118.092H91.7825V121.732C91.7825 122.306 92.0765 122.46 92.4825 122.46C92.6925 122.474 93.0425 122.446 93.2945 122.432V124.028C93.0705 124.056 92.7065 124.098 92.2305 124.112C90.7465 124.098 89.7525 123.44 89.7665 121.984V118.092H88.7305V116.58H89.7665V114.788H91.7825V116.58H93.1825ZM94.4442 124V116.58H96.4602V124H94.4442ZM94.3322 114.564C94.3462 114.004 94.8362 113.542 95.4522 113.556C96.0542 113.542 96.5442 114.004 96.5442 114.564C96.5442 115.138 96.0542 115.6 95.4522 115.6C94.8362 115.6 94.3462 115.138 94.3322 114.564ZM102.674 119.128V120.724H98.1655V119.128H102.674ZM107.716 124.14C105.42 124.14 104.062 122.572 104.048 120.304C104.062 118.036 105.448 116.482 107.688 116.468C109.62 116.482 110.908 117.602 110.992 119.296H109.088C108.976 118.568 108.486 118.064 107.716 118.064C106.75 118.064 106.106 118.876 106.12 120.276C106.106 121.718 106.75 122.544 107.716 122.544C108.444 122.544 108.962 122.096 109.088 121.312H110.992C110.908 122.992 109.662 124.14 107.716 124.14ZM115.619 124.14C113.365 124.14 111.965 122.6 111.951 120.304C111.965 118.022 113.365 116.482 115.619 116.468C117.859 116.482 119.245 118.022 119.259 120.304C119.245 122.6 117.859 124.14 115.619 124.14ZM114.023 120.304C114.009 121.606 114.555 122.572 115.619 122.572C116.655 122.572 117.201 121.606 117.187 120.304C117.201 119.002 116.655 118.022 115.619 118.036C114.555 118.022 114.009 119.002 114.023 120.304ZM120.516 126.772V116.58H122.504V117.812H122.616C122.882 117.224 123.47 116.482 124.716 116.468C126.368 116.482 127.74 117.756 127.74 120.304C127.74 122.782 126.424 124.126 124.716 124.112C123.512 124.126 122.896 123.426 122.616 122.824H122.532V126.772H120.516ZM122.504 120.276C122.504 121.62 123.078 122.502 124.072 122.516C125.108 122.502 125.668 121.592 125.668 120.276C125.668 118.988 125.122 118.092 124.072 118.092C123.064 118.092 122.504 118.946 122.504 120.276ZM132.954 116.58V118.092H131.554V121.732C131.554 122.306 131.848 122.46 132.254 122.46C132.464 122.474 132.814 122.446 133.066 122.432V124.028C132.842 124.056 132.478 124.098 132.002 124.112C130.518 124.098 129.524 123.44 129.538 121.984V118.092H128.502V116.58H129.538V114.788H131.554V116.58H132.954ZM137.522 124.14C135.226 124.14 133.84 122.67 133.826 120.332C133.84 118.036 135.254 116.482 137.438 116.468C139.37 116.482 140.91 117.714 140.91 120.248V120.808H135.842C135.842 121.928 136.5 122.628 137.55 122.628C138.236 122.628 138.726 122.32 138.922 121.9H140.854C140.56 123.258 139.342 124.14 137.522 124.14ZM135.842 119.548H139.006C138.992 118.638 138.362 117.994 137.466 117.98C136.514 117.994 135.87 118.694 135.842 119.548ZM142.173 124V116.58H144.133V117.868H144.217C144.483 116.944 145.169 116.468 146.009 116.468C146.219 116.468 146.471 116.496 146.653 116.524V118.344C146.471 118.274 146.079 118.232 145.785 118.232C144.875 118.232 144.203 118.862 144.189 119.772V124H142.173ZM84.5425 141.024C84.5565 138.616 85.1865 136.628 86.5025 134.892H88.4345C87.4265 136.18 86.6565 138.728 86.6425 141.024C86.6565 143.32 87.4265 145.868 88.4345 147.156H86.5025C85.1865 145.42 84.5565 143.432 84.5425 141.024ZM89.6056 145V135.088H91.6496V139.204H95.9336V135.088H98.0056V145H95.9336V140.884H91.6496V145H89.6056ZM103.014 145.14C100.718 145.14 99.3318 143.67 99.3178 141.332C99.3318 139.036 100.746 137.482 102.93 137.468C104.862 137.482 106.402 138.714 106.402 141.248V141.808H101.334C101.334 142.928 101.992 143.628 103.042 143.628C103.728 143.628 104.218 143.32 104.414 142.9H106.346C106.052 144.258 104.834 145.14 103.014 145.14ZM101.334 140.548H104.498C104.484 139.638 103.854 138.994 102.958 138.98C102.006 138.994 101.362 139.694 101.334 140.548ZM109.25 137.58L110.622 140.184L112.022 137.58H114.122L111.938 141.276L114.178 145H112.106L110.622 142.424L109.166 145H107.066L109.278 141.276L107.15 137.58H109.25ZM114.876 142.928C114.876 141.262 116.206 140.73 117.62 140.632L119.468 140.548V139.96C119.468 139.316 119.034 138.966 118.292 138.952C117.592 138.966 117.158 139.274 117.06 139.792H115.128C115.24 138.49 116.374 137.482 118.348 137.468C119.958 137.482 121.484 138.21 121.484 139.988V145H119.58V143.964H119.496C119.146 144.664 118.446 145.14 117.34 145.14C115.926 145.14 114.876 144.398 114.876 142.928ZM116.808 142.872C116.808 143.432 117.27 143.74 117.9 143.74C118.838 143.74 119.482 143.124 119.468 142.34V141.808C119.16 141.822 118.292 141.864 117.956 141.892C117.256 141.962 116.808 142.298 116.808 142.872ZM126.462 141.024C126.448 143.432 125.818 145.42 124.502 147.156H122.57C123.578 145.868 124.348 143.32 124.362 141.024C124.348 138.728 123.578 136.18 122.57 134.892H124.502C125.818 136.628 126.448 138.616 126.462 141.024Z" fill="#334155"/>
<rect x="35.5" y="177.5" width="138" height="91.4" rx="7.5" fill="#5797FF" fill-opacity="0.1" stroke="#CBDFFF"/>
<path d="M91.413 206.996V217.484H90.285V206.996H91.413ZM82.773 214.676C85.581 213.356 86.937 211.46 87.153 209.012H83.301V208.124H88.293C88.281 211.196 86.973 213.86 83.373 215.588L82.773 214.676ZM96.1921 210.212C96.1921 211.868 96.9601 213.56 98.4001 214.34L97.7761 215.156C96.7681 214.616 96.0601 213.608 95.6761 212.42C95.3041 213.692 94.5961 214.796 93.5761 215.396L92.9281 214.556C94.3921 213.704 95.1361 211.916 95.1361 210.212V209.78H93.2401V208.892H95.1361V207.38H96.1921V208.892H98.0641V209.78H96.1921V210.212ZM97.3681 212.012V211.076H98.8801V207.212H99.9361V216.956H98.8801V212.012H97.3681ZM100.992 217.484V206.996H102.048V217.484H100.992ZM114.797 208.004V209.3C114.797 210.836 114.797 212.264 114.341 214.436L113.237 214.34C113.453 213.38 113.573 212.54 113.633 211.76L107.333 212.084L107.189 211.196L113.693 210.92C113.705 210.368 113.717 209.828 113.717 209.3V208.94H107.477V208.004H114.797ZM106.349 216.092V215.18H115.925V216.092H106.349ZM125.456 206.996V217.484H124.328V206.996H125.456ZM116.816 214.676C119.624 213.356 120.98 211.46 121.196 209.012H117.344V208.124H122.336C122.324 211.196 121.016 213.86 117.416 215.588L116.816 214.676Z" fill="#64748B"/>
<path d="M80.2138 227.588V237.5H78.1698V229.548H78.0858L75.8178 230.976V229.156L78.2818 227.588H80.2138ZM86.3427 237.64C84.2847 237.626 82.3387 236.408 82.3387 232.768C82.3387 229.45 83.9347 227.462 86.3987 227.476C88.4007 227.462 89.7727 228.722 89.9827 230.36H87.9387C87.7847 229.66 87.2107 229.226 86.3987 229.24C85.0687 229.226 84.3547 230.444 84.3547 232.376H84.4387C84.9007 231.508 85.8807 230.99 86.9867 230.976C88.7507 230.99 90.0807 232.334 90.0667 234.196C90.0807 236.198 88.5687 237.64 86.3427 237.64ZM84.5507 234.252C84.5647 235.218 85.3067 236.016 86.3147 236.016C87.3367 236.016 88.0787 235.246 88.0787 234.252C88.0787 233.258 87.3507 232.488 86.3427 232.488C85.3347 232.488 84.5647 233.286 84.5507 234.252ZM95.3251 237.64C92.8471 237.64 91.3491 235.792 91.3491 232.544C91.3491 229.31 92.8611 227.462 95.3251 227.476C97.7891 227.462 99.3011 229.324 99.3011 232.544C99.3011 235.806 97.8031 237.64 95.3251 237.64ZM93.4491 232.544C93.4351 234.84 94.1771 235.932 95.3251 235.932C96.4731 235.932 97.2151 234.84 97.2011 232.544C97.2011 230.29 96.4731 229.156 95.3251 229.156C94.1911 229.156 93.4491 230.29 93.4491 232.544ZM104.567 237.64C102.089 237.64 100.591 235.792 100.591 232.544C100.591 229.31 102.103 227.462 104.567 227.476C107.031 227.462 108.543 229.324 108.543 232.544C108.543 235.806 107.045 237.64 104.567 237.64ZM102.691 232.544C102.677 234.84 103.419 235.932 104.567 235.932C105.715 235.932 106.457 234.84 106.443 232.544C106.443 230.29 105.715 229.156 104.567 229.156C103.433 229.156 102.691 230.29 102.691 232.544ZM109.973 237.5V230.08H111.905V231.368H111.989C112.297 230.514 113.053 229.982 114.061 229.968C115.083 229.982 115.839 230.514 116.077 231.368H116.161C116.455 230.528 117.309 229.982 118.401 229.968C119.773 229.982 120.725 230.892 120.725 232.516V237.5H118.709V232.908C118.709 232.054 118.205 231.648 117.533 231.648C116.777 231.648 116.329 232.18 116.329 232.964V237.5H114.369V232.852C114.369 232.124 113.907 231.648 113.221 231.648C112.535 231.648 112.003 232.208 111.989 233.048V237.5H109.973ZM122.292 237.5V230.08H124.224V231.368H124.308C124.616 230.514 125.372 229.982 126.38 229.968C127.402 229.982 128.158 230.514 128.396 231.368H128.48C128.774 230.528 129.628 229.982 130.72 229.968C132.092 229.982 133.044 230.892 133.044 232.516V237.5H131.028V232.908C131.028 232.054 130.524 231.648 129.852 231.648C129.096 231.648 128.648 232.18 128.648 232.964V237.5H126.688V232.852C126.688 232.124 126.226 231.648 125.54 231.648C124.854 231.648 124.322 232.208 124.308 233.048V237.5H122.292Z" fill="#334155"/>
<rect x="188.5" y="177.5" width="138" height="91.4" rx="7.5" fill="#5797FF" fill-opacity="0.1" stroke="#CBDFFF"/>
<path d="M239.349 208.868C239.349 210.224 240.273 211.496 241.869 212.036L241.317 212.9C240.129 212.492 239.253 211.664 238.797 210.632C238.341 211.772 237.429 212.66 236.205 213.092L235.605 212.228C237.237 211.676 238.221 210.32 238.245 208.868V208.58H235.917V207.692H241.605V208.58H239.349V208.868ZM236.997 214.748V213.836H243.933V217.484H242.829V214.748H236.997ZM242.829 213.332V206.996H243.933V209.684H245.445V210.62H243.933V213.332H242.829ZM255.648 212.108V212.996H246.048V212.108H250.296V210.98H247.248V207.476H254.448V208.364H248.352V210.092H254.52V210.98H251.376V212.108H255.648ZM247.176 215.588C247.188 214.364 248.556 213.68 250.824 213.692C253.092 213.68 254.448 214.364 254.448 215.588C254.448 216.8 253.092 217.484 250.824 217.484C248.556 217.484 247.188 216.8 247.176 215.588ZM248.328 215.588C248.304 216.26 249.228 216.632 250.824 216.62C252.42 216.632 253.332 216.26 253.344 215.588C253.332 214.928 252.42 214.544 250.824 214.532C249.228 214.544 248.304 214.928 248.328 215.588ZM268.925 212.54V213.428H259.349V212.54H263.573V211.52C261.617 211.4 260.381 210.632 260.381 209.396C260.381 208.1 261.845 207.296 264.125 207.284C266.405 207.296 267.881 208.1 267.869 209.396C267.881 210.62 266.645 211.388 264.701 211.52V212.54H268.925ZM260.573 217.268V214.22H261.677V216.38H267.845V217.268H260.573ZM261.533 209.396C261.521 210.188 262.529 210.62 264.125 210.62C265.745 210.62 266.741 210.188 266.741 209.396C266.741 208.652 265.745 208.184 264.125 208.196C262.529 208.184 261.521 208.652 261.533 209.396ZM278.24 211.844V212.732H275.048V215.3H279.344V216.212H269.72V215.3H273.944V212.732H270.92V207.812H278.144V208.7H272.024V211.844H278.24Z" fill="#64748B"/>
<path d="M216.686 231.76V233.356H212.178V231.76H216.686ZM222.625 227.588V237.5H220.581V229.548H220.497L218.229 230.976V229.156L220.693 227.588H222.625ZM228.754 237.64C226.276 237.64 224.778 235.792 224.778 232.544C224.778 229.31 226.29 227.462 228.754 227.476C231.218 227.462 232.73 229.324 232.73 232.544C232.73 235.806 231.232 237.64 228.754 237.64ZM226.878 232.544C226.864 234.84 227.606 235.932 228.754 235.932C229.902 235.932 230.644 234.84 230.63 232.544C230.63 230.29 229.902 229.156 228.754 229.156C227.62 229.156 226.878 230.29 226.878 232.544ZM236.456 232.264C235.154 232.264 234.09 231.214 234.104 229.912C234.09 228.596 235.154 227.532 236.456 227.532C237.772 227.532 238.822 228.596 238.836 229.912C238.822 231.214 237.772 232.264 236.456 232.264ZM235.448 229.912C235.448 230.458 235.896 230.92 236.456 230.92C237.016 230.92 237.464 230.458 237.464 229.912C237.464 229.338 237.016 228.89 236.456 228.904C235.896 228.89 235.448 229.338 235.448 229.912ZM239.956 232.544C239.956 229.324 241.944 227.462 244.548 227.476C246.844 227.462 248.566 228.778 248.832 231.06H246.76C246.606 229.954 245.752 229.282 244.604 229.296C243.064 229.282 242.042 230.472 242.056 232.544C242.042 234.686 243.078 235.806 244.604 235.82C245.724 235.806 246.564 235.19 246.76 234.14H248.832C248.608 235.974 247.082 237.64 244.548 237.64C241.916 237.64 239.956 235.778 239.956 232.544ZM257.357 230.08V231.592H255.957V235.232C255.957 235.806 256.251 235.96 256.657 235.96C256.867 235.974 257.217 235.946 257.469 235.932V237.528C257.245 237.556 256.881 237.598 256.405 237.612C254.921 237.598 253.927 236.94 253.941 235.484V231.592H252.905V230.08H253.941V228.288H255.957V230.08H257.357ZM261.897 237.64C259.643 237.64 258.243 236.1 258.229 233.804C258.243 231.522 259.643 229.982 261.897 229.968C264.137 229.982 265.523 231.522 265.537 233.804C265.523 236.1 264.137 237.64 261.897 237.64ZM260.301 233.804C260.287 235.106 260.833 236.072 261.897 236.072C262.933 236.072 263.479 235.106 263.465 233.804C263.479 232.502 262.933 231.522 261.897 231.536C260.833 231.522 260.287 232.502 260.301 233.804ZM269.853 235.736V234.112L274.053 227.588H276.629V234.084H277.861V235.736H276.629V237.5H274.669V235.736H269.853ZM271.925 234.084H274.697V229.856H274.585L271.925 234.028V234.084ZM283.045 237.64C280.567 237.64 279.069 235.792 279.069 232.544C279.069 229.31 280.581 227.462 283.045 227.476C285.509 227.462 287.021 229.324 287.021 232.544C287.021 235.806 285.523 237.64 283.045 237.64ZM281.169 232.544C281.155 234.84 281.897 235.932 283.045 235.932C284.193 235.932 284.935 234.84 284.921 232.544C284.921 230.29 284.193 229.156 283.045 229.156C281.911 229.156 281.169 230.29 281.169 232.544ZM290.747 232.264C289.445 232.264 288.381 231.214 288.395 229.912C288.381 228.596 289.445 227.532 290.747 227.532C292.063 227.532 293.113 228.596 293.127 229.912C293.113 231.214 292.063 232.264 290.747 232.264ZM289.739 229.912C289.739 230.458 290.187 230.92 290.747 230.92C291.307 230.92 291.755 230.458 291.755 229.912C291.755 229.338 291.307 228.89 290.747 228.904C290.187 228.89 289.739 229.338 289.739 229.912ZM294.247 232.544C294.247 229.324 296.235 227.462 298.839 227.476C301.135 227.462 302.857 228.778 303.123 231.06H301.051C300.897 229.954 300.043 229.282 298.895 229.296C297.355 229.282 296.333 230.472 296.347 232.544C296.333 234.686 297.369 235.806 298.895 235.82C300.015 235.806 300.855 235.19 301.051 234.14H303.123C302.899 235.974 301.373 237.64 298.839 237.64C296.207 237.64 294.247 235.778 294.247 232.544Z" fill="#334155"/>
<rect x="188.5" y="74.5" width="138" height="91.4" rx="7.5" fill="#5797FF" fill-opacity="0.1" stroke="#CBDFFF"/>
<path d="M239.608 105.004H241.168L243.88 111.58H243.976L246.664 105.004H248.224V113.5H247V107.38H246.928L244.432 113.476H243.4L240.904 107.356H240.832V113.5H239.608V105.004ZM249.524 106.132V105.004H256.1V106.132H253.46V113.5H252.188V106.132H249.524ZM264.425 109.252C264.425 111.976 262.805 113.62 260.609 113.62C258.401 113.62 256.781 111.964 256.769 109.252C256.781 106.54 258.401 104.896 260.609 104.908C262.805 104.896 264.425 106.54 264.425 109.252ZM258.065 109.252C258.065 111.316 259.145 112.432 260.609 112.444C262.061 112.432 263.153 111.316 263.153 109.252C263.153 107.2 262.061 106.072 260.609 106.084C259.145 106.072 258.065 107.2 258.065 109.252ZM267.468 113.5L265.116 105.004H266.46L268.116 111.58H268.188L269.916 105.004H271.26L272.964 111.58H273.036L274.692 105.004H276.06L273.708 113.5H272.388L270.612 107.164H270.564L268.764 113.5H267.468Z" fill="#64748B"/>
<path d="M241.245 132.736V131.112L245.445 124.588H248.021V131.084H249.253V132.736H248.021V134.5H246.061V132.736H241.245ZM243.317 131.084H246.089V126.856H245.977L243.317 131.028V131.084ZM250.6 134.5V133.016L254.128 129.74C255.066 128.858 255.556 128.312 255.556 127.528C255.556 126.646 254.898 126.1 253.988 126.1C253.064 126.1 252.448 126.688 252.448 127.64H250.488C250.488 125.708 251.93 124.462 254.016 124.476C256.13 124.462 257.544 125.666 257.544 127.388C257.544 128.522 256.998 129.446 254.94 131.28L253.456 132.736V132.82H257.684V134.5H250.6ZM259.145 134.5V124.588H261.161V129.908H261.273L263.709 127.08H266.033L263.247 130.3L266.173 134.5H263.793L261.735 131.49L261.161 132.148V134.5H259.145ZM269.97 137.44C267.94 137.44 266.666 136.516 266.554 135.116H268.542C268.654 135.704 269.214 135.97 270.026 135.984C270.964 135.97 271.594 135.578 271.594 134.556V133.184H271.51C271.23 133.786 270.572 134.388 269.382 134.388C267.702 134.388 266.358 133.212 266.358 130.748C266.358 128.228 267.744 126.982 269.382 126.968C270.628 126.982 271.23 127.724 271.51 128.312H271.594V127.08H273.582V134.584C273.582 136.474 272.098 137.44 269.97 137.44ZM268.43 130.776C268.43 132.05 268.99 132.876 270.026 132.876C271.02 132.876 271.594 132.078 271.594 130.776C271.594 129.446 271.034 128.592 270.026 128.592C268.976 128.592 268.43 129.488 268.43 130.776Z" fill="#334155"/>
<rect x="488.5" y="74.5" width="138" height="91.4" rx="7.5" fill="#5797FF" fill-opacity="0.1" stroke="#CBDFFF"/>
<path d="M539.733 109.564V111.388C540.693 111.34 541.677 111.256 542.589 111.124L542.685 111.94C540.297 112.372 537.753 112.396 535.869 112.396L535.725 111.484C536.577 111.484 537.573 111.472 538.629 111.436V109.564H539.733ZM536.013 109.06C537.597 108.628 538.569 107.524 538.605 106.228H536.301V105.316H538.629V104.068H539.733V105.316H542.109V106.228H539.757C539.793 107.464 540.789 108.532 542.373 108.94L541.845 109.828C540.597 109.468 539.661 108.7 539.193 107.704C538.725 108.76 537.801 109.552 536.541 109.924L536.013 109.06ZM543.261 114.508V103.996H544.365V114.508H543.261ZM555.048 103.996V114.484H553.992V109.06H552.648V113.956H551.616V104.212H552.648V108.148H553.992V103.996H555.048ZM546.408 111.964V105.268H550.344V106.156H547.512V111.028C548.808 111.016 549.78 110.968 550.896 110.74L550.992 111.652C549.72 111.928 548.64 111.964 547.104 111.964H546.408ZM568.949 109.204V110.116H559.349V109.204H563.573V107.668H564.677V109.204H568.949ZM559.901 107.38C561.917 107.116 563.561 105.928 563.573 104.596V104.164H564.701V104.596C564.689 105.94 566.333 107.116 568.373 107.38L567.917 108.244C566.261 107.98 564.797 107.176 564.125 106.012C563.453 107.176 561.989 107.98 560.309 108.244L559.901 107.38ZM560.405 111.94V111.052H567.749V114.484H566.621V111.94H560.405ZM578.24 108.844V109.732H575.048V112.3H579.344V113.212H569.72V112.3H573.944V109.732H570.92V104.812H578.144V105.7H572.024V108.844H578.24Z" fill="#64748B"/>
<path d="M528.693 124.588H531.213L533.985 131.308H534.097L536.841 124.588H539.389V134.5H537.373V128.004H537.289L534.713 134.444H533.341L530.765 128.004H530.681V134.5H528.693V124.588ZM540.646 132.428C540.646 130.762 541.976 130.23 543.39 130.132L545.238 130.048V129.46C545.238 128.816 544.804 128.466 544.062 128.452C543.362 128.466 542.928 128.774 542.83 129.292H540.898C541.01 127.99 542.144 126.982 544.118 126.968C545.728 126.982 547.254 127.71 547.254 129.488V134.5H545.35V133.464H545.266C544.916 134.164 544.216 134.64 543.11 134.64C541.696 134.64 540.646 133.898 540.646 132.428ZM542.578 132.372C542.578 132.932 543.04 133.24 543.67 133.24C544.608 133.24 545.252 132.624 545.238 131.84V131.308C544.93 131.322 544.062 131.364 543.726 131.392C543.026 131.462 542.578 131.798 542.578 132.372ZM550.497 127.08L551.869 129.684L553.269 127.08H555.369L553.185 130.776L555.425 134.5H553.353L551.869 131.924L550.413 134.5H548.313L550.525 130.776L548.397 127.08H550.497ZM563.969 124.588V134.5H561.925V126.548H561.841L559.573 127.976V126.156L562.037 124.588H563.969ZM569.93 134.64C567.746 134.64 566.192 133.436 566.15 131.728H568.222C568.264 132.442 568.978 132.932 569.93 132.932C570.924 132.932 571.624 132.386 571.61 131.588C571.624 130.79 570.91 130.216 569.734 130.216H568.838V128.704H569.734C570.728 128.69 571.4 128.158 571.386 127.36C571.4 126.618 570.826 126.1 569.958 126.1C569.076 126.1 568.348 126.59 568.334 127.36H566.346C566.388 125.652 567.928 124.462 569.958 124.476C572.016 124.462 573.388 125.694 573.374 127.248C573.388 128.368 572.618 129.152 571.498 129.348V129.432C572.968 129.6 573.766 130.482 573.766 131.728C573.766 133.422 572.156 134.64 569.93 134.64ZM579.473 124.14L576.281 135.984H574.545L577.737 124.14H579.473ZM584.654 129.292C584.556 128.76 584.108 128.424 583.422 128.424C582.764 128.424 582.274 128.732 582.274 129.18C582.274 129.516 582.54 129.782 583.226 129.936L584.57 130.188C585.998 130.496 586.698 131.14 586.698 132.204C586.698 133.66 585.396 134.64 583.422 134.64C581.406 134.64 580.23 133.744 580.062 132.288H582.106C582.204 132.876 582.666 133.184 583.422 133.184C584.15 133.184 584.64 132.89 584.654 132.4C584.64 132.022 584.332 131.784 583.646 131.644L582.414 131.392C580.986 131.126 580.258 130.384 580.258 129.292C580.258 127.864 581.49 126.982 583.394 126.968C585.284 126.982 586.432 127.864 586.53 129.292H584.654Z" fill="#334155"/>
<rect x="337.5" y="74.5" width="139" height="91.4" rx="7.5" fill="#5797FF" fill-opacity="0.1" stroke="#CBDFFF"/>
<path d="M385.682 115.876V107.14H386.906V108.172H387.002C387.218 107.764 387.65 107.056 388.826 107.044C390.362 107.056 391.502 108.268 391.49 110.332C391.502 112.384 390.386 113.62 388.85 113.62C387.686 113.62 387.23 112.924 387.002 112.516H386.93V115.876H385.682ZM386.906 110.308C386.906 111.652 387.494 112.564 388.562 112.564C389.666 112.564 390.23 111.592 390.242 110.308C390.23 109.06 389.678 108.112 388.562 108.124C387.482 108.112 386.906 108.988 386.906 110.308ZM392.425 111.7C392.437 110.26 393.673 109.876 394.801 109.804C395.233 109.768 396.205 109.72 396.481 109.708V109.204C396.481 108.484 396.049 108.064 395.185 108.052C394.453 108.064 394.009 108.4 393.889 108.868H392.641C392.749 107.824 393.733 107.056 395.233 107.044C396.253 107.056 397.729 107.428 397.729 109.276V113.5H396.505V112.636H396.457C396.229 113.104 395.641 113.644 394.585 113.644C393.373 113.644 392.437 112.948 392.425 111.7ZM393.649 111.724C393.661 112.324 394.165 112.636 394.849 112.636C395.881 112.636 396.493 111.964 396.481 111.196V110.62L394.993 110.716C394.177 110.776 393.661 111.088 393.649 111.724ZM399.786 115.876C399.522 115.888 399.282 115.876 399.114 115.852V114.82C399.258 114.82 399.498 114.832 399.69 114.82C400.062 114.832 400.386 114.808 400.698 114.004L400.842 113.596L398.514 107.14H399.858L401.466 112.06H401.514L403.122 107.14H404.466L401.85 114.34C401.478 115.348 400.83 115.888 399.786 115.876ZM406.746 105.004V113.5H405.498V105.004H406.746ZM410.976 113.62C409.176 113.632 408 112.312 408 110.356C408 108.364 409.176 107.056 410.976 107.044C412.764 107.056 413.94 108.364 413.952 110.356C413.94 112.312 412.764 113.632 410.976 113.62ZM409.248 110.356C409.26 111.556 409.812 112.588 410.976 112.588C412.128 112.588 412.68 111.556 412.68 110.356C412.68 109.132 412.128 108.088 410.976 108.1C409.812 108.088 409.26 109.132 409.248 110.356ZM414.866 111.7C414.878 110.26 416.114 109.876 417.242 109.804C417.674 109.768 418.646 109.72 418.922 109.708V109.204C418.922 108.484 418.49 108.064 417.626 108.052C416.894 108.064 416.45 108.4 416.33 108.868H415.082C415.19 107.824 416.174 107.056 417.674 107.044C418.694 107.056 420.17 107.428 420.17 109.276V113.5H418.946V112.636H418.898C418.67 113.104 418.082 113.644 417.026 113.644C415.814 113.644 414.878 112.948 414.866 111.7ZM416.09 111.724C416.102 112.324 416.606 112.636 417.29 112.636C418.322 112.636 418.934 111.964 418.922 111.196V110.62L417.434 110.716C416.618 110.776 416.102 111.088 416.09 111.724ZM424.058 113.62C422.522 113.62 421.394 112.384 421.394 110.332C421.394 108.268 422.534 107.056 424.082 107.044C425.246 107.056 425.678 107.764 425.906 108.172H425.978V105.004H427.226V113.5H426.002V112.516H425.906C425.666 112.924 425.222 113.62 424.058 113.62ZM422.666 110.308C422.666 111.592 423.242 112.564 424.346 112.564C425.402 112.564 426.002 111.652 426.002 110.308C426.002 108.988 425.414 108.112 424.346 108.124C423.23 108.112 422.666 109.06 422.666 110.308Z" fill="#64748B"/>
<path d="M374.903 124.588H377.423L380.195 131.308H380.307L383.051 124.588H385.599V134.5H383.583V128.004H383.499L380.923 134.444H379.551L376.975 128.004H376.891V134.5H374.903V124.588ZM386.857 132.428C386.857 130.762 388.187 130.23 389.601 130.132L391.449 130.048V129.46C391.449 128.816 391.015 128.466 390.273 128.452C389.573 128.466 389.139 128.774 389.041 129.292H387.109C387.221 127.99 388.355 126.982 390.329 126.968C391.939 126.982 393.465 127.71 393.465 129.488V134.5H391.561V133.464H391.477C391.127 134.164 390.427 134.64 389.321 134.64C387.907 134.64 386.857 133.898 386.857 132.428ZM388.789 132.372C388.789 132.932 389.251 133.24 389.881 133.24C390.819 133.24 391.463 132.624 391.449 131.84V131.308C391.141 131.322 390.273 131.364 389.937 131.392C389.237 131.462 388.789 131.798 388.789 132.372ZM396.708 127.08L398.08 129.684L399.48 127.08H401.58L399.396 130.776L401.636 134.5H399.564L398.08 131.924L396.624 134.5H394.524L396.736 130.776L394.608 127.08H396.708ZM405.924 134.5V133.016L409.452 129.74C410.39 128.858 410.88 128.312 410.88 127.528C410.88 126.646 410.222 126.1 409.312 126.1C408.388 126.1 407.772 126.688 407.772 127.64H405.812C405.812 125.708 407.254 124.462 409.34 124.476C411.454 124.462 412.868 125.666 412.868 127.388C412.868 128.522 412.322 129.446 410.264 131.28L408.78 132.736V132.82H413.008V134.5H405.924ZM418.305 134.64C415.827 134.64 414.329 132.792 414.329 129.544C414.329 126.31 415.841 124.462 418.305 124.476C420.769 124.462 422.281 126.324 422.281 129.544C422.281 132.806 420.783 134.64 418.305 134.64ZM416.429 129.544C416.415 131.84 417.157 132.932 418.305 132.932C419.453 132.932 420.195 131.84 420.181 129.544C420.181 127.29 419.453 126.156 418.305 126.156C417.171 126.156 416.429 127.29 416.429 129.544ZM423.711 134.5V124.588H425.727V129.908H425.839L428.275 127.08H430.599L427.813 130.3L430.739 134.5H428.359L426.301 131.49L425.727 132.148V134.5H423.711ZM434.535 137.44C432.505 137.44 431.231 136.516 431.119 135.116H433.107C433.219 135.704 433.779 135.97 434.591 135.984C435.529 135.97 436.159 135.578 436.159 134.556V133.184H436.075C435.795 133.786 435.137 134.388 433.947 134.388C432.267 134.388 430.923 133.212 430.923 130.748C430.923 128.228 432.309 126.982 433.947 126.968C435.193 126.982 435.795 127.724 436.075 128.312H436.159V127.08H438.147V134.584C438.147 136.474 436.663 137.44 434.535 137.44ZM432.995 130.776C432.995 132.05 433.555 132.876 434.591 132.876C435.585 132.876 436.159 132.078 436.159 130.776C436.159 129.446 435.599 128.592 434.591 128.592C433.541 128.592 432.995 129.488 432.995 130.776Z" fill="#334155"/>
<rect x="338.5" y="177.5" width="139" height="91.4" rx="7.5" fill="#5797FF" fill-opacity="0.1" stroke="#CBDFFF"/>
<path d="M384.163 198.44C384.163 199.76 385.087 200.984 386.683 201.488L386.155 202.352C384.955 201.98 384.079 201.188 383.623 200.18C383.167 201.332 382.243 202.244 380.971 202.688L380.419 201.8C382.051 201.26 383.035 199.892 383.059 198.44V198.152H380.731V197.24H386.419V198.152H384.163V198.44ZM381.835 205.016C381.835 203.768 383.167 203.048 385.363 203.048C387.523 203.048 388.843 203.768 388.843 205.016C388.843 206.252 387.523 206.984 385.363 206.984C383.167 206.984 381.835 206.252 381.835 205.016ZM382.939 205.016C382.939 205.712 383.839 206.096 385.363 206.096C386.863 206.096 387.751 205.712 387.763 205.016C387.751 204.32 386.863 203.936 385.363 203.936C383.839 203.936 382.939 204.32 382.939 205.016ZM387.643 202.808V196.496H388.747V199.088H390.259V200.024H388.747V202.808H387.643ZM394.535 198.776C394.547 200 395.495 201.176 397.103 201.632L396.575 202.52C395.375 202.16 394.475 201.392 394.007 200.42C393.551 201.488 392.639 202.316 391.391 202.712L390.839 201.824C392.459 201.356 393.443 200.108 393.431 198.776V198.608H391.151V197.72H393.431V196.448H394.559V197.72H396.815V198.608H394.535V198.776ZM392.183 204.32V203.432H399.119V207.008H398.015V204.32H392.183ZM398.015 202.904V196.496H399.119V199.232H400.631V200.168H399.119V202.904H398.015ZM405.579 197.48V199.976H407.571V197.48H408.603V204.416H404.523V197.48H405.579ZM405.579 203.504H407.571V200.864H405.579V203.504ZM409.779 206.48V196.688H410.835V200.6H412.131V196.496H413.187V206.984H412.131V201.512H410.835V206.48H409.779ZM423.294 196.496V207.008H422.19V201.272H420.102V200.384H422.19V196.496H423.294ZM415.014 204.536V197.432H419.934V198.344H416.142V200.384H419.478V201.272H416.142V203.624C417.906 203.612 419.118 203.552 420.51 203.312L420.63 204.224C419.106 204.464 417.786 204.524 415.83 204.536H415.014ZM433.617 196.496V207.008H432.513V196.496H433.617ZM425.481 198.344V197.432H430.401V201.272H426.657V203.576C428.361 203.564 429.849 203.492 431.601 203.192L431.697 204.128C429.837 204.428 428.253 204.5 426.393 204.488H425.505V200.384H429.273V198.344H425.481Z" fill="#64748B"/>
<path d="M382.199 227V217.088H384.243V225.292H388.499V227H382.199ZM389.786 227V219.58H391.802V227H389.786ZM389.674 217.564C389.688 217.004 390.178 216.542 390.794 216.556C391.396 216.542 391.886 217.004 391.886 217.564C391.886 218.138 391.396 218.6 390.794 218.6C390.178 218.6 389.688 218.138 389.674 217.564ZM393.395 229.772V219.58H395.383V220.812H395.495C395.761 220.224 396.349 219.482 397.595 219.468C399.247 219.482 400.619 220.756 400.619 223.304C400.619 225.782 399.303 227.126 397.595 227.112C396.391 227.126 395.775 226.426 395.495 225.824H395.411V229.772H393.395ZM395.383 223.276C395.383 224.62 395.957 225.502 396.951 225.516C397.987 225.502 398.547 224.592 398.547 223.276C398.547 221.988 398.001 221.092 396.951 221.092C395.943 221.092 395.383 221.946 395.383 223.276ZM405.273 227.14C403.019 227.14 401.619 225.6 401.605 223.304C401.619 221.022 403.019 219.482 405.273 219.468C407.513 219.482 408.899 221.022 408.913 223.304C408.899 225.6 407.513 227.14 405.273 227.14ZM403.677 223.304C403.663 224.606 404.209 225.572 405.273 225.572C406.309 225.572 406.855 224.606 406.841 223.304C406.855 222.002 406.309 221.022 405.273 221.036C404.209 221.022 403.663 222.002 403.677 223.304ZM417.233 227.14C415.175 227.126 413.229 225.908 413.229 222.268C413.229 218.95 414.825 216.962 417.289 216.976C419.291 216.962 420.663 218.222 420.873 219.86H418.829C418.675 219.16 418.101 218.726 417.289 218.74C415.959 218.726 415.245 219.944 415.245 221.876H415.329C415.791 221.008 416.771 220.49 417.877 220.476C419.641 220.49 420.971 221.834 420.957 223.696C420.971 225.698 419.459 227.14 417.233 227.14ZM415.441 223.752C415.455 224.718 416.197 225.516 417.205 225.516C418.227 225.516 418.969 224.746 418.969 223.752C418.969 222.758 418.241 221.988 417.233 221.988C416.225 221.988 415.455 222.786 415.441 223.752ZM427.784 219.944C427.728 219.146 427.098 218.684 426.104 218.684C425.054 218.684 424.48 219.16 424.48 219.804C424.452 220.546 425.194 220.868 426.048 221.064L426.944 221.288C428.638 221.652 429.898 222.52 429.912 224.172C429.898 225.978 428.484 227.14 426.076 227.14C423.682 227.14 422.156 226.034 422.1 223.92H424.088C424.172 224.914 424.956 225.404 426.048 225.404C427.126 225.404 427.826 224.914 427.84 224.172C427.826 223.5 427.224 223.178 426.132 222.912L425.068 222.66C423.388 222.24 422.366 221.414 422.352 219.944C422.352 218.166 423.948 216.962 426.104 216.976C428.302 216.962 429.744 218.18 429.772 219.944H427.784ZM368.683 248V246.516L372.211 243.24C373.149 242.358 373.639 241.812 373.639 241.028C373.639 240.146 372.981 239.6 372.071 239.6C371.147 239.6 370.531 240.188 370.531 241.14H368.571C368.571 239.208 370.013 237.962 372.099 237.976C374.213 237.962 375.627 239.166 375.627 240.888C375.627 242.022 375.081 242.946 373.023 244.78L371.539 246.236V246.32H375.767V248H368.683ZM377.228 248V246.516L380.756 243.24C381.694 242.358 382.184 241.812 382.184 241.028C382.184 240.146 381.526 239.6 380.616 239.6C379.692 239.6 379.076 240.188 379.076 241.14H377.116C377.116 239.208 378.558 237.962 380.644 237.976C382.758 237.962 384.172 239.166 384.172 240.888C384.172 242.022 383.626 242.946 381.568 244.78L380.084 246.236V246.32H384.312V248H377.228ZM387.985 246.992L386.809 250.884H385.353L386.025 246.992H387.985ZM393.232 248.14C390.754 248.14 389.256 246.292 389.256 243.044C389.256 239.81 390.768 237.962 393.232 237.976C395.696 237.962 397.208 239.824 397.208 243.044C397.208 246.306 395.71 248.14 393.232 248.14ZM391.356 243.044C391.342 245.34 392.084 246.432 393.232 246.432C394.38 246.432 395.122 245.34 395.108 243.044C395.108 240.79 394.38 239.656 393.232 239.656C392.098 239.656 391.356 240.79 391.356 243.044ZM402.474 248.14C399.996 248.14 398.498 246.292 398.498 243.044C398.498 239.81 400.01 237.962 402.474 237.976C404.938 237.962 406.45 239.824 406.45 243.044C406.45 246.306 404.952 248.14 402.474 248.14ZM400.598 243.044C400.584 245.34 401.326 246.432 402.474 246.432C403.622 246.432 404.364 245.34 404.35 243.044C404.35 240.79 403.622 239.656 402.474 239.656C401.34 239.656 400.598 240.79 400.598 243.044ZM411.717 248.14C409.239 248.14 407.741 246.292 407.741 243.044C407.741 239.81 409.253 237.962 411.717 237.976C414.181 237.962 415.693 239.824 415.693 243.044C415.693 246.306 414.195 248.14 411.717 248.14ZM409.841 243.044C409.827 245.34 410.569 246.432 411.717 246.432C412.865 246.432 413.607 245.34 413.593 243.044C413.593 240.79 412.865 239.656 411.717 239.656C410.583 239.656 409.841 240.79 409.841 243.044ZM417.123 248V240.58H419.055V241.868H419.139C419.447 241.014 420.203 240.482 421.211 240.468C422.233 240.482 422.989 241.014 423.227 241.868H423.311C423.605 241.028 424.459 240.482 425.551 240.468C426.923 240.482 427.875 241.392 427.875 243.016V248H425.859V243.408C425.859 242.554 425.355 242.148 424.683 242.148C423.927 242.148 423.479 242.68 423.479 243.464V248H421.519V243.352C421.519 242.624 421.057 242.148 420.371 242.148C419.685 242.148 419.153 242.708 419.139 243.548V248H417.123ZM431.149 248H428.937L432.353 238.088H435.013L438.429 248H436.217L435.475 245.732H431.891L431.149 248ZM432.409 244.108H434.957L433.725 240.328H433.641L432.409 244.108ZM441.506 243.688V248H439.49V238.088H441.45V241.868H441.562C441.884 241.014 442.64 240.482 443.774 240.468C445.314 240.482 446.336 241.518 446.322 243.268V248H444.306V243.632C444.32 242.708 443.816 242.162 442.962 242.148C442.122 242.162 441.52 242.722 441.506 243.688Z" fill="#334155"/>
<rect x="490.5" y="177.5" width="138" height="91.4" rx="7.5" fill="#5797FF" fill-opacity="0.1" stroke="#CBDFFF"/>
<path d="M529.897 212.564V214.388C530.857 214.34 531.841 214.256 532.753 214.124L532.849 214.94C530.461 215.372 527.917 215.396 526.033 215.396L525.889 214.484C526.741 214.484 527.737 214.472 528.793 214.436V212.564H529.897ZM526.177 212.06C527.761 211.628 528.733 210.524 528.769 209.228H526.465V208.316H528.793V207.068H529.897V208.316H532.273V209.228H529.921C529.957 210.464 530.953 211.532 532.537 211.94L532.009 212.828C530.761 212.468 529.825 211.7 529.357 210.704C528.889 211.76 527.965 212.552 526.705 212.924L526.177 212.06ZM533.425 217.508V206.996H534.529V217.508H533.425ZM545.212 206.996V217.484H544.156V212.06H542.812V216.956H541.78V207.212H542.812V211.148H544.156V206.996H545.212ZM536.572 214.964V208.268H540.508V209.156H537.676V214.028C538.972 214.016 539.944 213.968 541.06 213.74L541.156 214.652C539.884 214.928 538.804 214.964 537.268 214.964H536.572ZM558.225 206.996V217.508H557.097V206.996H558.225ZM550.089 215.012V207.86H551.217V210.572H554.049V207.86H555.129V215.012H550.089ZM551.217 214.076H554.049V211.436H551.217V214.076ZM568.836 206.996V213.62H567.78V210.692H566.556V213.26H565.524V207.188H566.556V209.78H567.78V206.996H568.836ZM559.836 209.084V208.196H561.948V207.068H563.052V208.196H565.14V209.084H559.836ZM560.244 211.364C560.232 210.272 561.18 209.564 562.5 209.564C563.832 209.564 564.756 210.272 564.756 211.364C564.756 212.456 563.832 213.164 562.5 213.164C561.18 213.164 560.232 212.456 560.244 211.364ZM561.228 211.364C561.228 211.964 561.744 212.36 562.5 212.348C563.244 212.36 563.76 211.964 563.748 211.364C563.76 210.764 563.244 210.38 562.5 210.38C561.744 210.38 561.228 210.764 561.228 211.364ZM561.756 215.636C561.756 214.448 563.1 213.776 565.332 213.764C567.552 213.776 568.896 214.448 568.884 215.636C568.896 216.812 567.552 217.484 565.332 217.484C563.1 217.484 561.756 216.812 561.756 215.636ZM562.884 215.636C562.86 216.272 563.76 216.632 565.332 216.62C566.892 216.632 567.78 216.272 567.78 215.636C567.78 214.976 566.892 214.616 565.332 214.628C563.76 214.616 562.86 214.976 562.884 215.636ZM577.049 209.66C577.037 211.58 578.189 213.512 579.809 214.244L579.161 215.108C577.949 214.544 576.989 213.368 576.497 211.94C576.017 213.476 575.045 214.736 573.785 215.348L573.113 214.412C574.757 213.68 575.921 211.676 575.921 209.66V207.86H577.049V209.66ZM580.769 217.508V206.996H581.897V217.508H580.769ZM591.812 206.996V210.092H593.324V211.028H591.812V214.628H590.684V206.996H591.812ZM583.556 212.588C586.004 211.844 587.54 210.44 587.756 208.724H583.988V207.788H588.956C588.956 210.548 587.084 212.54 584.012 213.476L583.556 212.588ZM585.14 217.268V213.836H586.268V216.38H592.244V217.268H585.14Z" fill="#64748B"/>
<path d="M542.72 237.64C540.536 237.64 538.982 236.436 538.94 234.728H541.012C541.054 235.442 541.768 235.932 542.72 235.932C543.714 235.932 544.414 235.386 544.4 234.588C544.414 233.79 543.7 233.216 542.524 233.216H541.628V231.704H542.524C543.518 231.69 544.19 231.158 544.176 230.36C544.19 229.618 543.616 229.1 542.748 229.1C541.866 229.1 541.138 229.59 541.124 230.36H539.136C539.178 228.652 540.718 227.462 542.748 227.476C544.806 227.462 546.178 228.694 546.164 230.248C546.178 231.368 545.408 232.152 544.288 232.348V232.432C545.758 232.6 546.556 233.482 546.556 234.728C546.556 236.422 544.946 237.64 542.72 237.64ZM551.815 237.64C549.337 237.64 547.839 235.792 547.839 232.544C547.839 229.31 549.351 227.462 551.815 227.476C554.279 227.462 555.791 229.324 555.791 232.544C555.791 235.806 554.293 237.64 551.815 237.64ZM549.939 232.544C549.925 234.84 550.667 235.932 551.815 235.932C552.963 235.932 553.705 234.84 553.691 232.544C553.691 230.29 552.963 229.156 551.815 229.156C550.681 229.156 549.939 230.29 549.939 232.544ZM557.222 237.5V230.08H559.154V231.368H559.238C559.546 230.514 560.302 229.982 561.31 229.968C562.332 229.982 563.088 230.514 563.326 231.368H563.41C563.704 230.528 564.558 229.982 565.65 229.968C567.022 229.982 567.974 230.892 567.974 232.516V237.5H565.958V232.908C565.958 232.054 565.454 231.648 564.782 231.648C564.026 231.648 563.578 232.18 563.578 232.964V237.5H561.618V232.852C561.618 232.124 561.156 231.648 560.47 231.648C559.784 231.648 559.252 232.208 559.238 233.048V237.5H557.222ZM569.54 237.5V230.08H571.556V237.5H569.54ZM569.428 228.064C569.442 227.504 569.932 227.042 570.548 227.056C571.15 227.042 571.64 227.504 571.64 228.064C571.64 228.638 571.15 229.1 570.548 229.1C569.932 229.1 569.442 228.638 569.428 228.064ZM575.165 233.188V237.5H573.149V230.08H575.081V231.368H575.165C575.501 230.514 576.299 229.982 577.405 229.968C578.945 229.982 579.967 231.032 579.953 232.768V237.5H577.937V233.132C577.937 232.208 577.447 231.662 576.593 231.648C575.753 231.662 575.179 232.222 575.165 233.188Z" fill="#334155"/>
</svg>
