<svg width="802" height="69" viewBox="0 0 802 69" fill="none" xmlns="http://www.w3.org/2000/svg">
<g id="Group 1437255171">
<g id="result">
<g clip-path="url(#clip0_1354_29688)">
<rect width="802" height="69" rx="12" fill="white"/>
</g>
<rect x="0.5" y="0.5" width="801" height="68" rx="11.5" stroke="#E2E8F0"/>
</g>
<g id="Frame 1230">
<g id="checkbox">
<path id="Rectangle 12997" d="M474.5 31C474.5 27.9624 476.962 25.5 480 25.5H488C491.038 25.5 493.5 27.9624 493.5 31V39C493.5 42.0376 491.038 44.5 488 44.5H480C476.962 44.5 474.5 42.0376 474.5 39V31Z" fill="white" stroke="#5797FF"/>
</g>
<g id="Frame 1228">
<g id="Frame 338">
<path id="&#234;&#176;&#128;&#234;&#178;&#169; &#235;&#130;&#174;&#236;&#157;&#128; &#236;&#136;&#156;" d="M510.566 28.4961V32.6797H512.195V33.6055H510.566V38.9844H509.453V28.4961H510.566ZM507.824 29.5977C507.812 32.6328 506.477 35.3398 503.02 37.0508L502.398 36.1836C505.029 34.8711 506.459 32.9727 506.688 30.5234H502.926V29.5977H507.824ZM518.324 29.1875C518.324 29.5859 518.283 29.9609 518.207 30.3242H520.398V28.5078H521.512V34.7539H520.398V33.4414H517.75V32.5391H520.398V31.2148H517.926C517.217 32.8613 515.605 34.0391 513.332 34.6484L512.91 33.7695C515.406 33.0957 516.924 31.7598 517.129 30.0898H513.461V29.1875H518.324ZM521.512 35.2109V38.9727H520.398V36.0898H514.398V35.2109H521.512ZM534.309 28.4844V30.9688H535.832V31.9062H534.309V34.3789H533.195V28.4844H534.309ZM527.652 29.0469V32.7266C529.076 32.7148 530.564 32.6035 532.176 32.2695L532.316 33.1836C530.547 33.5469 528.941 33.6641 527.395 33.6641H526.539V29.0469H527.652ZM534.473 34.8828V35.7852H531.59C531.684 36.8223 533.066 37.8125 534.906 38.0938L534.461 38.9492C532.885 38.6973 531.59 37.9355 530.992 36.9219C530.4 37.9414 529.1 38.668 527.523 38.9258L527.078 38.082C528.93 37.8125 530.295 36.8398 530.406 35.7852H527.5V34.8828H534.473ZM546.004 33.9805V34.8711H536.43V33.9805H546.004ZM544.926 37.8711V38.7734H537.637V35.7266H538.762V37.8711H544.926ZM541.211 28.8477C543.484 28.8359 544.961 29.6328 544.961 30.9453C544.961 32.2695 543.484 33.0664 541.211 33.0781C538.926 33.0664 537.461 32.2695 537.461 30.9453C537.461 29.6328 538.926 28.8359 541.211 28.8477ZM541.211 29.7383C539.605 29.7383 538.598 30.1953 538.609 30.9453C538.598 31.7188 539.605 32.1641 541.211 32.1641C542.816 32.1641 543.812 31.7188 543.812 30.9453C543.812 30.1953 542.816 29.7383 541.211 29.7383ZM555.086 29.2227C555.086 30.5352 556.773 31.8008 558.766 32.0938L558.332 32.9727C556.668 32.6973 555.197 31.8359 554.523 30.6523C553.855 31.8594 552.373 32.7207 550.703 32.9961L550.281 32.1172C552.273 31.8125 553.949 30.582 553.949 29.2227V28.7656H555.086V29.2227ZM559.328 33.7812V34.6836H555.156V36.7109H554.055V34.6836H549.719V33.7812H559.328ZM558.262 37.8711V38.7734H550.914V35.7266H552.027V37.8711H558.262Z" fill="#94A3B8"/>
</g>
</g>
<g id="Frame 339">
<g id="checkbox_2">
<path id="Rectangle 12997_2" d="M568.5 31C568.5 27.9624 570.962 25.5 574 25.5H582C585.038 25.5 587.5 27.9624 587.5 31V39C587.5 42.0376 585.038 44.5 582 44.5H574C570.962 44.5 568.5 42.0376 568.5 39V31Z" fill="white" stroke="#5797FF"/>
</g>
<path id="&#234;&#176;&#128;&#234;&#178;&#169; &#235;&#134;&#146;&#236;&#157;&#128; &#236;&#136;&#156;" d="M604.568 29.496V33.672H606.2V34.608H604.568V39.984H603.464V29.496H604.568ZM596.384 37.176C599.024 35.868 600.452 33.984 600.692 31.536H596.912V30.6H601.832C601.82 33.636 600.476 36.348 597.008 38.04L596.384 37.176ZM612.323 30.192C612.323 30.588 612.287 30.96 612.203 31.32H614.411V29.496H615.515V35.76H614.411V34.44H611.747V33.528H614.411V32.208H611.927C611.219 33.864 609.599 35.04 607.331 35.664L606.899 34.776C609.395 34.092 610.919 32.76 611.123 31.104H607.475V30.192H612.323ZM608.387 37.08V36.216H615.515V39.984H614.411V37.08H608.387ZM628.576 32.088V33H625.408V34.176H629.632V35.088H620.056V34.176H624.28V33H621.328V29.712H622.432V32.088H628.576ZM621.016 39.864V38.952H622.672V36.912H621.112V36.024H628.576V36.912H627.016V38.952H628.672V39.864H621.016ZM623.776 38.952H625.936V36.912H623.776V38.952ZM640.003 34.968V35.88H630.427V34.968H640.003ZM631.459 31.944C631.459 30.624 632.923 29.844 635.203 29.856C637.483 29.844 638.959 30.624 638.947 31.944C638.959 33.276 637.483 34.068 635.203 34.08C632.923 34.068 631.459 33.276 631.459 31.944ZM631.651 39.768V36.72H632.755V38.88H638.923V39.768H631.651ZM632.611 31.944C632.599 32.724 633.607 33.168 635.203 33.168C636.823 33.168 637.819 32.724 637.819 31.944C637.819 31.188 636.823 30.744 635.203 30.744C633.607 30.744 632.599 31.188 632.611 31.944ZM649.08 30.216C649.092 31.536 650.772 32.808 652.752 33.096L652.32 33.984C650.664 33.708 649.2 32.844 648.528 31.656C647.856 32.856 646.38 33.72 644.712 33.984L644.28 33.12C646.272 32.82 647.94 31.572 647.952 30.216V29.76H649.08V30.216ZM643.728 35.688V34.776H653.328V35.688H649.152V37.728H648.072V35.688H643.728ZM644.904 39.768V36.72H646.032V38.88H652.272V39.768H644.904Z" fill="#94A3B8"/>
</g>
<g id="Frame 340">
<g id="checkbox_3">
<path id="Rectangle 12997_3" d="M662.5 31C662.5 27.9624 664.962 25.5 668 25.5H676C679.038 25.5 681.5 27.9624 681.5 31V39C681.5 42.0376 679.038 44.5 676 44.5H668C664.962 44.5 662.5 42.0376 662.5 39V31Z" fill="#5797FF" stroke="#5797FF"/>
<g id="u:check">
<path id="Vector" d="M677.237 31.3603L677.245 31.3682L677.253 31.3757C677.287 31.4069 677.314 31.4448 677.332 31.487C677.35 31.5291 677.36 31.5747 677.36 31.6207C677.36 31.6667 677.35 31.7123 677.332 31.7545C677.314 31.7966 677.287 31.8345 677.253 31.8657L677.245 31.8725L677.238 31.8797L670.438 38.6797L670.438 38.6797L670.437 38.6811C670.406 38.7124 670.369 38.7372 670.328 38.7541C670.288 38.771 670.244 38.7797 670.2 38.7797C670.156 38.7797 670.112 38.771 670.072 38.7541C670.031 38.7372 669.994 38.7124 669.963 38.6811L669.962 38.6797L666.762 35.4797L666.762 35.4796L666.756 35.4736C666.723 35.4415 666.696 35.4032 666.678 35.3609C666.659 35.3185 666.649 35.273 666.648 35.2268C666.648 35.1806 666.656 35.1348 666.673 35.0918L666.208 34.9085L666.673 35.0918C666.69 35.0488 666.715 35.0096 666.747 34.9764C666.779 34.9432 666.818 34.9167 666.86 34.8983L666.663 34.4455L666.86 34.8983C666.902 34.8799 666.948 34.87 666.994 34.8692C667.04 34.8684 667.086 34.8767 667.129 34.8936L667.312 34.4284L667.129 34.8936C667.171 34.9101 667.209 34.9344 667.242 34.9653L669.846 37.5779L670.2 37.9328L670.554 37.5782L676.762 31.3615L676.763 31.3603C676.794 31.3291 676.831 31.3043 676.872 31.2874C676.912 31.2704 676.956 31.2617 677 31.2617C677.044 31.2617 677.088 31.2704 677.128 31.2874C677.169 31.3043 677.206 31.3291 677.237 31.3603Z" fill="white" stroke="white"/>
</g>
</g>
<path id="&#236;&#181;&#156;&#234;&#183;&#188; &#235;&#147;&#177;&#235;&#161;&#157; &#236;&#136;&#156;" d="M694.453 35.0742V36.8906C695.414 36.8379 696.387 36.7559 697.301 36.6211L697.383 37.4414C695.004 37.875 692.461 37.8984 690.586 37.8984L690.445 36.9844C691.289 36.9785 692.285 36.9727 693.34 36.9375V35.0742H694.453ZM696.809 30.832V31.7344H694.453C694.512 32.9648 695.508 34.0312 697.078 34.4531L696.562 35.3203C695.309 34.9629 694.371 34.2012 693.902 33.1992C693.439 34.2539 692.52 35.0508 691.254 35.4141L690.727 34.5703C692.291 34.125 693.275 33.0234 693.328 31.7344H691.008V30.832H693.34V29.5781H694.453V30.832H696.809ZM699.07 29.4961V40.0195H697.957V29.4961H699.07ZM709.148 30.1172V30.9492C709.148 31.8398 709.148 32.8828 708.891 34.2656H710.367V35.1797H700.758V34.2656H707.766C708.041 32.9004 708.047 31.9043 708.047 31.0195H701.965V30.1172H709.148ZM709.465 38.8594V39.7734H702.012V36.2695H703.113V38.8594H709.465ZM723.645 34.4297V35.3438H714.059V34.4297H723.645ZM722.531 32.6133V33.5156H715.254V29.8711H722.461V30.7852H716.355V32.6133H722.531ZM718.84 36.1641C721.102 36.1641 722.461 36.8555 722.461 38.0742C722.461 39.293 721.102 39.9844 718.84 39.9727C716.566 39.9844 715.195 39.293 715.195 38.0742C715.195 36.8555 716.566 36.1641 718.84 36.1641ZM718.84 37.0195C717.234 37.0312 716.32 37.4062 716.32 38.0742C716.32 38.7422 717.234 39.1172 718.84 39.1172C720.422 39.1172 721.348 38.7422 721.348 38.0742C721.348 37.4062 720.422 37.0312 718.84 37.0195ZM734.027 35.2266V36.1289H724.418V35.2266H728.672V34.2305H725.648V31.5586H731.707V30.6211H725.625V29.7422H732.82V32.3789H726.75V33.3633H733.031V34.2305H729.773V35.2266H734.027ZM732.879 36.8672V39.9141H731.754V37.7578H725.496V36.8672H732.879ZM743.086 30.2227C743.086 31.5352 744.773 32.8008 746.766 33.0938L746.332 33.9727C744.668 33.6973 743.197 32.8359 742.523 31.6523C741.855 32.8594 740.373 33.7207 738.703 33.9961L738.281 33.1172C740.273 32.8125 741.949 31.582 741.949 30.2227V29.7656H743.086V30.2227ZM747.328 34.7812V35.6836H743.156V37.7109H742.055V35.6836H737.719V34.7812H747.328ZM746.262 38.8711V39.7734H738.914V36.7266H740.027V38.8711H746.262Z" fill="#5797FF"/>
</g>
</g>
<g id="text_field">
<rect x="16.5" y="14.5" width="413" height="39" rx="5.5" fill="#F8FAFC"/>
<rect x="16.5" y="14.5" width="413" height="39" rx="5.5" stroke="#E2E8F0"/>
<path id="&#237;&#133;&#141;&#236;&#138;&#164;&#237;&#138;&#184;&#237;&#133;&#141;&#236;&#138;&#164;&#237;&#138;&#184;" d="M31.6416 30.8184C31.6416 31.957 32.6084 33.0098 34.0156 33.4287L33.6182 34.0732C32.5171 33.7456 31.6577 33.0366 31.2441 32.1182C30.8252 33.1279 29.939 33.896 28.8057 34.2666L28.3867 33.6006C29.8047 33.1709 30.8145 32.0752 30.8145 30.8184V30.6357H28.6553V29.9375H30.8145V28.7773H31.6631V29.9375H33.8008V30.6357H31.6416V30.8184ZM35.8525 28.8203V31.1836H37.292V31.8926H35.8525V34.374H35.0146V28.8203H35.8525ZM36.0244 34.8896V35.5771H33.3174C33.457 36.5762 34.8589 37.4355 36.3896 37.6826L36.0781 38.3379C34.6763 38.1069 33.4087 37.4141 32.8662 36.458C32.3184 37.4087 31.0615 38.0854 29.6758 38.3271L29.3535 37.6826C30.895 37.4355 32.2808 36.5923 32.4258 35.5771H29.7295V34.8896H36.0244ZM42.2441 29.4434C44.2422 29.4434 45.7354 30.4854 45.7354 32.0645C45.7354 33.6543 44.2422 34.6963 42.2441 34.6855C40.2461 34.6963 38.7529 33.6543 38.7529 32.0645C38.7529 30.4854 40.2461 29.4434 42.2441 29.4434ZM42.2441 30.1309C40.708 30.1201 39.5479 30.9258 39.5586 32.0645C39.5479 33.2246 40.708 33.998 42.2441 33.998C43.7695 33.998 44.9189 33.2246 44.9189 32.0645C44.9189 30.9258 43.7695 30.1201 42.2441 30.1309ZM46.6377 36.3936V37.1025H37.8936V36.3936H46.6377ZM50.7949 31.3877C50.7842 33.1279 51.9766 34.8896 53.3838 35.5234L52.8682 36.1895C51.7832 35.6577 50.8433 34.5352 50.3867 33.1709C49.9409 34.6157 49.001 35.8188 47.8838 36.3828L47.3467 35.6738C48.7646 35.0186 49.9463 33.2031 49.957 31.3877V29.6475H50.7949V31.3877ZM55.2744 28.8203V38.3916H54.4258V28.8203H55.2744ZM64.6309 31.7207V32.3975H58.0889V29.1748H58.9268V31.7207H64.6309ZM65.6406 33.6973V34.3848H56.8965V33.6973H65.6406ZM64.6846 37.4355V38.1338H58.0352V35.3623H58.873V37.4355H64.6846ZM72.3652 30.3672C72.3652 31.667 73.3535 32.8594 74.7393 33.332L74.2773 33.998C73.2192 33.6113 72.3867 32.8218 71.9678 31.8281C71.5596 32.9507 70.7109 33.8369 69.5938 34.2666L69.1426 33.5898C70.5713 33.0527 71.5273 31.7744 71.5381 30.3027V29.3145H72.3652V30.3672ZM76.6406 28.8203V31.3125H78.0801V32.0215H76.6406V34.6318H75.8027V28.8203H76.6406ZM73.5791 34.8789C75.5449 34.8789 76.7266 35.5127 76.7266 36.6084C76.7266 37.7256 75.5449 38.3486 73.5791 38.3486C71.6133 38.3486 70.4102 37.7256 70.4102 36.6084C70.4102 35.5127 71.6133 34.8789 73.5791 34.8789ZM73.5791 35.5557C72.1396 35.5557 71.248 35.9531 71.2588 36.6084C71.248 37.2852 72.1396 37.6719 73.5791 37.6826C75.0293 37.6719 75.9102 37.2852 75.9102 36.6084C75.9102 35.9531 75.0293 35.5557 73.5791 35.5557ZM87.3828 33.4395V34.1377H83.4404V35.2656H86.3193V38.2412H79.7451V35.2656H82.6133V34.1377H78.6816V33.4395H87.3828ZM86.5557 29.1318V29.8301H85.084V31.8389H86.5234V32.5371H79.5303V31.8389H80.9697V29.8301H79.498V29.1318H86.5557ZM80.583 35.9316V37.5537H85.4922V35.9316H80.583ZM81.8076 31.8389H84.2461V29.8301H81.8076V31.8389ZM92.5391 28.9922C94.666 28.9922 95.9121 29.5723 95.9121 30.6357C95.9121 31.7207 94.666 32.3008 92.5391 32.3115C90.4121 32.3008 89.1553 31.7207 89.1553 30.6357C89.1553 29.5723 90.4121 28.9922 92.5391 28.9922ZM92.5391 29.626C90.9492 29.626 90.0254 30.0127 90.0361 30.6357C90.0254 31.3018 90.9492 31.667 92.5391 31.667C94.1182 31.667 95.0527 31.3018 95.0527 30.6357C95.0527 30.0127 94.1182 29.626 92.5391 29.626ZM96.8896 32.9561V33.6436H88.1885V32.9561H96.8896ZM95.7725 34.4707V36.6084H90.1006V37.5967H96.0625V38.2627H89.2627V35.9854H94.9453V35.1152H89.2412V34.4707H95.7725ZM105.387 29.4434C105.376 31.8389 103.668 33.5576 100.918 34.3418L100.563 33.6758C102.846 33.0312 104.302 31.7637 104.484 30.1416H101.058V29.4434H105.387ZM108.373 28.8311V34.2773H107.524V32H105.408V31.291H107.524V28.8311H108.373ZM108.373 34.6855V38.2412H102.175V34.6855H108.373ZM102.991 35.3623V37.5537H107.535V35.3623H102.991ZM112.81 30.6895C112.81 31.7744 113.54 32.8701 114.765 33.3535L114.313 34.0088C113.411 33.6328 112.75 32.9346 112.412 32.0859C112.058 33.0151 111.37 33.8262 110.436 34.2451L109.974 33.5898C111.23 33.0312 112.004 31.7744 112.004 30.6895V29.4111H112.81V30.6895ZM118.073 28.8311V34.5996H117.268V32.0322H116V34.5459H115.205V29.0029H116V31.3232H117.268V28.8311H118.073ZM118.073 35.126V38.3701H117.246V35.8242H111.639V35.126H118.073ZM124.239 30.4746V31.1621H119.448V30.4746H121.436V29.1104H122.273V30.4746H124.239ZM121.844 31.8066C123.047 31.8066 123.906 32.709 123.917 33.9766C123.906 35.2549 123.047 36.168 121.844 36.168C120.651 36.168 119.792 35.2549 119.792 33.9766C119.792 32.709 120.651 31.8066 121.844 31.8066ZM121.844 32.5156C121.092 32.5264 120.544 33.1387 120.544 33.9766C120.544 34.8252 121.092 35.4375 121.844 35.4268C122.606 35.4375 123.165 34.8252 123.165 33.9766C123.165 33.1387 122.606 32.5264 121.844 32.5156ZM127.602 28.8203V38.3701H126.796V33.5469H125.528V37.8975H124.733V29.0566H125.528V32.8486H126.796V28.8203H127.602ZM137.721 36.4473V37.1455H128.977V36.4473H132.908V34.3848H130.008V29.4971H130.856V31.2266H135.819V29.4971H136.646V34.3848H133.735V36.4473H137.721ZM130.856 33.6973H135.819V31.9141H130.856V33.6973ZM141.319 31.5381C141.319 33.0527 142.061 34.6963 143.328 35.4482L142.845 36.1035C141.926 35.5449 141.266 34.5244 140.933 33.3643C140.578 34.6318 139.869 35.7222 138.913 36.3076L138.376 35.6738C139.697 34.9004 140.503 33.2031 140.503 31.5703V29.7227H141.319V31.5381ZM146.669 28.8203V38.3701H145.853V28.8203H146.669ZM144.692 29.0244V37.8867H143.897V32.9668H142.275V32.2471H143.897V29.0244H144.692ZM156.734 36.4365V37.1455H147.99V36.4365H150.16V33.8584C149.344 33.4341 148.85 32.7466 148.85 31.8818C148.85 30.3994 150.3 29.4326 152.341 29.4219C154.382 29.4326 155.832 30.3994 155.832 31.8818C155.832 32.7305 155.354 33.4126 154.564 33.8369V36.4365H156.734ZM152.341 30.1201C150.772 30.1094 149.666 30.8184 149.666 31.8818C149.666 32.9453 150.772 33.665 152.341 33.665C153.898 33.665 155.016 32.9453 155.016 31.8818C155.016 30.8184 153.898 30.1094 152.341 30.1201ZM150.987 36.4365H153.716V34.1592C153.302 34.272 152.84 34.3311 152.341 34.3311C151.852 34.3311 151.396 34.2773 150.987 34.1699V36.4365ZM158.507 37.5645C158.131 37.5645 157.809 37.2529 157.819 36.8662C157.809 36.4902 158.131 36.1787 158.507 36.1787C158.883 36.1787 159.194 36.4902 159.194 36.8662C159.194 37.2529 158.883 37.5645 158.507 37.5645Z" fill="#94A3B8"/>
<g id="u:search">
<path id="Vector_2" d="M416.609 37.529L416.328 37.88L416.647 38.1968L419.734 41.259C419.792 41.3208 419.825 41.4026 419.825 41.4877C419.825 41.573 419.792 41.6551 419.734 41.717C419.703 41.7472 419.667 41.7712 419.627 41.7877L419.82 42.2492L419.627 41.7877C419.587 41.8046 419.543 41.8133 419.499 41.8133C419.455 41.8133 419.412 41.8046 419.371 41.7877L419.179 42.2492L419.371 41.7877C419.33 41.7708 419.294 41.746 419.263 41.7147L419.261 41.7133L416.194 38.6466L415.878 38.3298L415.528 38.6101C414.131 39.7302 412.359 40.2726 410.575 40.1259C408.79 39.9791 407.13 39.1543 405.935 37.8211C404.741 36.4878 404.102 34.7475 404.151 32.9579C404.2 31.1684 404.933 29.4656 406.199 28.1997C407.465 26.9338 409.167 26.201 410.957 26.152C412.747 26.1031 414.487 26.7416 415.82 27.9364C417.153 29.1312 417.978 30.7913 418.125 32.5756C418.272 34.3598 417.729 36.1324 416.609 37.529ZM407.647 38.4328C408.689 39.1287 409.913 39.5002 411.166 39.5002C412.846 39.5002 414.456 38.8329 415.644 37.6452C416.832 36.4574 417.499 34.8465 417.499 33.1668C417.499 31.9142 417.128 30.6897 416.432 29.6482C415.736 28.6067 414.747 27.7949 413.59 27.3156C412.432 26.8362 411.159 26.7108 409.93 26.9552C408.702 27.1996 407.573 27.8028 406.688 28.6885C405.802 29.5742 405.199 30.7027 404.954 31.9313C404.71 33.1598 404.835 34.4332 405.315 35.5905C405.794 36.7478 406.606 37.7369 407.647 38.4328Z" fill="#334155" stroke="#475569"/>
</g>
</g>
</g>
<defs>
<clipPath id="clip0_1354_29688">
<rect width="802" height="69" rx="12" fill="white"/>
</clipPath>
</defs>
</svg>
