<svg width="342" height="402" viewBox="0 0 342 402" fill="none" xmlns="http://www.w3.org/2000/svg">
<rect x="0.5" y="0.5" width="341" height="401" rx="11.5" fill="white" stroke="#E2E8F0"/>
<mask id="path-2-inside-1_1354_29681" fill="white">
<path d="M173 119C173 114.582 176.586 110.973 180.995 111.256C209.555 113.085 236.717 124.674 257.85 144.21C280.948 165.561 295.147 194.835 297.615 226.193C300.083 257.55 290.638 288.685 271.165 313.387C251.691 338.088 223.621 354.541 192.554 359.461C161.487 364.382 129.707 357.409 103.554 339.934C77.4004 322.459 58.7966 295.766 51.4537 265.181C44.1109 234.595 48.5688 202.366 63.938 174.922C78.0004 149.812 100.251 130.397 126.848 119.832C130.954 118.201 135.48 120.524 136.845 124.726L157.392 187.962C160.207 196.626 173 194.6 173 185.49V119Z"/>
</mask>
<path d="M173 119C173 114.582 176.586 110.973 180.995 111.256C209.555 113.085 236.717 124.674 257.85 144.21C280.948 165.561 295.147 194.835 297.615 226.193C300.083 257.55 290.638 288.685 271.165 313.387C251.691 338.088 223.621 354.541 192.554 359.461C161.487 364.382 129.707 357.409 103.554 339.934C77.4004 322.459 58.7966 295.766 51.4537 265.181C44.1109 234.595 48.5688 202.366 63.938 174.922C78.0004 149.812 100.251 130.397 126.848 119.832C130.954 118.201 135.48 120.524 136.845 124.726L157.392 187.962C160.207 196.626 173 194.6 173 185.49V119Z" fill="#FF7C00" stroke="white" stroke-width="4" mask="url(#path-2-inside-1_1354_29681)"/>
<mask id="path-3-inside-2_1354_29681" fill="white">
<path d="M173 119C173 114.582 169.415 110.973 165.005 111.256C157.205 111.756 149.468 112.986 141.897 114.931C137.618 116.031 135.329 120.573 136.7 124.774L157.395 188.184C160.219 196.839 173 194.806 173 185.702V119Z"/>
</mask>
<path d="M173 119C173 114.582 169.415 110.973 165.005 111.256C157.205 111.756 149.468 112.986 141.897 114.931C137.618 116.031 135.329 120.573 136.7 124.774L157.395 188.184C160.219 196.839 173 194.806 173 185.702V119Z" fill="#E2E8F0" stroke="white" stroke-width="4" mask="url(#path-3-inside-2_1354_29681)"/>
<circle cx="173" cy="236" r="79" fill="white"/>
<path d="M161.231 209.12V210.64H145.271V209.12H152.311V207.12H154.151V209.12H161.231ZM146.111 206.52C149.571 206.28 151.951 205 152.211 203.32H146.871V201.84H152.311V200.16H154.151V201.84H159.631V203.32H154.291C154.511 205 156.891 206.28 160.351 206.52L159.791 207.96C156.771 207.68 154.331 206.68 153.251 205.04C152.171 206.68 149.711 207.68 146.711 207.96L146.111 206.52ZM147.151 214.72C147.171 212.82 149.411 211.78 153.231 211.8C157.051 211.78 159.271 212.82 159.271 214.72C159.271 216.6 157.051 217.64 153.231 217.64C149.411 217.64 147.171 216.6 147.151 214.72ZM149.071 214.72C149.031 215.7 150.531 216.24 153.231 216.24C155.911 216.24 157.411 215.7 157.431 214.72C157.411 213.72 155.911 213.18 153.231 213.16C150.531 213.18 149.031 213.72 149.071 214.72ZM182.039 200.16V210.36H180.199V205.96H176.879V204.44H180.199V200.16H182.039ZM167.439 208.8C170.159 207.88 171.819 205.54 171.839 203.12V202.72H168.039V201.2H177.479V202.72H173.719V203.16C173.699 205.32 175.279 207.5 177.919 208.44L176.959 209.88C174.999 209.2 173.559 207.78 172.799 206.06C172.019 207.98 170.499 209.52 168.399 210.24L167.439 208.8ZM170.479 217.44V211.16H182.039V217.44H170.479ZM172.319 215.92H180.199V212.64H172.319V215.92ZM193.684 201.68C193.684 204.02 196.524 206.2 199.964 206.68L199.244 208.2C196.364 207.74 193.864 206.24 192.724 204.16C191.584 206.24 189.084 207.74 186.244 208.2L185.484 206.68C188.924 206.2 191.744 204.06 191.764 201.68V200.76H193.684V201.68ZM184.724 211.44V209.88H200.684V211.44H193.564V217.64H191.764V211.44H184.724Z" fill="#64748B"/>
<path d="M150.146 238.088C154.818 238.088 159.266 240.872 159.234 249.096C159.266 256.776 155.618 261.32 149.954 261.32C145.378 261.32 142.273 258.44 141.825 254.664H146.434C146.818 256.296 148.13 257.288 149.954 257.288C153.026 257.288 154.658 254.504 154.69 249.992H154.434C153.41 252.008 151.17 253.192 148.674 253.192C144.609 253.192 141.601 250.12 141.569 245.896C141.569 241.352 145.026 238.056 150.146 238.088ZM146.178 245.768C146.146 248.008 147.81 249.768 150.146 249.736C152.418 249.768 154.178 247.912 154.178 245.768C154.178 243.592 152.482 241.768 150.146 241.736C147.842 241.768 146.114 243.528 146.178 245.768ZM170.581 261.32C165.845 261.32 162.389 258.536 162.325 254.664H166.869C166.965 256.392 168.597 257.608 170.581 257.608C172.917 257.608 174.581 255.944 174.549 253.576C174.581 251.208 172.885 249.512 170.517 249.544C168.789 249.512 167.605 250.152 166.933 251.4H162.709L163.925 238.344H177.813V242.248H167.765L167.189 247.944H167.317C168.181 246.824 169.877 246.024 171.861 246.024C176.021 246.024 179.125 249.128 179.093 253.448C179.125 258.056 175.637 261.32 170.581 261.32ZM194.483 255.56C194.515 252.872 196.275 250.536 199.475 250.568C202.707 250.536 204.435 252.84 204.403 255.56V256.776C204.435 259.464 202.643 261.768 199.475 261.768C196.243 261.768 194.515 259.464 194.483 256.776V255.56ZM182.899 243.784V242.632C182.899 239.88 184.723 237.608 187.891 237.576C191.091 237.608 192.819 239.88 192.819 242.632V243.784C192.819 246.536 191.059 248.808 187.891 248.776C184.627 248.808 182.899 246.504 182.899 243.784ZM184.371 261L199.923 238.344H202.803L187.187 261H184.371ZM186.099 243.784C186.099 244.904 186.547 245.992 187.891 246.024C189.235 245.992 189.619 244.904 189.619 243.784V242.632C189.619 241.512 189.267 240.392 187.891 240.392C186.547 240.392 186.099 241.544 186.099 242.632V243.784ZM197.683 256.776C197.683 257.832 198.099 258.952 199.475 258.952C200.819 258.952 201.235 257.832 201.203 256.776V255.56C201.235 254.472 200.851 253.352 199.475 253.32C198.131 253.352 197.683 254.472 197.683 255.56V256.776Z" fill="#FF7C00"/>
<rect x="30" y="32" width="282" height="44" rx="8" fill="#F1F5F9"/>
<path d="M54.784 46.572C54.766 50.73 52.12 53.628 47.44 54.924L46.54 53.196C50.014 52.26 52.012 50.496 52.372 48.336H47.44V46.572H54.784ZM49.348 61.44V55.212H59.968V61.44H49.348ZM51.544 59.676H57.736V56.976H51.544V59.676ZM54.856 51.252V49.452H57.736V45.636H59.968V54.564H57.736V51.252H54.856ZM70.5206 46.86C70.5206 48.75 72.4466 50.838 76.1006 51.288L75.2366 53.124C72.4286 52.71 70.3766 51.414 69.3506 49.668C68.3066 51.414 66.2546 52.71 63.4646 53.124L62.6006 51.288C66.2366 50.838 68.1626 48.75 68.1446 46.86V46.104H70.5206V46.86ZM62.0246 56.148V54.312H76.6406V56.148H70.4126V61.62H68.1806V56.148H62.0246ZM95.2297 45.6V53.664H92.9977V52.44H89.3257V50.748H92.9977V49.344H89.5057C88.5157 51.738 86.2297 53.268 82.7017 54.024L81.9457 52.224C85.5997 51.486 87.2917 49.974 87.5797 48.048H82.8457V46.248H90.0817C90.0817 46.734 90.0457 47.184 89.9737 47.616H92.9977V45.6H95.2297ZM84.5737 56.004V54.24H95.2297V58.632H86.8417V59.676H95.5897V61.476H84.6097V56.976H92.9617V56.004H84.5737ZM106.286 47.22V48.516C106.268 50.01 106.268 51.972 105.854 54.636L103.658 54.456C104.018 52.152 104.054 50.424 104.054 49.02H98.0064V47.22H106.286ZM97.1424 56.58C98.0424 56.562 99.0504 56.562 100.094 56.526V51.792H102.29V56.454C103.856 56.382 105.458 56.274 106.934 56.076L107.078 57.768C103.784 58.308 100.166 58.362 97.3584 58.344L97.1424 56.58ZM107.69 61.62V45.6H109.958V52.044H112.154V53.916H109.958V61.62H107.69ZM116.227 58.704L114.715 63.708H112.843L113.707 58.704H116.227ZM136.213 53.628V55.428H121.597V53.628H127.753V52.08H129.985V53.628H136.213ZM122.209 51.144C125.647 50.946 127.267 49.92 127.591 48.804H123.001V47.04H127.753V45.672H129.985V47.04H134.773V48.804H130.183C130.471 49.92 132.109 50.946 135.529 51.144L134.881 52.872C131.929 52.656 129.877 51.792 128.869 50.496C127.879 51.792 125.827 52.656 122.893 52.872L122.209 51.144ZM123.289 58.884C123.271 57.138 125.359 56.184 128.869 56.184C132.379 56.184 134.431 57.138 134.449 58.884C134.431 60.666 132.379 61.62 128.869 61.62C125.359 61.62 123.271 60.666 123.289 58.884ZM125.557 58.884C125.539 59.622 126.637 59.964 128.869 59.964C131.065 59.964 132.199 59.622 132.217 58.884C132.199 58.164 131.065 57.84 128.869 57.84C126.637 57.84 125.539 58.164 125.557 58.884ZM150.654 45.6V54.888H148.422V51.144H145.866V49.308H148.422V45.6H150.654ZM137.082 53.124C139.656 52.296 140.88 50.244 140.934 48.228H137.694V46.428H146.37V48.228H143.202C143.238 50.064 144.372 51.99 146.874 52.836L145.758 54.6C143.994 54.006 142.77 52.854 142.086 51.414C141.366 52.998 140.106 54.276 138.234 54.888L137.082 53.124ZM139.89 61.44V55.536H150.654V61.44H139.89ZM142.122 59.64H148.458V57.3H142.122V59.64ZM161.206 46.86C161.206 48.75 163.132 50.838 166.786 51.288L165.922 53.124C163.114 52.71 161.062 51.414 160.036 49.668C158.992 51.414 156.94 52.71 154.15 53.124L153.286 51.288C156.922 50.838 158.848 48.75 158.83 46.86V46.104H161.206V46.86ZM152.71 56.148V54.312H167.326V56.148H161.098V61.62H158.866V56.148H152.71ZM177.599 47.112C180.227 47.112 182.729 48.678 182.711 53.304C182.729 57.624 180.677 60.18 177.491 60.18C174.917 60.18 173.171 58.56 172.919 56.436H175.511C175.727 57.354 176.465 57.912 177.491 57.912C179.219 57.912 180.137 56.346 180.155 53.808H180.011C179.435 54.942 178.175 55.608 176.771 55.608C174.485 55.608 172.793 53.88 172.775 51.504C172.775 48.948 174.719 47.094 177.599 47.112ZM175.367 51.432C175.349 52.692 176.285 53.682 177.599 53.664C178.877 53.682 179.867 52.638 179.867 51.432C179.867 50.208 178.913 49.182 177.599 49.164C176.303 49.182 175.331 50.172 175.367 51.432ZM189.184 60.18C186.52 60.18 184.576 58.614 184.54 56.436H187.096C187.15 57.408 188.068 58.092 189.184 58.092C190.498 58.092 191.434 57.156 191.416 55.824C191.434 54.492 190.48 53.538 189.148 53.556C188.176 53.538 187.51 53.898 187.132 54.6H184.756L185.44 47.256H193.252V49.452H187.6L187.276 52.656H187.348C187.834 52.026 188.788 51.576 189.904 51.576C192.244 51.576 193.99 53.322 193.972 55.752C193.99 58.344 192.028 60.18 189.184 60.18ZM208.767 45.6V54.888H206.535V51.144H203.979V49.308H206.535V45.6H208.767ZM195.195 53.124C197.769 52.296 198.993 50.244 199.047 48.228H195.807V46.428H204.483V48.228H201.315C201.351 50.064 202.485 51.99 204.987 52.836L203.871 54.6C202.107 54.006 200.883 52.854 200.199 51.414C199.479 52.998 198.219 54.276 196.347 54.888L195.195 53.124ZM198.003 61.44V55.536H208.767V61.44H198.003ZM200.235 59.64H206.571V57.3H200.235V59.64ZM259.477 45.6V54.204H257.245V45.6H259.477ZM246.337 50.064C246.337 47.832 248.209 46.284 250.729 46.284C253.213 46.284 255.085 47.832 255.085 50.064C255.085 52.26 253.213 53.826 250.729 53.844C248.209 53.826 246.337 52.26 246.337 50.064ZM248.533 50.064C248.515 51.27 249.433 51.99 250.729 51.972C251.971 51.99 252.871 51.27 252.853 50.064C252.871 48.876 251.971 48.156 250.729 48.156C249.433 48.156 248.515 48.876 248.533 50.064ZM248.785 61.44V54.924H250.981V56.4H257.245V54.924H259.477V61.44H248.785ZM250.981 59.64H257.245V58.164H250.981V59.64ZM275.106 45.6V61.62H272.874V45.6H275.106ZM262.506 57.66V47.148H264.738V55.752C266.898 55.716 269.22 55.518 271.578 55.068L271.83 56.904C269.04 57.498 266.394 57.678 263.91 57.66H262.506ZM289.834 45.6V51.576H292.174V53.376H289.834V61.656H287.566V45.6H289.834ZM277.846 57.768V47.112H285.334V48.912H280.078V55.932C282.4 55.896 284.308 55.788 286.414 55.428L286.666 57.3C284.2 57.714 282.022 57.786 279.178 57.768H277.846ZM294.843 60.144C294.015 60.162 293.331 59.496 293.367 58.668C293.331 57.876 294.015 57.21 294.843 57.228C295.617 57.21 296.301 57.876 296.319 58.668C296.301 59.496 295.617 60.162 294.843 60.144Z" fill="#334155"/>
<path d="M227.68 45.6V49.488H229.84V51.324H227.68V54.996H225.412V45.6H227.68ZM214.972 48.804V47.04H218.608V45.492H220.84V47.04H224.476V48.804H214.972ZM215.764 52.08C215.764 50.37 217.366 49.254 219.724 49.236C222.046 49.254 223.666 50.37 223.684 52.08C223.666 53.772 222.046 54.906 219.724 54.888C217.366 54.906 215.764 53.772 215.764 52.08ZM217.204 61.44V55.608H219.436V56.832H225.412V55.608H227.68V61.44H217.204ZM217.96 52.08C217.942 52.854 218.662 53.268 219.724 53.268C220.804 53.268 221.524 52.854 221.524 52.08C221.524 51.324 220.804 50.874 219.724 50.892C218.662 50.874 217.942 51.324 217.96 52.08ZM219.436 59.676H225.412V58.56H219.436V59.676ZM239.097 46.608C239.097 47.166 239.043 47.706 238.953 48.228H241.797V45.636H244.029V55.14H241.797V53.412H238.161V51.612H241.797V49.992H238.431C237.351 52.476 234.993 54.204 231.573 55.104L230.709 53.34C234.309 52.386 236.343 50.604 236.703 48.444H231.609V46.608H239.097ZM233.013 57.552V55.788H244.029V61.584H241.797V57.552H233.013Z" fill="#FF7C00"/>
</svg>
